NotoSerifTelugu-Regular.ufo
<glyph name="exclam.telu" format="2">
  <advance width="296"/>
  <unicode hex="0021"/>
  <outline>
    <contour>
      <point x="125" y="201" type="line"/>
      <point x="171" y="201" type="line"/>
      <point x="206" y="657" type="line"/>
      <point x="90" y="657" type="line"/>
    </contour>
    <contour>
      <point x="148" y="-7" type="curve" smooth="yes"/>
      <point x="182" y="-7"/>
      <point x="211" y="10"/>
      <point x="211" y="61" type="curve" smooth="yes"/>
      <point x="211" y="113"/>
      <point x="182" y="129"/>
      <point x="148" y="129" type="curve" smooth="yes"/>
      <point x="113" y="129"/>
      <point x="85" y="113"/>
      <point x="85" y="61" type="curve" smooth="yes"/>
      <point x="85" y="10"/>
      <point x="113" y="-7"/>
    </contour>
  </outline>
</glyph>
<glyph name="quotedbl.telu" format="2">
  <advance width="460"/>
  <unicode hex="0022"/>
  <outline>
    <contour>
      <point x="301" y="538" type="line"/>
      <point x="347" y="538" type="line"/>
      <point x="377" y="773" type="line"/>
      <point x="271" y="773" type="line"/>
    </contour>
    <contour>
      <point x="113" y="538" type="line"/>
      <point x="159" y="538" type="line"/>
      <point x="189" y="773" type="line"/>
      <point x="83" y="773" type="line"/>
    </contour>
  </outline>
</glyph>
<glyph name="numbersign.telu" format="2">
  <advance width="559"/>
  <unicode hex="0023"/>
  <outline>
    <contour>
      <point x="57" y="413" type="line"/>
      <point x="534" y="413" type="line"/>
      <point x="534" y="470" type="line"/>
      <point x="57" y="470" type="line"/>
    </contour>
    <contour>
      <point x="25" y="188" type="line"/>
      <point x="502" y="188" type="line"/>
      <point x="502" y="245" type="line"/>
      <point x="25" y="245" type="line"/>
    </contour>
    <contour>
      <point x="262" y="651" type="line"/>
      <point x="201" y="651" type="line"/>
      <point x="79" y="0" type="line"/>
      <point x="139" y="0" type="line"/>
    </contour>
    <contour>
      <point x="461" y="651" type="line"/>
      <point x="401" y="651" type="line"/>
      <point x="278" y="0" type="line"/>
      <point x="338" y="0" type="line"/>
    </contour>
  </outline>
</glyph>
<glyph name="percent.telu" format="2">
  <advance width="851"/>
  <unicode hex="0025"/>
  <outline>
    <contour>
      <point x="195" y="0" type="line"/>
      <point x="261" y="0" type="line"/>
      <point x="656" y="651" type="line"/>
      <point x="590" y="651" type="line"/>
    </contour>
    <contour>
      <point x="208" y="276" type="curve" smooth="yes"/>
      <point x="312" y="276"/>
      <point x="367" y="357"/>
      <point x="367" y="469" type="curve" smooth="yes"/>
      <point x="367" y="582"/>
      <point x="312" y="661"/>
      <point x="209" y="661" type="curve" smooth="yes"/>
      <point x="99" y="661"/>
      <point x="49" y="582"/>
      <point x="49" y="469" type="curve" smooth="yes"/>
      <point x="49" y="357"/>
      <point x="99" y="276"/>
    </contour>
    <contour>
      <point x="208" y="317" type="curve" smooth="yes"/>
      <point x="153" y="317"/>
      <point x="133" y="375"/>
      <point x="133" y="469" type="curve" smooth="yes"/>
      <point x="133" y="562"/>
      <point x="153" y="620"/>
      <point x="209" y="620" type="curve" smooth="yes"/>
      <point x="264" y="620"/>
      <point x="282" y="562"/>
      <point x="282" y="469" type="curve" smooth="yes"/>
      <point x="282" y="375"/>
      <point x="264" y="317"/>
    </contour>
    <contour>
      <point x="643" y="-10" type="curve" smooth="yes"/>
      <point x="747" y="-10"/>
      <point x="802" y="71"/>
      <point x="802" y="183" type="curve" smooth="yes"/>
      <point x="802" y="296"/>
      <point x="747" y="375"/>
      <point x="644" y="375" type="curve" smooth="yes"/>
      <point x="534" y="375"/>
      <point x="484" y="296"/>
      <point x="484" y="183" type="curve" smooth="yes"/>
      <point x="484" y="71"/>
      <point x="534" y="-10"/>
    </contour>
    <contour>
      <point x="643" y="31" type="curve" smooth="yes"/>
      <point x="588" y="31"/>
      <point x="568" y="89"/>
      <point x="568" y="183" type="curve" smooth="yes"/>
      <point x="568" y="276"/>
      <point x="588" y="334"/>
      <point x="644" y="334" type="curve" smooth="yes"/>
      <point x="699" y="334"/>
      <point x="717" y="276"/>
      <point x="717" y="183" type="curve" smooth="yes"/>
      <point x="717" y="89"/>
      <point x="699" y="31"/>
    </contour>
  </outline>
</glyph>
<glyph name="quotesingle.telu" format="2">
  <advance width="272"/>
  <unicode hex="0027"/>
  <outline>
    <contour>
      <point x="113" y="538" type="line"/>
      <point x="159" y="538" type="line"/>
      <point x="189" y="773" type="line"/>
      <point x="83" y="773" type="line"/>
    </contour>
  </outline>
</glyph>
<glyph name="parenleft.telu" format="2">
  <advance width="368"/>
  <unicode hex="0028"/>
  <outline>
    <contour>
      <point x="322" y="-364" type="curve"/>
      <point x="322" y="-316" type="line"/>
      <point x="169" y="-213"/>
      <point x="144" y="-29"/>
      <point x="144" y="206" type="curve" smooth="yes"/>
      <point x="144" y="440"/>
      <point x="169" y="624"/>
      <point x="322" y="727" type="curve"/>
      <point x="322" y="775" type="line"/>
      <point x="132" y="685"/>
      <point x="57" y="533"/>
      <point x="57" y="206" type="curve" smooth="yes"/>
      <point x="57" y="-122"/>
      <point x="130" y="-274"/>
    </contour>
  </outline>
</glyph>
<glyph name="parenright.telu" format="2">
  <advance width="368"/>
  <unicode hex="0029"/>
  <outline>
    <contour>
      <point x="46" y="775" type="curve"/>
      <point x="46" y="727" type="line"/>
      <point x="199" y="624"/>
      <point x="224" y="440"/>
      <point x="224" y="205" type="curve" smooth="yes"/>
      <point x="224" y="-29"/>
      <point x="199" y="-213"/>
      <point x="46" y="-316" type="curve"/>
      <point x="46" y="-364" type="line"/>
      <point x="236" y="-274"/>
      <point x="311" y="-122"/>
      <point x="311" y="205" type="curve" smooth="yes"/>
      <point x="311" y="533"/>
      <point x="238" y="685"/>
    </contour>
  </outline>
</glyph>
<glyph name="asterisk.telu" format="2">
  <advance width="520"/>
  <unicode hex="002A"/>
  <outline>
    <contour>
      <point x="218" y="391" type="line"/>
      <point x="303" y="391" type="line"/>
      <point x="276" y="551" type="line"/>
      <point x="431" y="455" type="line"/>
      <point x="466" y="530" type="line"/>
      <point x="286" y="582" type="line"/>
      <point x="466" y="634" type="line"/>
      <point x="431" y="710" type="line"/>
      <point x="276" y="613" type="line"/>
      <point x="303" y="773" type="line"/>
      <point x="218" y="773" type="line"/>
      <point x="243" y="612" type="line"/>
      <point x="89" y="712" type="line"/>
      <point x="54" y="635" type="line"/>
      <point x="233" y="582" type="line"/>
      <point x="54" y="529" type="line"/>
      <point x="89" y="453" type="line"/>
      <point x="243" y="552" type="line"/>
    </contour>
  </outline>
</glyph>
<glyph name="plus.telu" format="2">
  <advance width="559"/>
  <unicode hex="002B"/>
  <outline>
    <contour>
      <point x="249" y="112" type="line"/>
      <point x="309" y="112" type="line"/>
      <point x="309" y="297" type="line"/>
      <point x="494" y="297" type="line"/>
      <point x="494" y="356" type="line"/>
      <point x="309" y="356" type="line"/>
      <point x="309" y="541" type="line"/>
      <point x="249" y="541" type="line"/>
      <point x="249" y="356" type="line"/>
      <point x="65" y="356" type="line"/>
      <point x="65" y="297" type="line"/>
      <point x="249" y="297" type="line"/>
    </contour>
  </outline>
</glyph>
<glyph name="comma.telu" format="2">
  <advance width="255"/>
  <unicode hex="002C"/>
  <outline>
    <contour>
      <point x="35" y="-154" type="line"/>
      <point x="154" y="-119"/>
      <point x="199" y="-43"/>
      <point x="199" y="34" type="curve" smooth="yes"/>
      <point x="199" y="98"/>
      <point x="163" y="129"/>
      <point x="122" y="129" type="curve" smooth="yes"/>
      <point x="85" y="129"/>
      <point x="57" y="108"/>
      <point x="57" y="70" type="curve" smooth="yes"/>
      <point x="57" y="9"/>
      <point x="130" y="18"/>
      <point x="130" y="-22" type="curve" smooth="yes"/>
      <point x="130" y="-61"/>
      <point x="100" y="-91"/>
      <point x="35" y="-112" type="curve"/>
    </contour>
  </outline>
</glyph>
<glyph name="hyphen.telu" format="2">
  <advance width="320"/>
  <unicode hex="002D"/>
  <outline>
    <contour>
      <point x="40" y="215" type="line"/>
      <point x="280" y="215" type="line"/>
      <point x="280" y="290" type="line"/>
      <point x="40" y="290" type="line"/>
    </contour>
  </outline>
</glyph>
<glyph name="slash.telu" format="2">
  <advance width="368"/>
  <unicode hex="002F"/>
  <outline>
    <contour>
      <point x="30" y="-361" type="line"/>
      <point x="92" y="-361" type="line"/>
      <point x="338" y="773" type="line"/>
      <point x="276" y="773" type="line"/>
    </contour>
  </outline>
</glyph>
<glyph name="zero.telu" format="2">
  <advance width="559"/>
  <unicode hex="0030"/>
  <outline>
    <contour>
      <point x="280" y="-12" type="curve" smooth="yes"/>
      <point x="437" y="-12"/>
      <point x="514" y="123"/>
      <point x="514" y="326" type="curve" smooth="yes"/>
      <point x="514" y="529"/>
      <point x="437" y="661"/>
      <point x="281" y="661" type="curve" smooth="yes"/>
      <point x="115" y="661"/>
      <point x="45" y="529"/>
      <point x="45" y="327" type="curve" smooth="yes"/>
      <point x="45" y="123"/>
      <point x="115" y="-12"/>
    </contour>
    <contour>
      <point x="280" y="34" type="curve" smooth="yes"/>
      <point x="181" y="34"/>
      <point x="147" y="141"/>
      <point x="147" y="326" type="curve" smooth="yes"/>
      <point x="147" y="510"/>
      <point x="181" y="615"/>
      <point x="281" y="615" type="curve" smooth="yes"/>
      <point x="379" y="615"/>
      <point x="412" y="510"/>
      <point x="412" y="326" type="curve" smooth="yes"/>
      <point x="412" y="141"/>
      <point x="379" y="34"/>
    </contour>
  </outline>
</glyph>
<glyph name="one.telu" format="2">
  <advance width="559"/>
  <unicode hex="0031"/>
  <outline>
    <contour>
      <point x="96" y="0" type="line"/>
      <point x="477" y="0" type="line"/>
      <point x="477" y="42" type="line"/>
      <point x="428" y="42" type="line" smooth="yes"/>
      <point x="383" y="42"/>
      <point x="344" y="51"/>
      <point x="344" y="114" type="curve" smooth="yes"/>
      <point x="344" y="656" type="line"/>
      <point x="282" y="656" type="line"/>
      <point x="212" y="604" type="line" smooth="yes"/>
      <point x="146" y="555"/>
      <point x="106" y="537"/>
      <point x="66" y="527" type="curve"/>
      <point x="66" y="495"/>
      <point x="87" y="473"/>
      <point x="116" y="473" type="curve" smooth="yes"/>
      <point x="156" y="473"/>
      <point x="196" y="515"/>
      <point x="247" y="582" type="curve"/>
      <point x="247" y="114" type="line" smooth="yes"/>
      <point x="247" y="51"/>
      <point x="208" y="42"/>
      <point x="163" y="42" type="curve" smooth="yes"/>
      <point x="96" y="42" type="line"/>
    </contour>
  </outline>
</glyph>
<glyph name="two.telu" format="2">
  <advance width="559"/>
  <unicode hex="0032"/>
  <outline>
    <contour>
      <point x="51" y="0" type="line"/>
      <point x="481" y="0" type="line"/>
      <point x="486" y="173" type="line"/>
      <point x="444" y="173" type="line"/>
      <point x="440" y="155" type="line" smooth="yes"/>
      <point x="431" y="116"/>
      <point x="416" y="80"/>
      <point x="356" y="80" type="curve" smooth="yes"/>
      <point x="125" y="80" type="line"/>
      <point x="271" y="224" type="line" smooth="yes"/>
      <point x="412" y="363"/>
      <point x="461" y="427"/>
      <point x="461" y="511" type="curve" smooth="yes"/>
      <point x="461" y="603"/>
      <point x="384" y="661"/>
      <point x="258" y="661" type="curve" smooth="yes"/>
      <point x="131" y="661"/>
      <point x="62" y="606"/>
      <point x="62" y="532" type="curve" smooth="yes"/>
      <point x="62" y="482"/>
      <point x="100" y="469"/>
      <point x="148" y="469" type="curve"/>
      <point x="148" y="560"/>
      <point x="167" y="616"/>
      <point x="258" y="616" type="curve" smooth="yes"/>
      <point x="328" y="616"/>
      <point x="358" y="569"/>
      <point x="358" y="498" type="curve" smooth="yes"/>
      <point x="358" y="416"/>
      <point x="324" y="356"/>
      <point x="218" y="246" type="curve" smooth="yes"/>
      <point x="51" y="73" type="line"/>
    </contour>
  </outline>
</glyph>
<glyph name="three.telu" format="2">
  <advance width="559"/>
  <unicode hex="0033"/>
  <outline>
    <contour>
      <point x="239" y="-12" type="curve"/>
      <point x="349" y="-12"/>
      <point x="488" y="32"/>
      <point x="488" y="181" type="curve" smooth="yes"/>
      <point x="488" y="290"/>
      <point x="388" y="335"/>
      <point x="306" y="342" type="curve"/>
      <point x="397" y="364"/>
      <point x="463" y="433"/>
      <point x="463" y="517" type="curve" smooth="yes"/>
      <point x="463" y="610"/>
      <point x="379" y="660"/>
      <point x="253" y="660" type="curve" smooth="yes"/>
      <point x="124" y="660"/>
      <point x="57" y="608"/>
      <point x="57" y="536" type="curve" smooth="yes"/>
      <point x="57" y="488"/>
      <point x="95" y="472"/>
      <point x="143" y="472" type="curve"/>
      <point x="143" y="546"/>
      <point x="162" y="616"/>
      <point x="253" y="616" type="curve" smooth="yes"/>
      <point x="330" y="616"/>
      <point x="360" y="570"/>
      <point x="360" y="505" type="curve" smooth="yes"/>
      <point x="360" y="414"/>
      <point x="291" y="359"/>
      <point x="216" y="359" type="curve" smooth="yes"/>
      <point x="171" y="359" type="line"/>
      <point x="171" y="312" type="line"/>
      <point x="218" y="312" type="line" smooth="yes"/>
      <point x="330" y="312"/>
      <point x="385" y="259"/>
      <point x="385" y="177" type="curve" smooth="yes"/>
      <point x="385" y="72"/>
      <point x="317" y="34"/>
      <point x="235" y="34" type="curve" smooth="yes"/>
      <point x="154" y="34"/>
      <point x="108" y="85"/>
      <point x="108" y="155" type="curve"/>
      <point x="70" y="155"/>
      <point x="45" y="131"/>
      <point x="45" y="87" type="curve" smooth="yes"/>
      <point x="45" y="32"/>
      <point x="102" y="-12"/>
    </contour>
  </outline>
</glyph>
<glyph name="four.telu" format="2">
  <advance width="559"/>
  <unicode hex="0034"/>
  <outline>
    <contour>
      <point x="215" y="0" type="line"/>
      <point x="516" y="0" type="line"/>
      <point x="516" y="42" type="line"/>
      <point x="503" y="42" type="line" smooth="yes"/>
      <point x="458" y="42"/>
      <point x="421" y="51"/>
      <point x="421" y="114" type="curve" smooth="yes"/>
      <point x="421" y="180" type="line"/>
      <point x="545" y="180" type="line"/>
      <point x="545" y="234" type="line"/>
      <point x="421" y="234" type="line"/>
      <point x="421" y="653" type="line"/>
      <point x="326" y="653" type="line"/>
      <point x="17" y="217" type="line"/>
      <point x="17" y="180" type="line"/>
      <point x="325" y="180" type="line"/>
      <point x="325" y="114" type="line" smooth="yes"/>
      <point x="325" y="51"/>
      <point x="288" y="42"/>
      <point x="243" y="42" type="curve" smooth="yes"/>
      <point x="215" y="42" type="line"/>
    </contour>
    <contour>
      <point x="90" y="234" type="line"/>
      <point x="242" y="448" type="line" smooth="yes"/>
      <point x="272" y="490"/>
      <point x="319" y="564"/>
      <point x="332" y="589" type="curve"/>
      <point x="327" y="532"/>
      <point x="325" y="453"/>
      <point x="325" y="400" type="curve" smooth="yes"/>
      <point x="325" y="234" type="line"/>
    </contour>
  </outline>
</glyph>
<glyph name="five.telu" format="2">
  <advance width="559"/>
  <unicode hex="0035"/>
  <outline>
    <contour>
      <point x="244" y="-12" type="curve" smooth="yes"/>
      <point x="403" y="-12"/>
      <point x="486" y="74"/>
      <point x="486" y="200" type="curve" smooth="yes"/>
      <point x="486" y="331"/>
      <point x="393" y="398"/>
      <point x="261" y="398" type="curve" smooth="yes"/>
      <point x="208" y="398"/>
      <point x="162" y="387"/>
      <point x="141" y="379" type="curve"/>
      <point x="159" y="582" type="line"/>
      <point x="354" y="582" type="line" smooth="yes"/>
      <point x="396" y="582"/>
      <point x="404" y="566"/>
      <point x="408" y="540" type="curve" smooth="yes"/>
      <point x="412" y="512" type="line"/>
      <point x="454" y="512" type="line"/>
      <point x="449" y="661" type="line"/>
      <point x="114" y="661" type="line"/>
      <point x="83" y="331" type="line"/>
      <point x="107" y="325" type="line"/>
      <point x="133" y="336"/>
      <point x="173" y="348"/>
      <point x="230" y="348" type="curve" smooth="yes"/>
      <point x="323" y="348"/>
      <point x="383" y="299"/>
      <point x="383" y="195" type="curve" smooth="yes"/>
      <point x="383" y="76"/>
      <point x="322" y="34"/>
      <point x="239" y="34" type="curve" smooth="yes"/>
      <point x="158" y="34"/>
      <point x="118" y="88"/>
      <point x="118" y="150" type="curve"/>
      <point x="75" y="150"/>
      <point x="55" y="129"/>
      <point x="55" y="95" type="curve" smooth="yes"/>
      <point x="55" y="47"/>
      <point x="96" y="-12"/>
    </contour>
  </outline>
</glyph>
<glyph name="six.telu" format="2">
  <advance width="559"/>
  <unicode hex="0036"/>
  <outline>
    <contour>
      <point x="293" y="-12" type="curve" smooth="yes"/>
      <point x="429" y="-12"/>
      <point x="508" y="71"/>
      <point x="508" y="202" type="curve" smooth="yes"/>
      <point x="508" y="322"/>
      <point x="429" y="394"/>
      <point x="311" y="394" type="curve" smooth="yes"/>
      <point x="236" y="394"/>
      <point x="189" y="366"/>
      <point x="155" y="339" type="curve"/>
      <point x="155" y="283" type="line"/>
      <point x="181" y="311"/>
      <point x="230" y="344"/>
      <point x="287" y="344" type="curve" smooth="yes"/>
      <point x="364" y="344"/>
      <point x="406" y="298"/>
      <point x="406" y="193" type="curve" smooth="yes"/>
      <point x="406" y="83"/>
      <point x="366" y="34"/>
      <point x="295" y="34" type="curve" smooth="yes"/>
      <point x="212" y="34"/>
      <point x="160" y="115"/>
      <point x="160" y="316" type="curve" smooth="yes"/>
      <point x="160" y="323" type="line" smooth="yes"/>
      <point x="160" y="514"/>
      <point x="218" y="615"/>
      <point x="322" y="615" type="curve" smooth="yes"/>
      <point x="386" y="615"/>
      <point x="410" y="563"/>
      <point x="410" y="502" type="curve"/>
      <point x="460" y="502"/>
      <point x="487" y="523"/>
      <point x="487" y="558" type="curve" smooth="yes"/>
      <point x="487" y="612"/>
      <point x="433" y="661"/>
      <point x="322" y="661" type="curve" smooth="yes"/>
      <point x="145" y="661"/>
      <point x="61" y="501"/>
      <point x="61" y="311" type="curve" smooth="yes"/>
      <point x="61" y="79"/>
      <point x="160" y="-12"/>
    </contour>
  </outline>
</glyph>
<glyph name="seven.telu" format="2">
  <advance width="559"/>
  <unicode hex="0037"/>
  <outline>
    <contour>
      <point x="175" y="0" type="line"/>
      <point x="250" y="0" type="line"/>
      <point x="496" y="622" type="line"/>
      <point x="496" y="651" type="line"/>
      <point x="49" y="651" type="line"/>
      <point x="44" y="470" type="line"/>
      <point x="86" y="470" type="line"/>
      <point x="90" y="520" type="line"/>
      <point x="93" y="553"/>
      <point x="112" y="571"/>
      <point x="148" y="571" type="curve"/>
      <point x="422" y="571" type="line"/>
    </contour>
  </outline>
</glyph>
<glyph name="eight.telu" format="2">
  <advance width="559"/>
  <unicode hex="0038"/>
  <outline>
    <contour>
      <point x="273" y="-12" type="curve" smooth="yes"/>
      <point x="430" y="-12"/>
      <point x="513" y="56"/>
      <point x="513" y="163" type="curve" smooth="yes"/>
      <point x="513" y="252"/>
      <point x="454" y="307"/>
      <point x="350" y="349" type="curve"/>
      <point x="431" y="386"/>
      <point x="494" y="431"/>
      <point x="494" y="509" type="curve" smooth="yes"/>
      <point x="494" y="601"/>
      <point x="424" y="661"/>
      <point x="284" y="661" type="curve" smooth="yes"/>
      <point x="141" y="661"/>
      <point x="72" y="582"/>
      <point x="72" y="499" type="curve" smooth="yes"/>
      <point x="72" y="420"/>
      <point x="124" y="370"/>
      <point x="199" y="330" type="curve"/>
      <point x="112" y="291"/>
      <point x="46" y="238"/>
      <point x="46" y="146" type="curve" smooth="yes"/>
      <point x="46" y="60"/>
      <point x="110" y="-12"/>
    </contour>
    <contour>
      <point x="282" y="34" type="curve" smooth="yes"/>
      <point x="189" y="34"/>
      <point x="143" y="84"/>
      <point x="143" y="158" type="curve" smooth="yes"/>
      <point x="143" y="230"/>
      <point x="188" y="274"/>
      <point x="248" y="306" type="curve"/>
      <point x="377" y="261"/>
      <point x="422" y="213"/>
      <point x="422" y="150" type="curve" smooth="yes"/>
      <point x="422" y="75"/>
      <point x="374" y="34"/>
    </contour>
    <contour>
      <point x="300" y="372" type="curve"/>
      <point x="211" y="410"/>
      <point x="163" y="450"/>
      <point x="163" y="509" type="curve" smooth="yes"/>
      <point x="163" y="569"/>
      <point x="205" y="615"/>
      <point x="281" y="615" type="curve" smooth="yes"/>
      <point x="368" y="615"/>
      <point x="398" y="559"/>
      <point x="398" y="510" type="curve" smooth="yes"/>
      <point x="398" y="445"/>
      <point x="366" y="410"/>
    </contour>
  </outline>
</glyph>
<glyph name="nine.telu" format="2">
  <advance width="559"/>
  <unicode hex="0039"/>
  <outline>
    <contour>
      <point x="399" y="354" type="curve" smooth="yes"/>
      <point x="399" y="345" type="line" smooth="yes"/>
      <point x="399" y="140"/>
      <point x="344" y="36"/>
      <point x="228" y="36" type="curve" smooth="yes"/>
      <point x="165" y="36"/>
      <point x="130" y="73"/>
      <point x="113" y="120" type="curve"/>
      <point x="98" y="115"/>
      <point x="82" y="96"/>
      <point x="82" y="70" type="curve" smooth="yes"/>
      <point x="82" y="30"/>
      <point x="121" y="-12"/>
      <point x="229" y="-12" type="curve" smooth="yes"/>
      <point x="421" y="-12"/>
      <point x="498" y="152"/>
      <point x="498" y="338" type="curve" smooth="yes"/>
      <point x="498" y="572"/>
      <point x="400" y="661"/>
      <point x="265" y="661" type="curve" smooth="yes"/>
      <point x="131" y="661"/>
      <point x="51" y="571"/>
      <point x="51" y="445" type="curve" smooth="yes"/>
      <point x="51" y="316"/>
      <point x="132" y="250"/>
      <point x="248" y="250" type="curve" smooth="yes"/>
      <point x="335" y="250"/>
      <point x="380" y="288"/>
      <point x="408" y="326" type="curve"/>
      <point x="401" y="398" type="line"/>
      <point x="386" y="350"/>
      <point x="340" y="303"/>
      <point x="270" y="303" type="curve" smooth="yes"/>
      <point x="192" y="303"/>
      <point x="153" y="347"/>
      <point x="153" y="449" type="curve" smooth="yes"/>
      <point x="153" y="555"/>
      <point x="194" y="615"/>
      <point x="265" y="615" type="curve" smooth="yes"/>
      <point x="347" y="615"/>
      <point x="399" y="539"/>
    </contour>
  </outline>
</glyph>
<glyph name="colon.telu" format="2">
  <advance width="270"/>
  <unicode hex="003A"/>
  <outline>
    <contour>
      <point x="135" y="-8" type="curve" smooth="yes"/>
      <point x="169" y="-8"/>
      <point x="198" y="9"/>
      <point x="198" y="60" type="curve" smooth="yes"/>
      <point x="198" y="112"/>
      <point x="169" y="128"/>
      <point x="135" y="128" type="curve" smooth="yes"/>
      <point x="100" y="128"/>
      <point x="72" y="112"/>
      <point x="72" y="60" type="curve" smooth="yes"/>
      <point x="72" y="9"/>
      <point x="100" y="-8"/>
    </contour>
    <contour>
      <point x="135" y="313" type="curve" smooth="yes"/>
      <point x="169" y="313"/>
      <point x="198" y="330"/>
      <point x="198" y="381" type="curve" smooth="yes"/>
      <point x="198" y="433"/>
      <point x="169" y="449"/>
      <point x="135" y="449" type="curve" smooth="yes"/>
      <point x="100" y="449"/>
      <point x="72" y="433"/>
      <point x="72" y="381" type="curve" smooth="yes"/>
      <point x="72" y="330"/>
      <point x="100" y="313"/>
    </contour>
  </outline>
</glyph>
<glyph name="semicolon.telu" format="2">
  <advance width="275"/>
  <unicode hex="003B"/>
  <outline>
    <contour>
      <point x="45" y="-154" type="line"/>
      <point x="164" y="-119"/>
      <point x="209" y="-43"/>
      <point x="209" y="34" type="curve" smooth="yes"/>
      <point x="209" y="98"/>
      <point x="173" y="129"/>
      <point x="132" y="129" type="curve" smooth="yes"/>
      <point x="95" y="129"/>
      <point x="67" y="108"/>
      <point x="67" y="70" type="curve" smooth="yes"/>
      <point x="67" y="9"/>
      <point x="140" y="18"/>
      <point x="140" y="-22" type="curve" smooth="yes"/>
      <point x="140" y="-61"/>
      <point x="110" y="-91"/>
      <point x="45" y="-112" type="curve"/>
    </contour>
    <contour>
      <point x="137" y="313" type="curve" smooth="yes"/>
      <point x="171" y="313"/>
      <point x="200" y="330"/>
      <point x="200" y="381" type="curve" smooth="yes"/>
      <point x="200" y="433"/>
      <point x="171" y="449"/>
      <point x="137" y="449" type="curve" smooth="yes"/>
      <point x="102" y="449"/>
      <point x="74" y="433"/>
      <point x="74" y="381" type="curve" smooth="yes"/>
      <point x="74" y="330"/>
      <point x="102" y="313"/>
    </contour>
  </outline>
</glyph>
<glyph name="less.telu" format="2">
  <advance width="559"/>
  <unicode hex="003C"/>
  <outline>
    <contour>
      <point x="494" y="79" type="line"/>
      <point x="494" y="146" type="line"/>
      <point x="158" y="326" type="line"/>
      <point x="494" y="508" type="line"/>
      <point x="494" y="575" type="line"/>
      <point x="65" y="344" type="line"/>
      <point x="65" y="309" type="line"/>
    </contour>
  </outline>
</glyph>
<glyph name="equal.telu" format="2">
  <advance width="559"/>
  <unicode hex="003D"/>
  <outline>
    <contour>
      <point x="65" y="395" type="line"/>
      <point x="494" y="395" type="line"/>
      <point x="494" y="454" type="line"/>
      <point x="65" y="454" type="line"/>
    </contour>
    <contour>
      <point x="65" y="198" type="line"/>
      <point x="494" y="198" type="line"/>
      <point x="494" y="257" type="line"/>
      <point x="65" y="257" type="line"/>
    </contour>
  </outline>
</glyph>
<glyph name="greater.telu" format="2">
  <advance width="559"/>
  <unicode hex="003E"/>
  <outline>
    <contour>
      <point x="65" y="79" type="line"/>
      <point x="494" y="309" type="line"/>
      <point x="494" y="344" type="line"/>
      <point x="65" y="575" type="line"/>
      <point x="65" y="508" type="line"/>
      <point x="401" y="326" type="line"/>
      <point x="65" y="146" type="line"/>
    </contour>
  </outline>
</glyph>
<glyph name="question.telu" format="2">
  <advance width="504"/>
  <unicode hex="003F"/>
  <outline>
    <contour>
      <point x="267" y="201" type="line"/>
      <point x="275" y="285" type="line"/>
      <point x="399" y="332"/>
      <point x="469" y="395"/>
      <point x="469" y="496" type="curve" smooth="yes"/>
      <point x="469" y="601"/>
      <point x="376" y="662"/>
      <point x="252" y="662" type="curve" smooth="yes"/>
      <point x="124" y="662"/>
      <point x="63" y="614"/>
      <point x="63" y="550" type="curve" smooth="yes"/>
      <point x="63" y="507"/>
      <point x="98" y="485"/>
      <point x="146" y="485" type="curve"/>
      <point x="147" y="554"/>
      <point x="175" y="617"/>
      <point x="263" y="617" type="curve" smooth="yes"/>
      <point x="336" y="617"/>
      <point x="367" y="573"/>
      <point x="367" y="513" type="curve" smooth="yes"/>
      <point x="367" y="439"/>
      <point x="330" y="366"/>
      <point x="211" y="324" type="curve"/>
      <point x="222" y="201" type="line"/>
    </contour>
    <contour>
      <point x="243" y="-7" type="curve" smooth="yes"/>
      <point x="277" y="-7"/>
      <point x="306" y="10"/>
      <point x="306" y="61" type="curve" smooth="yes"/>
      <point x="306" y="113"/>
      <point x="277" y="129"/>
      <point x="243" y="129" type="curve" smooth="yes"/>
      <point x="208" y="129"/>
      <point x="180" y="113"/>
      <point x="180" y="61" type="curve" smooth="yes"/>
      <point x="180" y="10"/>
      <point x="208" y="-7"/>
    </contour>
  </outline>
</glyph>
<glyph name="bracketleft.telu" format="2">
  <advance width="330"/>
  <unicode hex="005B"/>
  <outline>
    <contour>
      <point x="80" y="-361" type="line"/>
      <point x="290" y="-361" type="line"/>
      <point x="290" y="-319" type="line"/>
      <point x="244" y="-319" type="line" smooth="yes"/>
      <point x="199" y="-319"/>
      <point x="162" y="-310"/>
      <point x="162" y="-247" type="curve" smooth="yes"/>
      <point x="162" y="659" type="line" smooth="yes"/>
      <point x="162" y="722"/>
      <point x="199" y="731"/>
      <point x="244" y="731" type="curve" smooth="yes"/>
      <point x="290" y="731" type="line"/>
      <point x="290" y="773" type="line"/>
      <point x="80" y="773" type="line"/>
    </contour>
  </outline>
</glyph>
<glyph name="backslash.telu" format="2">
  <advance width="368"/>
  <unicode hex="005C"/>
  <outline>
    <contour>
      <point x="338" y="-361" type="line"/>
      <point x="92" y="773" type="line"/>
      <point x="30" y="773" type="line"/>
      <point x="276" y="-361" type="line"/>
    </contour>
  </outline>
</glyph>
<glyph name="bracketright.telu" format="2">
  <advance width="330"/>
  <unicode hex="005D"/>
  <outline>
    <contour>
      <point x="250" y="773" type="line"/>
      <point x="40" y="773" type="line"/>
      <point x="40" y="731" type="line"/>
      <point x="86" y="731" type="line" smooth="yes"/>
      <point x="131" y="731"/>
      <point x="168" y="722"/>
      <point x="168" y="659" type="curve" smooth="yes"/>
      <point x="168" y="-247" type="line" smooth="yes"/>
      <point x="168" y="-310"/>
      <point x="131" y="-319"/>
      <point x="86" y="-319" type="curve" smooth="yes"/>
      <point x="40" y="-319" type="line"/>
      <point x="40" y="-361" type="line"/>
      <point x="250" y="-361" type="line"/>
    </contour>
  </outline>
</glyph>
<glyph name="asciicircum.telu" format="2">
  <advance width="559"/>
  <unicode hex="005E"/>
  <outline>
    <contour>
      <point x="51" y="204" type="line"/>
      <point x="118" y="204" type="line"/>
      <point x="278" y="560" type="line"/>
      <point x="440" y="204" type="line"/>
      <point x="507" y="204" type="line"/>
      <point x="296" y="652" type="line"/>
      <point x="261" y="652" type="line"/>
    </contour>
  </outline>
</glyph>
<glyph name="underscore.telu" format="2">
  <advance width="459"/>
  <unicode hex="005F"/>
  <outline>
    <contour>
      <point x="-5" y="-142" type="line"/>
      <point x="464" y="-142" type="line"/>
      <point x="464" y="-83" type="line"/>
      <point x="-5" y="-83" type="line"/>
    </contour>
  </outline>
</glyph>
<glyph name="braceleft.telu" format="2">
  <advance width="416"/>
  <unicode hex="007B"/>
  <outline>
    <contour>
      <point x="305" y="-361" type="curve" smooth="yes"/>
      <point x="376" y="-361" type="line"/>
      <point x="376" y="-318" type="line"/>
      <point x="328" y="-318" type="line" smooth="yes"/>
      <point x="269" y="-318"/>
      <point x="246" y="-281"/>
      <point x="246" y="-213" type="curve" smooth="yes"/>
      <point x="246" y="81" type="line" smooth="yes"/>
      <point x="246" y="147"/>
      <point x="211" y="192"/>
      <point x="135" y="205" type="curve"/>
      <point x="138" y="206" type="line"/>
      <point x="212" y="218"/>
      <point x="246" y="264"/>
      <point x="246" y="329" type="curve" smooth="yes"/>
      <point x="246" y="625" type="line" smooth="yes"/>
      <point x="246" y="694"/>
      <point x="269" y="730"/>
      <point x="328" y="730" type="curve" smooth="yes"/>
      <point x="376" y="730" type="line"/>
      <point x="376" y="773" type="line"/>
      <point x="305" y="773" type="line" smooth="yes"/>
      <point x="214" y="773"/>
      <point x="164" y="721"/>
      <point x="164" y="630" type="curve" smooth="yes"/>
      <point x="164" y="331" type="line" smooth="yes"/>
      <point x="164" y="250"/>
      <point x="112" y="228"/>
      <point x="46" y="226" type="curve"/>
      <point x="46" y="184" type="line"/>
      <point x="112" y="181"/>
      <point x="164" y="160"/>
      <point x="164" y="78" type="curve" smooth="yes"/>
      <point x="164" y="-217" type="line" smooth="yes"/>
      <point x="164" y="-305"/>
      <point x="214" y="-361"/>
    </contour>
  </outline>
</glyph>
<glyph name="bar.telu" format="2">
  <advance width="559"/>
  <unicode hex="007C"/>
  <outline>
    <contour>
      <point x="249" y="-361" type="line"/>
      <point x="309" y="-361" type="line"/>
      <point x="309" y="773" type="line"/>
      <point x="249" y="773" type="line"/>
    </contour>
  </outline>
</glyph>
<glyph name="braceright.telu" format="2">
  <advance width="416"/>
  <unicode hex="007D"/>
  <outline>
    <contour>
      <point x="111" y="773" type="curve" smooth="yes"/>
      <point x="40" y="773" type="line"/>
      <point x="40" y="730" type="line"/>
      <point x="88" y="730" type="line" smooth="yes"/>
      <point x="147" y="730"/>
      <point x="170" y="693"/>
      <point x="170" y="625" type="curve" smooth="yes"/>
      <point x="170" y="331" type="line" smooth="yes"/>
      <point x="170" y="265"/>
      <point x="205" y="220"/>
      <point x="281" y="207" type="curve"/>
      <point x="278" y="206" type="line"/>
      <point x="204" y="194"/>
      <point x="170" y="148"/>
      <point x="170" y="83" type="curve" smooth="yes"/>
      <point x="170" y="-213" type="line" smooth="yes"/>
      <point x="170" y="-282"/>
      <point x="147" y="-318"/>
      <point x="88" y="-318" type="curve" smooth="yes"/>
      <point x="40" y="-318" type="line"/>
      <point x="40" y="-361" type="line"/>
      <point x="111" y="-361" type="line" smooth="yes"/>
      <point x="202" y="-361"/>
      <point x="252" y="-309"/>
      <point x="252" y="-218" type="curve" smooth="yes"/>
      <point x="252" y="81" type="line" smooth="yes"/>
      <point x="252" y="162"/>
      <point x="304" y="184"/>
      <point x="370" y="186" type="curve"/>
      <point x="370" y="228" type="line"/>
      <point x="304" y="231"/>
      <point x="252" y="252"/>
      <point x="252" y="334" type="curve" smooth="yes"/>
      <point x="252" y="629" type="line" smooth="yes"/>
      <point x="252" y="717"/>
      <point x="202" y="773"/>
    </contour>
  </outline>
</glyph>
<glyph name="asciitilde.telu" format="2">
  <advance width="559"/>
  <unicode hex="007E"/>
  <outline>
    <contour>
      <point x="54" y="238" type="curve"/>
      <point x="113" y="238" type="line"/>
      <point x="120" y="316"/>
      <point x="137" y="354"/>
      <point x="176" y="354" type="curve" smooth="yes"/>
      <point x="207" y="354"/>
      <point x="231" y="331"/>
      <point x="262" y="301" type="curve" smooth="yes"/>
      <point x="301" y="263"/>
      <point x="339" y="238"/>
      <point x="385" y="238" type="curve" smooth="yes"/>
      <point x="476" y="238"/>
      <point x="496" y="344"/>
      <point x="504" y="413" type="curve"/>
      <point x="444" y="413" type="line"/>
      <point x="435" y="339"/>
      <point x="420" y="297"/>
      <point x="383" y="297" type="curve" smooth="yes"/>
      <point x="355" y="297"/>
      <point x="329" y="321"/>
      <point x="301" y="347" type="curve" smooth="yes"/>
      <point x="254" y="390"/>
      <point x="222" y="413"/>
      <point x="176" y="413" type="curve" smooth="yes"/>
      <point x="81" y="413"/>
      <point x="61" y="315"/>
    </contour>
  </outline>
</glyph>
<glyph name="multiply.telu" format="2">
  <advance width="559"/>
  <unicode hex="00D7"/>
  <outline>
    <contour>
      <point x="113" y="119" type="line"/>
      <point x="279" y="285" type="line"/>
      <point x="445" y="119" type="line"/>
      <point x="487" y="161" type="line"/>
      <point x="321" y="327" type="line"/>
      <point x="487" y="493" type="line"/>
      <point x="445" y="536" type="line"/>
      <point x="279" y="369" type="line"/>
      <point x="113" y="535" type="line"/>
      <point x="71" y="493" type="line"/>
      <point x="237" y="328" type="line"/>
      <point x="71" y="162" type="line"/>
    </contour>
  </outline>
</glyph>
<glyph name="divide.telu" format="2">
  <advance width="559"/>
  <unicode hex="00F7"/>
  <outline>
    <contour>
      <point x="65" y="297" type="line"/>
      <point x="494" y="297" type="line"/>
      <point x="494" y="356" type="line"/>
      <point x="65" y="356" type="line"/>
    </contour>
    <contour>
      <point x="280" y="82" type="curve" smooth="yes"/>
      <point x="308" y="82"/>
      <point x="331" y="96"/>
      <point x="331" y="137" type="curve" smooth="yes"/>
      <point x="331" y="179"/>
      <point x="308" y="192"/>
      <point x="280" y="192" type="curve" smooth="yes"/>
      <point x="251" y="192"/>
      <point x="229" y="179"/>
      <point x="229" y="137" type="curve" smooth="yes"/>
      <point x="229" y="96"/>
      <point x="251" y="82"/>
    </contour>
    <contour>
      <point x="280" y="461" type="curve" smooth="yes"/>
      <point x="308" y="461"/>
      <point x="331" y="475"/>
      <point x="331" y="516" type="curve" smooth="yes"/>
      <point x="331" y="558"/>
      <point x="308" y="571"/>
      <point x="280" y="571" type="curve" smooth="yes"/>
      <point x="251" y="571"/>
      <point x="229" y="558"/>
      <point x="229" y="516" type="curve" smooth="yes"/>
      <point x="229" y="475"/>
      <point x="251" y="461"/>
    </contour>
  </outline>
</glyph>
<glyph name="uni0951" format="2">
  <unicode hex="0951"/>
  <outline>
    <contour>
      <point x="-315" y="601" type="line"/>
      <point x="-255" y="601" type="line"/>
      <point x="-255" y="812" type="line"/>
      <point x="-315" y="812" type="line"/>
    </contour>
  </outline>
</glyph>
<glyph name="uni0952" format="2">
  <unicode hex="0952"/>
  <outline>
    <contour>
      <point x="-72" y="-174" type="line"/>
      <point x="-72" y="-119" type="line"/>
      <point x="-498" y="-119" type="line"/>
      <point x="-498" y="-174" type="line"/>
    </contour>
  </outline>
</glyph>
<glyph name="dandatelu" format="2">
  <advance width="367"/>
  <unicode hex="0964"/>
  <outline>
    <contour>
      <point x="194" y="-139" type="line"/>
      <point x="263" y="-139" type="line"/>
      <point x="263" y="651" type="line"/>
      <point x="194" y="651" type="line"/>
    </contour>
  </outline>
</glyph>
<glyph name="dbldandatelu" format="2">
  <advance width="560"/>
  <unicode hex="0965"/>
  <outline>
    <contour>
      <point x="194" y="-139" type="line"/>
      <point x="263" y="-139" type="line"/>
      <point x="263" y="651" type="line"/>
      <point x="194" y="651" type="line"/>
    </contour>
    <contour>
      <point x="387" y="-139" type="line"/>
      <point x="456" y="-139" type="line"/>
      <point x="456" y="651" type="line"/>
      <point x="387" y="651" type="line"/>
    </contour>
  </outline>
</glyph>
<glyph name="uni0C00" format="2">
  <unicode hex="0C00"/>
  <outline>
    <contour>
      <point x="-286" y="598" type="curve" smooth="yes"/>
      <point x="-182" y="598"/>
      <point x="-124" y="654"/>
      <point x="-124" y="753" type="curve" smooth="yes"/>
      <point x="-124" y="772"/>
      <point x="-127" y="792"/>
      <point x="-132" y="808" type="curve"/>
      <point x="-174" y="799" type="line"/>
      <point x="-171" y="787"/>
      <point x="-170" y="778"/>
      <point x="-170" y="769" type="curve" smooth="yes"/>
      <point x="-170" y="691"/>
      <point x="-224" y="669"/>
      <point x="-286" y="669" type="curve" smooth="yes"/>
      <point x="-349" y="669"/>
      <point x="-403" y="691"/>
      <point x="-403" y="769" type="curve" smooth="yes"/>
      <point x="-403" y="777"/>
      <point x="-402" y="787"/>
      <point x="-399" y="799" type="curve"/>
      <point x="-441" y="808" type="line"/>
      <point x="-446" y="792"/>
      <point x="-449" y="772"/>
      <point x="-449" y="753" type="curve" smooth="yes"/>
      <point x="-449" y="654"/>
      <point x="-391" y="598"/>
    </contour>
    <contour>
      <point x="-287" y="705" type="curve" smooth="yes"/>
      <point x="-258" y="705"/>
      <point x="-236" y="725"/>
      <point x="-236" y="756" type="curve" smooth="yes"/>
      <point x="-236" y="784"/>
      <point x="-257" y="806"/>
      <point x="-286" y="806" type="curve" smooth="yes"/>
      <point x="-315" y="806"/>
      <point x="-337" y="784"/>
      <point x="-337" y="756" type="curve" smooth="yes"/>
      <point x="-337" y="725"/>
      <point x="-316" y="705"/>
    </contour>
  </outline>
</glyph>
<glyph name="candrabindutelu" format="2">
  <advance width="287"/>
  <unicode hex="0C01"/>
  <outline>
    <contour>
      <point x="33" y="207" type="curve" smooth="yes"/>
      <point x="33" y="67"/>
      <point x="125" y="-12"/>
      <point x="248" y="-12" type="curve" smooth="yes"/>
      <point x="265" y="-12" type="line"/>
      <point x="265" y="94" type="line"/>
      <point x="175" y="94"/>
      <point x="94" y="122"/>
      <point x="94" y="234" type="curve" smooth="yes"/>
      <point x="94" y="341"/>
      <point x="177" y="383"/>
      <point x="262" y="383" type="curve"/>
      <point x="268" y="428" type="line"/>
      <point x="260" y="428" type="line" smooth="yes"/>
      <point x="121" y="428"/>
      <point x="33" y="341"/>
    </contour>
  </outline>
</glyph>
<glyph name="anusvaratelu" format="2">
  <advance width="490"/>
  <unicode hex="0C02"/>
  <outline>
    <contour>
      <point x="33" y="207" type="curve" smooth="yes"/>
      <point x="33" y="78"/>
      <point x="112" y="-13"/>
      <point x="245" y="-13" type="curve" smooth="yes"/>
      <point x="376" y="-13"/>
      <point x="457" y="76"/>
      <point x="457" y="207" type="curve" smooth="yes"/>
      <point x="457" y="331"/>
      <point x="379" y="428"/>
      <point x="246" y="428" type="curve" smooth="yes"/>
      <point x="111" y="428"/>
      <point x="33" y="329"/>
    </contour>
    <contour>
      <point x="94" y="233" type="curve" smooth="yes"/>
      <point x="94" y="323"/>
      <point x="153" y="383"/>
      <point x="246" y="383" type="curve" smooth="yes"/>
      <point x="340" y="383"/>
      <point x="396" y="322"/>
      <point x="396" y="233" type="curve" smooth="yes"/>
      <point x="396" y="149"/>
      <point x="343" y="92"/>
      <point x="245" y="92" type="curve" smooth="yes"/>
      <point x="147" y="92"/>
      <point x="94" y="150"/>
    </contour>
  </outline>
</glyph>
<glyph name="visargatelu" format="2">
  <advance width="284"/>
  <unicode hex="0C03"/>
  <outline>
    <contour>
      <point x="142" y="270" type="curve" smooth="yes"/>
      <point x="213" y="270"/>
      <point x="256" y="316"/>
      <point x="256" y="385" type="curve" smooth="yes"/>
      <point x="256" y="449"/>
      <point x="215" y="500"/>
      <point x="142" y="500" type="curve" smooth="yes"/>
      <point x="69" y="500"/>
      <point x="28" y="449"/>
      <point x="28" y="385" type="curve" smooth="yes"/>
      <point x="28" y="317"/>
      <point x="71" y="270"/>
    </contour>
    <contour>
      <point x="142" y="341" type="curve" smooth="yes"/>
      <point x="101" y="341"/>
      <point x="78" y="365"/>
      <point x="78" y="398" type="curve" smooth="yes"/>
      <point x="78" y="436"/>
      <point x="103" y="460"/>
      <point x="142" y="460" type="curve" smooth="yes"/>
      <point x="183" y="460"/>
      <point x="206" y="435"/>
      <point x="206" y="398" type="curve" smooth="yes"/>
      <point x="206" y="365"/>
      <point x="185" y="341"/>
    </contour>
    <contour>
      <point x="142" y="-12" type="curve" smooth="yes"/>
      <point x="213" y="-12"/>
      <point x="256" y="34"/>
      <point x="256" y="103" type="curve" smooth="yes"/>
      <point x="256" y="167"/>
      <point x="215" y="218"/>
      <point x="142" y="218" type="curve" smooth="yes"/>
      <point x="69" y="218"/>
      <point x="28" y="167"/>
      <point x="28" y="103" type="curve" smooth="yes"/>
      <point x="28" y="35"/>
      <point x="71" y="-12"/>
    </contour>
    <contour>
      <point x="142" y="59" type="curve" smooth="yes"/>
      <point x="101" y="59"/>
      <point x="78" y="83"/>
      <point x="78" y="116" type="curve" smooth="yes"/>
      <point x="78" y="154"/>
      <point x="103" y="178"/>
      <point x="142" y="178" type="curve" smooth="yes"/>
      <point x="183" y="178"/>
      <point x="206" y="153"/>
      <point x="206" y="116" type="curve" smooth="yes"/>
      <point x="206" y="83"/>
      <point x="185" y="59"/>
    </contour>
  </outline>
</glyph>
<glyph name="uni0C04" format="2">
  <unicode hex="0C04"/>
  <outline>
    <contour>
      <point x="-406" y="713" type="curve" smooth="yes"/>
      <point x="-406" y="644"/>
      <point x="-364" y="595"/>
      <point x="-286" y="595" type="curve" smooth="yes"/>
      <point x="-208" y="595"/>
      <point x="-166" y="644"/>
      <point x="-166" y="713" type="curve" smooth="yes"/>
      <point x="-166" y="780"/>
      <point x="-214" y="830"/>
      <point x="-286" y="830" type="curve" smooth="yes"/>
      <point x="-358" y="830"/>
      <point x="-406" y="780"/>
    </contour>
    <contour>
      <point x="-357" y="726" type="curve" smooth="yes"/>
      <point x="-357" y="762"/>
      <point x="-331" y="789"/>
      <point x="-286" y="789" type="curve" smooth="yes"/>
      <point x="-238" y="789"/>
      <point x="-213" y="762"/>
      <point x="-213" y="726" type="curve" smooth="yes"/>
      <point x="-213" y="687"/>
      <point x="-237" y="660"/>
      <point x="-286" y="660" type="curve" smooth="yes"/>
      <point x="-335" y="660"/>
      <point x="-357" y="687"/>
    </contour>
  </outline>
</glyph>
<glyph name="atelu" format="2">
  <advance width="762"/>
  <unicode hex="0C05"/>
  <outline>
    <contour>
      <point x="374" y="-12" type="curve" smooth="yes"/>
      <point x="640" y="-12"/>
      <point x="727" y="94"/>
      <point x="727" y="269" type="curve" smooth="yes"/>
      <point x="727" y="382"/>
      <point x="673" y="500"/>
      <point x="556" y="500" type="curve" smooth="yes"/>
      <point x="476" y="500"/>
      <point x="434" y="450"/>
      <point x="434" y="385" type="curve" smooth="yes"/>
      <point x="434" y="323"/>
      <point x="481" y="271"/>
      <point x="543" y="247" type="curve"/>
      <point x="559" y="261" type="line"/>
      <point x="289" y="261" type="line"/>
      <point x="289" y="210" type="line"/>
      <point x="577" y="210" type="line"/>
      <point x="589" y="253" type="line"/>
      <point x="533" y="284"/>
      <point x="500" y="319"/>
      <point x="500" y="365" type="curve" smooth="yes"/>
      <point x="500" y="406"/>
      <point x="526" y="428"/>
      <point x="567" y="428" type="curve" smooth="yes"/>
      <point x="630" y="428"/>
      <point x="680" y="375"/>
      <point x="680" y="281" type="curve" smooth="yes"/>
      <point x="680" y="160"/>
      <point x="603" y="99"/>
      <point x="374" y="99" type="curve" smooth="yes"/>
      <point x="174" y="99"/>
      <point x="81" y="163"/>
      <point x="81" y="277" type="curve" smooth="yes"/>
      <point x="81" y="340"/>
      <point x="103" y="381"/>
      <point x="136" y="410" type="curve"/>
      <point x="129" y="415" type="line"/>
      <point x="123" y="402"/>
      <point x="121" y="389"/>
      <point x="121" y="379" type="curve" smooth="yes"/>
      <point x="121" y="302"/>
      <point x="170" y="261"/>
      <point x="238" y="261" type="curve" smooth="yes"/>
      <point x="313" y="261"/>
      <point x="358" y="311"/>
      <point x="358" y="381" type="curve" smooth="yes"/>
      <point x="358" y="446"/>
      <point x="316" y="500"/>
      <point x="231" y="500" type="curve" smooth="yes"/>
      <point x="117" y="500"/>
      <point x="35" y="406"/>
      <point x="35" y="267" type="curve" smooth="yes"/>
      <point x="35" y="79"/>
      <point x="156" y="-12"/>
    </contour>
    <contour>
      <point x="299" y="371" type="curve" smooth="yes"/>
      <point x="299" y="328"/>
      <point x="272" y="304"/>
      <point x="238" y="304" type="curve" smooth="yes"/>
      <point x="204" y="304"/>
      <point x="173" y="322"/>
      <point x="173" y="371" type="curve" smooth="yes"/>
      <point x="173" y="415"/>
      <point x="202" y="438"/>
      <point x="234" y="438" type="curve" smooth="yes"/>
      <point x="272" y="438"/>
      <point x="299" y="412"/>
    </contour>
  </outline>
</glyph>
<glyph name="aatelu" format="2">
  <advance width="739"/>
  <unicode hex="0C06"/>
  <outline>
    <contour>
      <point x="391" y="-12" type="curve" smooth="yes"/>
      <point x="609" y="-12"/>
      <point x="686" y="66"/>
      <point x="686" y="165" type="curve" smooth="yes"/>
      <point x="686" y="204"/>
      <point x="672" y="244"/>
      <point x="627" y="265" type="curve"/>
      <point x="540" y="302"/>
      <point x="495" y="330"/>
      <point x="495" y="373" type="curve" smooth="yes"/>
      <point x="495" y="413"/>
      <point x="526" y="438"/>
      <point x="574" y="438" type="curve" smooth="yes"/>
      <point x="641" y="438"/>
      <point x="658" y="395"/>
      <point x="658" y="361" type="curve" smooth="yes"/>
      <point x="658" y="296"/>
      <point x="601" y="261"/>
      <point x="502" y="261" type="curve" smooth="yes"/>
      <point x="289" y="261" type="line"/>
      <point x="289" y="210" type="line"/>
      <point x="489" y="210" type="line" smooth="yes"/>
      <point x="623" y="210"/>
      <point x="710" y="277"/>
      <point x="710" y="375" type="curve" smooth="yes"/>
      <point x="710" y="441"/>
      <point x="668" y="500"/>
      <point x="574" y="500" type="curve" smooth="yes"/>
      <point x="499" y="500"/>
      <point x="442" y="459"/>
      <point x="442" y="387" type="curve" smooth="yes"/>
      <point x="442" y="325"/>
      <point x="489" y="281"/>
      <point x="578" y="246" type="curve"/>
      <point x="615" y="232"/>
      <point x="626" y="211"/>
      <point x="626" y="194" type="curve" smooth="yes"/>
      <point x="626" y="144"/>
      <point x="578" y="99"/>
      <point x="391" y="99" type="curve" smooth="yes"/>
      <point x="174" y="99"/>
      <point x="81" y="163"/>
      <point x="81" y="277" type="curve" smooth="yes"/>
      <point x="81" y="340"/>
      <point x="103" y="381"/>
      <point x="136" y="410" type="curve"/>
      <point x="129" y="415" type="line"/>
      <point x="123" y="402"/>
      <point x="121" y="389"/>
      <point x="121" y="379" type="curve" smooth="yes"/>
      <point x="121" y="302"/>
      <point x="170" y="261"/>
      <point x="238" y="261" type="curve" smooth="yes"/>
      <point x="313" y="261"/>
      <point x="358" y="311"/>
      <point x="358" y="381" type="curve" smooth="yes"/>
      <point x="358" y="446"/>
      <point x="316" y="500"/>
      <point x="231" y="500" type="curve" smooth="yes"/>
      <point x="117" y="500"/>
      <point x="35" y="406"/>
      <point x="35" y="267" type="curve" smooth="yes"/>
      <point x="35" y="79"/>
      <point x="156" y="-12"/>
    </contour>
    <contour>
      <point x="299" y="371" type="curve" smooth="yes"/>
      <point x="299" y="328"/>
      <point x="272" y="304"/>
      <point x="238" y="304" type="curve" smooth="yes"/>
      <point x="204" y="304"/>
      <point x="173" y="322"/>
      <point x="173" y="371" type="curve" smooth="yes"/>
      <point x="173" y="415"/>
      <point x="202" y="438"/>
      <point x="234" y="438" type="curve" smooth="yes"/>
      <point x="272" y="438"/>
      <point x="299" y="412"/>
    </contour>
  </outline>
</glyph>
<glyph name="itelu" format="2">
  <advance width="629"/>
  <unicode hex="0C07"/>
  <outline>
    <contour>
      <point x="287" y="-12" type="curve" smooth="yes"/>
      <point x="392" y="-12"/>
      <point x="464" y="23"/>
      <point x="512" y="77" type="curve"/>
      <point x="530" y="90" type="line"/>
      <point x="574" y="145"/>
      <point x="592" y="216"/>
      <point x="592" y="290" type="curve" smooth="yes"/>
      <point x="592" y="431"/>
      <point x="540" y="500"/>
      <point x="441" y="500" type="curve" smooth="yes"/>
      <point x="375" y="500"/>
      <point x="323" y="463"/>
      <point x="288" y="379" type="curve"/>
      <point x="312" y="390" type="line"/>
      <point x="289" y="450"/>
      <point x="236" y="500"/>
      <point x="159" y="500" type="curve" smooth="yes"/>
      <point x="79" y="500"/>
      <point x="28" y="450"/>
      <point x="28" y="374" type="curve" smooth="yes"/>
      <point x="28" y="346"/>
      <point x="36" y="315"/>
      <point x="51" y="284" type="curve"/>
      <point x="95" y="300" type="line"/>
      <point x="86" y="315"/>
      <point x="79" y="332"/>
      <point x="79" y="351" type="curve" smooth="yes"/>
      <point x="79" y="391"/>
      <point x="111" y="416"/>
      <point x="167" y="416" type="curve" smooth="yes"/>
      <point x="234" y="416"/>
      <point x="274" y="370"/>
      <point x="281" y="332" type="curve"/>
      <point x="317" y="332" type="line"/>
      <point x="335" y="379"/>
      <point x="375" y="416"/>
      <point x="439" y="416" type="curve" smooth="yes"/>
      <point x="505" y="416"/>
      <point x="547" y="375"/>
      <point x="547" y="293" type="curve" smooth="yes"/>
      <point x="547" y="172"/>
      <point x="464" y="98"/>
      <point x="304" y="98" type="curve" smooth="yes"/>
      <point x="176" y="98"/>
      <point x="147" y="128"/>
      <point x="147" y="172" type="curve" smooth="yes"/>
      <point x="147" y="216"/>
      <point x="189" y="236"/>
      <point x="256" y="236" type="curve" smooth="yes"/>
      <point x="382" y="236"/>
      <point x="503" y="153"/>
      <point x="503" y="5" type="curve" smooth="yes"/>
      <point x="503" y="-8"/>
      <point x="502" y="-25"/>
      <point x="499" y="-39" type="curve"/>
      <point x="563" y="-46" type="line"/>
      <point x="565" y="-36"/>
      <point x="566" y="-12"/>
      <point x="566" y="-2" type="curve" smooth="yes"/>
      <point x="566" y="164"/>
      <point x="431" y="279"/>
      <point x="260" y="279" type="curve" smooth="yes"/>
      <point x="133" y="279"/>
      <point x="81" y="223"/>
      <point x="81" y="145" type="curve" smooth="yes"/>
      <point x="81" y="51"/>
      <point x="145" y="-12"/>
    </contour>
  </outline>
</glyph>
<glyph name="iitelu" format="2">
  <advance width="912"/>
  <unicode hex="0C08"/>
  <outline>
    <contour>
      <point x="65" y="243" type="curve" smooth="yes"/>
      <point x="65" y="92"/>
      <point x="157" y="-12"/>
      <point x="311" y="-12" type="curve" smooth="yes"/>
      <point x="464" y="-12"/>
      <point x="559" y="91"/>
      <point x="559" y="243" type="curve" smooth="yes"/>
      <point x="559" y="387"/>
      <point x="469" y="500"/>
      <point x="314" y="500" type="curve" smooth="yes"/>
      <point x="157" y="500"/>
      <point x="65" y="385"/>
    </contour>
    <contour>
      <point x="129" y="274" type="curve" smooth="yes"/>
      <point x="129" y="382"/>
      <point x="200" y="455"/>
      <point x="314" y="455" type="curve" smooth="yes"/>
      <point x="430" y="455"/>
      <point x="495" y="381"/>
      <point x="495" y="274" type="curve" smooth="yes"/>
      <point x="495" y="170"/>
      <point x="434" y="100"/>
      <point x="311" y="100" type="curve" smooth="yes"/>
      <point x="189" y="100"/>
      <point x="129" y="172"/>
    </contour>
    <contour>
      <point x="715" y="305" type="curve" smooth="yes"/>
      <point x="19" y="305" type="line"/>
      <point x="19" y="260" type="line"/>
      <point x="686" y="260" type="line"/>
      <point x="678" y="269" type="line"/>
      <point x="652" y="251"/>
      <point x="626" y="217"/>
      <point x="626" y="166" type="curve" smooth="yes"/>
      <point x="626" y="82"/>
      <point x="677" y="38"/>
      <point x="758" y="38" type="curve" smooth="yes"/>
      <point x="837" y="38"/>
      <point x="888" y="86"/>
      <point x="888" y="168" type="curve" smooth="yes"/>
      <point x="888" y="266"/>
      <point x="823" y="305"/>
    </contour>
    <contour>
      <point x="829" y="191" type="curve" smooth="yes"/>
      <point x="829" y="148"/>
      <point x="801" y="124"/>
      <point x="759" y="124" type="curve" smooth="yes"/>
      <point x="715" y="124"/>
      <point x="685" y="143"/>
      <point x="685" y="190" type="curve" smooth="yes"/>
      <point x="685" y="236"/>
      <point x="711" y="261"/>
      <point x="755" y="261" type="curve" smooth="yes"/>
      <point x="805" y="261"/>
      <point x="829" y="235"/>
    </contour>
    <contour>
      <point x="762" y="485" type="curve" smooth="yes"/>
      <point x="692" y="485"/>
      <point x="648" y="438"/>
      <point x="622" y="384" type="curve"/>
      <point x="663" y="365" type="line"/>
      <point x="687" y="401"/>
      <point x="714" y="426"/>
      <point x="753" y="426" type="curve" smooth="yes"/>
      <point x="789" y="426"/>
      <point x="809" y="405"/>
      <point x="809" y="376" type="curve" smooth="yes"/>
      <point x="809" y="347"/>
      <point x="787" y="316"/>
      <point x="729" y="301" type="curve"/>
      <point x="787" y="282" type="line"/>
      <point x="842" y="305"/>
      <point x="868" y="344"/>
      <point x="868" y="389" type="curve" smooth="yes"/>
      <point x="868" y="454"/>
      <point x="817" y="485"/>
    </contour>
    <component base="hattelu" xOffset="187"/>
  </outline>
</glyph>
<glyph name="utelu" format="2">
  <advance width="798"/>
  <unicode hex="0C09"/>
  <outline>
    <contour>
      <point x="546" y="311" type="curve" smooth="yes"/>
      <point x="468" y="311"/>
      <point x="424" y="265"/>
      <point x="424" y="212" type="curve" smooth="yes"/>
      <point x="424" y="142"/>
      <point x="469" y="109"/>
      <point x="537" y="109" type="curve" smooth="yes"/>
      <point x="595" y="109"/>
      <point x="632" y="141"/>
      <point x="641" y="194" type="curve"/>
      <point x="639" y="190" type="line"/>
      <point x="636" y="124"/>
      <point x="611" y="76"/>
      <point x="524" y="76" type="curve" smooth="yes"/>
      <point x="421" y="76"/>
      <point x="385" y="135"/>
      <point x="365" y="204" type="curve"/>
      <point x="334" y="204" type="line"/>
      <point x="314" y="130"/>
      <point x="275" y="98"/>
      <point x="220" y="98" type="curve" smooth="yes"/>
      <point x="164" y="98"/>
      <point x="119" y="127"/>
      <point x="119" y="217" type="curve" smooth="yes"/>
      <point x="119" y="370"/>
      <point x="214" y="455"/>
      <point x="370" y="455" type="curve" smooth="yes"/>
      <point x="457" y="455"/>
      <point x="528" y="423"/>
      <point x="592" y="374" type="curve"/>
      <point x="632" y="423" type="line"/>
      <point x="555" y="474"/>
      <point x="475" y="500"/>
      <point x="371" y="500" type="curve"/>
      <point x="180" y="500"/>
      <point x="56" y="379"/>
      <point x="56" y="198" type="curve" smooth="yes"/>
      <point x="56" y="66"/>
      <point x="111" y="-12"/>
      <point x="207" y="-12" type="curve" smooth="yes"/>
      <point x="267" y="-12"/>
      <point x="326" y="18"/>
      <point x="368" y="146" type="curve"/>
      <point x="333" y="145" type="line"/>
      <point x="368" y="18"/>
      <point x="441" y="-12"/>
      <point x="520" y="-12" type="curve" smooth="yes"/>
      <point x="627" y="-12"/>
      <point x="680" y="70"/>
      <point x="680" y="159" type="curve" smooth="yes"/>
      <point x="680" y="258"/>
      <point x="620" y="311"/>
    </contour>
    <contour>
      <point x="545" y="152" type="curve" smooth="yes"/>
      <point x="504" y="152"/>
      <point x="483" y="173"/>
      <point x="483" y="213" type="curve" smooth="yes"/>
      <point x="483" y="253"/>
      <point x="507" y="277"/>
      <point x="545" y="277" type="curve" smooth="yes"/>
      <point x="583" y="277"/>
      <point x="607" y="255"/>
      <point x="607" y="215" type="curve" smooth="yes"/>
      <point x="607" y="175"/>
      <point x="583" y="152"/>
    </contour>
    <contour>
      <point x="434" y="641" type="line"/>
      <point x="329" y="641" type="line"/>
      <point x="359" y="485" type="line"/>
      <point x="404" y="485" type="line"/>
    </contour>
    <contour>
      <point x="19" y="317" type="line"/>
      <point x="19" y="272" type="line"/>
      <point x="480" y="272" type="line"/>
      <point x="542" y="279" type="line"/>
      <point x="615" y="272" type="line"/>
      <point x="780" y="272" type="line"/>
      <point x="780" y="317" type="line"/>
    </contour>
  </outline>
</glyph>
<glyph name="uutelu" format="2">
  <advance width="1027"/>
  <unicode hex="0C0A"/>
  <outline>
    <contour>
      <point x="546" y="311" type="curve" smooth="yes"/>
      <point x="468" y="311"/>
      <point x="424" y="265"/>
      <point x="424" y="212" type="curve" smooth="yes"/>
      <point x="424" y="142"/>
      <point x="469" y="109"/>
      <point x="537" y="109" type="curve" smooth="yes"/>
      <point x="595" y="109"/>
      <point x="632" y="141"/>
      <point x="641" y="194" type="curve"/>
      <point x="639" y="190" type="line"/>
      <point x="636" y="124"/>
      <point x="611" y="76"/>
      <point x="524" y="76" type="curve" smooth="yes"/>
      <point x="421" y="76"/>
      <point x="385" y="135"/>
      <point x="365" y="204" type="curve"/>
      <point x="334" y="204" type="line"/>
      <point x="314" y="130"/>
      <point x="275" y="98"/>
      <point x="220" y="98" type="curve" smooth="yes"/>
      <point x="164" y="98"/>
      <point x="119" y="127"/>
      <point x="119" y="217" type="curve" smooth="yes"/>
      <point x="119" y="370"/>
      <point x="214" y="455"/>
      <point x="370" y="455" type="curve" smooth="yes"/>
      <point x="457" y="455"/>
      <point x="528" y="423"/>
      <point x="592" y="374" type="curve"/>
      <point x="632" y="423" type="line"/>
      <point x="555" y="474"/>
      <point x="475" y="500"/>
      <point x="371" y="500" type="curve"/>
      <point x="180" y="500"/>
      <point x="56" y="379"/>
      <point x="56" y="198" type="curve" smooth="yes"/>
      <point x="56" y="66"/>
      <point x="111" y="-12"/>
      <point x="207" y="-12" type="curve" smooth="yes"/>
      <point x="267" y="-12"/>
      <point x="326" y="18"/>
      <point x="368" y="146" type="curve"/>
      <point x="333" y="145" type="line"/>
      <point x="368" y="18"/>
      <point x="441" y="-12"/>
      <point x="520" y="-12" type="curve" smooth="yes"/>
      <point x="627" y="-12"/>
      <point x="680" y="70"/>
      <point x="680" y="159" type="curve" smooth="yes"/>
      <point x="680" y="258"/>
      <point x="620" y="311"/>
    </contour>
    <contour>
      <point x="545" y="152" type="curve" smooth="yes"/>
      <point x="504" y="152"/>
      <point x="483" y="173"/>
      <point x="483" y="213" type="curve" smooth="yes"/>
      <point x="483" y="253"/>
      <point x="507" y="277"/>
      <point x="545" y="277" type="curve" smooth="yes"/>
      <point x="583" y="277"/>
      <point x="607" y="255"/>
      <point x="607" y="215" type="curve" smooth="yes"/>
      <point x="607" y="175"/>
      <point x="583" y="152"/>
    </contour>
    <contour>
      <point x="352" y="641" type="line"/>
      <point x="261" y="641" type="line"/>
      <point x="284" y="485" type="line"/>
      <point x="329" y="485" type="line"/>
    </contour>
    <contour>
      <point x="502" y="641" type="line"/>
      <point x="411" y="641" type="line"/>
      <point x="434" y="485" type="line"/>
      <point x="479" y="485" type="line"/>
    </contour>
    <contour>
      <point x="843" y="317" type="curve" smooth="yes"/>
      <point x="19" y="317" type="line"/>
      <point x="19" y="272" type="line"/>
      <point x="475" y="272" type="line"/>
      <point x="546" y="282" type="line"/>
      <point x="596" y="272" type="line"/>
      <point x="807" y="272" type="line"/>
      <point x="797" y="281" type="line"/>
      <point x="771" y="263"/>
      <point x="747" y="229"/>
      <point x="747" y="178" type="curve" smooth="yes"/>
      <point x="747" y="94"/>
      <point x="798" y="50"/>
      <point x="879" y="50" type="curve" smooth="yes"/>
      <point x="958" y="50"/>
      <point x="1009" y="98"/>
      <point x="1009" y="180" type="curve" smooth="yes"/>
      <point x="1009" y="278"/>
      <point x="944" y="317"/>
    </contour>
    <contour>
      <point x="950" y="203" type="curve" smooth="yes"/>
      <point x="950" y="160"/>
      <point x="922" y="136"/>
      <point x="880" y="136" type="curve" smooth="yes"/>
      <point x="836" y="136"/>
      <point x="806" y="155"/>
      <point x="806" y="202" type="curve" smooth="yes"/>
      <point x="806" y="248"/>
      <point x="832" y="273"/>
      <point x="876" y="273" type="curve" smooth="yes"/>
      <point x="926" y="273"/>
      <point x="950" y="247"/>
    </contour>
    <contour>
      <point x="883" y="497" type="curve" smooth="yes"/>
      <point x="813" y="497"/>
      <point x="769" y="450"/>
      <point x="743" y="396" type="curve"/>
      <point x="784" y="377" type="line"/>
      <point x="808" y="413"/>
      <point x="836" y="438"/>
      <point x="874" y="438" type="curve" smooth="yes"/>
      <point x="910" y="438"/>
      <point x="930" y="417"/>
      <point x="930" y="388" type="curve" smooth="yes"/>
      <point x="930" y="359"/>
      <point x="908" y="328"/>
      <point x="850" y="313" type="curve"/>
      <point x="908" y="294" type="line"/>
      <point x="963" y="317"/>
      <point x="989" y="356"/>
      <point x="989" y="401" type="curve" smooth="yes"/>
      <point x="989" y="466"/>
      <point x="938" y="497"/>
    </contour>
  </outline>
</glyph>
<glyph name="lvocalictelu" format="2">
  <advance width="792"/>
  <unicode hex="0C0C"/>
  <outline>
    <contour>
      <point x="493" y="-102" type="curve" smooth="yes"/>
      <point x="662" y="-102"/>
      <point x="754" y="70"/>
      <point x="754" y="210" type="curve" smooth="yes"/>
      <point x="754" y="361"/>
      <point x="688" y="452"/>
      <point x="611" y="500" type="curve"/>
      <point x="568" y="446" type="line"/>
      <point x="649" y="403"/>
      <point x="708" y="338"/>
      <point x="708" y="220" type="curve" smooth="yes"/>
      <point x="708" y="107"/>
      <point x="645" y="9"/>
      <point x="508" y="9" type="curve" smooth="yes"/>
      <point x="441" y="9"/>
      <point x="405" y="38"/>
      <point x="405" y="92" type="curve" smooth="yes"/>
      <point x="405" y="130"/>
      <point x="420" y="164"/>
      <point x="463" y="224" type="curve" smooth="yes"/>
      <point x="510" y="289"/>
      <point x="536" y="332"/>
      <point x="536" y="392" type="curve" smooth="yes"/>
      <point x="536" y="455"/>
      <point x="491" y="501"/>
      <point x="415" y="501" type="curve" smooth="yes"/>
      <point x="326" y="501"/>
      <point x="273" y="427"/>
      <point x="254" y="353" type="curve"/>
      <point x="292" y="342" type="line"/>
      <point x="277" y="459"/>
      <point x="216" y="501"/>
      <point x="153" y="501" type="curve" smooth="yes"/>
      <point x="66" y="501"/>
      <point x="28" y="441"/>
      <point x="28" y="381" type="curve" smooth="yes"/>
      <point x="28" y="338"/>
      <point x="41" y="302"/>
      <point x="58" y="270" type="curve"/>
      <point x="103" y="285" type="line"/>
      <point x="88" y="310"/>
      <point x="79" y="334"/>
      <point x="79" y="361" type="curve" smooth="yes"/>
      <point x="79" y="397"/>
      <point x="108" y="417"/>
      <point x="145" y="417" type="curve" smooth="yes"/>
      <point x="198" y="417"/>
      <point x="234" y="390"/>
      <point x="257" y="315" type="curve"/>
      <point x="288" y="315" type="line"/>
      <point x="305" y="375"/>
      <point x="339" y="417"/>
      <point x="397" y="417" type="curve" smooth="yes"/>
      <point x="441" y="417"/>
      <point x="468" y="397"/>
      <point x="468" y="351" type="curve" smooth="yes"/>
      <point x="468" y="326"/>
      <point x="457" y="296"/>
      <point x="418" y="240" type="curve" smooth="yes"/>
      <point x="355" y="150"/>
      <point x="328" y="101"/>
      <point x="328" y="40" type="curve" smooth="yes"/>
      <point x="328" y="-47"/>
      <point x="386" y="-102"/>
    </contour>
  </outline>
</glyph>
<glyph name="eetelu" format="2">
  <advance width="671"/>
  <unicode hex="0C0F"/>
  <outline>
    <contour>
      <point x="319" y="143" type="curve" smooth="yes"/>
      <point x="319" y="222"/>
      <point x="269" y="291"/>
      <point x="176" y="291" type="curve" smooth="yes"/>
      <point x="81" y="291"/>
      <point x="29" y="220"/>
      <point x="29" y="139" type="curve" smooth="yes"/>
      <point x="29" y="46"/>
      <point x="87" y="-12"/>
      <point x="175" y="-12" type="curve" smooth="yes"/>
      <point x="254" y="-12"/>
      <point x="319" y="38"/>
    </contour>
    <contour>
      <point x="89" y="160" type="curve" smooth="yes"/>
      <point x="89" y="214"/>
      <point x="123" y="248"/>
      <point x="176" y="248" type="curve" smooth="yes"/>
      <point x="230" y="248"/>
      <point x="264" y="213"/>
      <point x="264" y="161" type="curve" smooth="yes"/>
      <point x="264" y="105"/>
      <point x="229" y="77"/>
      <point x="175" y="77" type="curve" smooth="yes"/>
      <point x="119" y="77"/>
      <point x="89" y="111"/>
    </contour>
    <contour>
      <point x="296" y="225" type="curve"/>
      <point x="301" y="126" type="line"/>
      <point x="338" y="55"/>
      <point x="385" y="-12"/>
      <point x="477" y="-12" type="curve" smooth="yes"/>
      <point x="585" y="-12"/>
      <point x="634" y="80"/>
      <point x="634" y="235" type="curve" smooth="yes"/>
      <point x="634" y="497"/>
      <point x="477" y="687"/>
      <point x="256" y="704" type="curve"/>
      <point x="247" y="626" type="line"/>
      <point x="466" y="608"/>
      <point x="586" y="450"/>
      <point x="586" y="259" type="curve" smooth="yes"/>
      <point x="586" y="149"/>
      <point x="548" y="98"/>
      <point x="469" y="98" type="curve" smooth="yes"/>
      <point x="394" y="98"/>
      <point x="349" y="137"/>
    </contour>
    <contour>
      <point x="118" y="696" type="curve" smooth="yes"/>
      <point x="118" y="634"/>
      <point x="148" y="578"/>
      <point x="188" y="517" type="curve"/>
      <point x="230" y="534" type="line"/>
      <point x="202" y="589"/>
      <point x="186" y="631"/>
      <point x="186" y="681" type="curve" smooth="yes"/>
      <point x="186" y="744"/>
      <point x="224" y="762"/>
      <point x="256" y="762" type="curve" smooth="yes"/>
      <point x="268" y="762"/>
      <point x="286" y="760"/>
      <point x="300" y="755" type="curve"/>
      <point x="318" y="808" type="line"/>
      <point x="301" y="816"/>
      <point x="278" y="824"/>
      <point x="237" y="824" type="curve" smooth="yes"/>
      <point x="168" y="824"/>
      <point x="118" y="776"/>
    </contour>
  </outline>
</glyph>
<glyph name="aitelu" format="2">
  <advance width="687"/>
  <unicode hex="0C10"/>
  <outline>
    <contour>
      <point x="326" y="143" type="curve" smooth="yes"/>
      <point x="326" y="222"/>
      <point x="276" y="291"/>
      <point x="183" y="291" type="curve" smooth="yes"/>
      <point x="88" y="291"/>
      <point x="36" y="220"/>
      <point x="36" y="139" type="curve" smooth="yes"/>
      <point x="36" y="46"/>
      <point x="94" y="-12"/>
      <point x="182" y="-12" type="curve" smooth="yes"/>
      <point x="261" y="-12"/>
      <point x="326" y="38"/>
    </contour>
    <contour>
      <point x="96" y="160" type="curve" smooth="yes"/>
      <point x="96" y="214"/>
      <point x="130" y="248"/>
      <point x="183" y="248" type="curve" smooth="yes"/>
      <point x="237" y="248"/>
      <point x="271" y="213"/>
      <point x="271" y="161" type="curve" smooth="yes"/>
      <point x="271" y="105"/>
      <point x="236" y="77"/>
      <point x="182" y="77" type="curve" smooth="yes"/>
      <point x="126" y="77"/>
      <point x="96" y="111"/>
    </contour>
    <contour>
      <point x="489" y="-12" type="curve" smooth="yes"/>
      <point x="597" y="-12"/>
      <point x="648" y="83"/>
      <point x="648" y="245" type="curve" smooth="yes"/>
      <point x="648" y="375"/>
      <point x="602" y="500"/>
      <point x="471" y="500" type="curve" smooth="yes"/>
      <point x="389" y="500"/>
      <point x="337" y="451"/>
      <point x="304" y="379" type="curve"/>
      <point x="327" y="390" type="line"/>
      <point x="304" y="450"/>
      <point x="251" y="500"/>
      <point x="172" y="500" type="curve" smooth="yes"/>
      <point x="90" y="500"/>
      <point x="39" y="450"/>
      <point x="39" y="374" type="curve" smooth="yes"/>
      <point x="39" y="350"/>
      <point x="45" y="322"/>
      <point x="55" y="300" type="curve"/>
      <point x="98" y="313" type="line"/>
      <point x="94" y="323"/>
      <point x="90" y="336"/>
      <point x="90" y="351" type="curve" smooth="yes"/>
      <point x="90" y="391"/>
      <point x="122" y="416"/>
      <point x="180" y="416" type="curve" smooth="yes"/>
      <point x="249" y="416"/>
      <point x="289" y="370"/>
      <point x="296" y="332" type="curve"/>
      <point x="332" y="332" type="line"/>
      <point x="352" y="378"/>
      <point x="392" y="416"/>
      <point x="459" y="416" type="curve" smooth="yes"/>
      <point x="562" y="416"/>
      <point x="603" y="335"/>
      <point x="603" y="249" type="curve" smooth="yes"/>
      <point x="603" y="151"/>
      <point x="563" y="98"/>
      <point x="482" y="98" type="curve" smooth="yes"/>
      <point x="401" y="98"/>
      <point x="356" y="137"/>
      <point x="303" y="225" type="curve"/>
      <point x="308" y="126" type="line"/>
      <point x="345" y="55"/>
      <point x="392" y="-12"/>
    </contour>
  </outline>
</glyph>
<glyph name="otelu" format="2">
  <advance width="684"/>
  <unicode hex="0C12"/>
  <outline>
    <contour>
      <point x="516" y="-12" type="curve" smooth="yes"/>
      <point x="608" y="-12"/>
      <point x="653" y="44"/>
      <point x="653" y="147" type="curve" smooth="yes"/>
      <point x="653" y="242"/>
      <point x="607" y="304"/>
      <point x="523" y="325" type="curve"/>
      <point x="511" y="251" type="line"/>
      <point x="568" y="242"/>
      <point x="608" y="218"/>
      <point x="608" y="168" type="curve" smooth="yes"/>
      <point x="608" y="126"/>
      <point x="576" y="98"/>
      <point x="509" y="98" type="curve" smooth="yes"/>
      <point x="428" y="98"/>
      <point x="382" y="134"/>
      <point x="363" y="204" type="curve"/>
      <point x="332" y="204" type="line"/>
      <point x="312" y="130"/>
      <point x="266" y="98"/>
      <point x="192" y="98" type="curve" smooth="yes"/>
      <point x="133" y="98"/>
      <point x="110" y="117"/>
      <point x="110" y="154" type="curve" smooth="yes"/>
      <point x="110" y="182"/>
      <point x="125" y="207"/>
      <point x="206" y="242" type="curve" smooth="yes"/>
      <point x="293" y="280"/>
      <point x="331" y="319"/>
      <point x="331" y="385" type="curve" smooth="yes"/>
      <point x="331" y="446"/>
      <point x="286" y="500"/>
      <point x="190" y="500" type="curve" smooth="yes"/>
      <point x="95" y="500"/>
      <point x="33" y="449"/>
      <point x="33" y="370" type="curve" smooth="yes"/>
      <point x="33" y="345"/>
      <point x="36" y="322"/>
      <point x="43" y="296" type="curve"/>
      <point x="125" y="305" type="line"/>
      <point x="114" y="330"/>
      <point x="110" y="353"/>
      <point x="110" y="376" type="curve" smooth="yes"/>
      <point x="110" y="426"/>
      <point x="139" y="455"/>
      <point x="192" y="455" type="curve" smooth="yes"/>
      <point x="239" y="455"/>
      <point x="274" y="431"/>
      <point x="274" y="381" type="curve" smooth="yes"/>
      <point x="274" y="338"/>
      <point x="248" y="309"/>
      <point x="178" y="281" type="curve" smooth="yes"/>
      <point x="89" y="245"/>
      <point x="42" y="199"/>
      <point x="42" y="127" type="curve" smooth="yes"/>
      <point x="42" y="35"/>
      <point x="103" y="-12"/>
      <point x="184" y="-12" type="curve" smooth="yes"/>
      <point x="269" y="-12"/>
      <point x="328" y="28"/>
      <point x="365" y="147" type="curve"/>
      <point x="329" y="148" type="line"/>
      <point x="369" y="28"/>
      <point x="435" y="-12"/>
    </contour>
  </outline>
</glyph>
<glyph name="ootelu" format="2">
  <advance width="684"/>
  <unicode hex="0C13"/>
  <outline>
    <contour>
      <point x="180" y="669" type="curve" smooth="yes"/>
      <point x="102" y="669"/>
      <point x="56" y="629"/>
      <point x="56" y="564" type="curve" smooth="yes"/>
      <point x="56" y="524"/>
      <point x="76" y="487"/>
      <point x="107" y="464" type="curve"/>
      <point x="152" y="486" type="line"/>
      <point x="127" y="501"/>
      <point x="109" y="520"/>
      <point x="109" y="551" type="curve" smooth="yes"/>
      <point x="109" y="584"/>
      <point x="135" y="606"/>
      <point x="179" y="606" type="curve" smooth="yes"/>
      <point x="238" y="606"/>
      <point x="263" y="573"/>
      <point x="271" y="520" type="curve"/>
      <point x="315" y="524" type="line"/>
      <point x="311" y="598"/>
      <point x="275" y="669"/>
    </contour>
    <component base="otelu"/>
  </outline>
</glyph>
<glyph name="autelu" format="2">
  <advance width="684"/>
  <unicode hex="0C14"/>
  <outline>
    <contour>
      <point x="110" y="605" type="line"/>
      <point x="193" y="605" type="line" smooth="yes"/>
      <point x="240" y="605"/>
      <point x="284" y="598"/>
      <point x="284" y="551" type="curve" smooth="yes"/>
      <point x="284" y="507"/>
      <point x="246" y="500"/>
      <point x="186" y="500" type="curve" smooth="yes"/>
      <point x="130" y="500" type="line"/>
      <point x="130" y="455" type="line"/>
      <point x="186" y="455" type="line" smooth="yes"/>
      <point x="282" y="455"/>
      <point x="341" y="484"/>
      <point x="341" y="551" type="curve" smooth="yes"/>
      <point x="341" y="619"/>
      <point x="261" y="642"/>
      <point x="158" y="642" type="curve" smooth="yes"/>
      <point x="117" y="642" type="line"/>
    </contour>
    <contour>
      <point x="467" y="679" type="curve" smooth="yes"/>
      <point x="51" y="679" type="line"/>
      <point x="44" y="605" type="line"/>
      <point x="454" y="605" type="line"/>
      <point x="453" y="623" type="line"/>
      <point x="435" y="604"/>
      <point x="426" y="573"/>
      <point x="426" y="550" type="curve" smooth="yes"/>
      <point x="426" y="481"/>
      <point x="472" y="439"/>
      <point x="543" y="439" type="curve" smooth="yes"/>
      <point x="617" y="439"/>
      <point x="662" y="485"/>
      <point x="662" y="556" type="curve" smooth="yes"/>
      <point x="662" y="595"/>
      <point x="644" y="629"/>
      <point x="613" y="650" type="curve" smooth="yes"/>
      <point x="581" y="671"/>
      <point x="543" y="679"/>
    </contour>
    <contour>
      <point x="544" y="482" type="curve" smooth="yes"/>
      <point x="511" y="482"/>
      <point x="481" y="496"/>
      <point x="481" y="547" type="curve" smooth="yes"/>
      <point x="481" y="589"/>
      <point x="509" y="610"/>
      <point x="540" y="610" type="curve" smooth="yes"/>
      <point x="579" y="610"/>
      <point x="603" y="587"/>
      <point x="603" y="547" type="curve" smooth="yes"/>
      <point x="603" y="503"/>
      <point x="577" y="482"/>
    </contour>
    <component base="otelu"/>
  </outline>
</glyph>
<glyph name="khatelu" format="2">
  <advance width="724"/>
  <unicode hex="0C16"/>
  <outline>
    <contour>
      <point x="519" y="-12" type="curve" smooth="yes"/>
      <point x="642" y="-12"/>
      <point x="689" y="82"/>
      <point x="689" y="215" type="curve" smooth="yes"/>
      <point x="689" y="375"/>
      <point x="596" y="489"/>
      <point x="440" y="504" type="curve"/>
      <point x="434" y="423" type="line"/>
      <point x="569" y="410"/>
      <point x="644" y="339"/>
      <point x="644" y="229" type="curve" smooth="yes"/>
      <point x="644" y="146"/>
      <point x="610" y="98"/>
      <point x="512" y="98" type="curve" smooth="yes"/>
      <point x="454" y="98"/>
      <point x="405" y="115"/>
      <point x="350" y="155" type="curve"/>
      <point x="287" y="208"/>
      <point x="231" y="237"/>
      <point x="161" y="237" type="curve" smooth="yes"/>
      <point x="66" y="237"/>
      <point x="27" y="185"/>
      <point x="27" y="123" type="curve" smooth="yes"/>
      <point x="27" y="47"/>
      <point x="74" y="-12"/>
      <point x="181" y="-12" type="curve" smooth="yes"/>
      <point x="328" y="-12"/>
      <point x="407" y="105"/>
      <point x="407" y="263" type="curve" smooth="yes"/>
      <point x="407" y="412"/>
      <point x="331" y="500"/>
      <point x="190" y="500" type="curve" smooth="yes"/>
      <point x="101" y="500"/>
      <point x="46" y="450"/>
      <point x="46" y="378" type="curve" smooth="yes"/>
      <point x="46" y="311"/>
      <point x="92" y="261"/>
      <point x="167" y="261" type="curve" smooth="yes"/>
      <point x="238" y="261"/>
      <point x="287" y="296"/>
      <point x="287" y="374" type="curve" smooth="yes"/>
      <point x="287" y="402"/>
      <point x="280" y="421"/>
      <point x="266" y="438" type="curve"/>
      <point x="262" y="433" type="line"/>
      <point x="319" y="412"/>
      <point x="360" y="358"/>
      <point x="360" y="272" type="curve" smooth="yes"/>
      <point x="360" y="151"/>
      <point x="301" y="86"/>
      <point x="177" y="86" type="curve" smooth="yes"/>
      <point x="119" y="86"/>
      <point x="87" y="105"/>
      <point x="87" y="143" type="curve" smooth="yes"/>
      <point x="87" y="178"/>
      <point x="113" y="194"/>
      <point x="156" y="194" type="curve" smooth="yes"/>
      <point x="219" y="194"/>
      <point x="272" y="158"/>
      <point x="321" y="112" type="curve"/>
      <point x="378" y="35"/>
      <point x="439" y="-12"/>
    </contour>
    <contour>
      <point x="105" y="372" type="curve" smooth="yes"/>
      <point x="105" y="413"/>
      <point x="131" y="438"/>
      <point x="170" y="438" type="curve" smooth="yes"/>
      <point x="205" y="438"/>
      <point x="231" y="416"/>
      <point x="231" y="371" type="curve" smooth="yes"/>
      <point x="231" y="322"/>
      <point x="200" y="304"/>
      <point x="166" y="304" type="curve" smooth="yes"/>
      <point x="131" y="304"/>
      <point x="105" y="329"/>
    </contour>
    <contour>
      <point x="298" y="-125" type="line"/>
      <point x="405" y="-125" type="line"/>
      <point x="374" y="31" type="line"/>
      <point x="329" y="31" type="line"/>
    </contour>
  </outline>
</glyph>
<glyph name="jatelu" format="2">
  <advance width="686"/>
  <unicode hex="0C1C"/>
  <outline>
    <contour>
      <point x="516" y="-12" type="curve" smooth="yes"/>
      <point x="608" y="-12"/>
      <point x="654" y="44"/>
      <point x="654" y="151" type="curve" smooth="yes"/>
      <point x="654" y="191"/>
      <point x="644" y="226"/>
      <point x="630" y="253" type="curve"/>
      <point x="586" y="235" type="line"/>
      <point x="601" y="210"/>
      <point x="606" y="194"/>
      <point x="606" y="168" type="curve" smooth="yes"/>
      <point x="606" y="129"/>
      <point x="576" y="98"/>
      <point x="508" y="98" type="curve" smooth="yes"/>
      <point x="428" y="98"/>
      <point x="382" y="134"/>
      <point x="363" y="204" type="curve"/>
      <point x="332" y="204" type="line"/>
      <point x="312" y="130"/>
      <point x="266" y="98"/>
      <point x="193" y="98" type="curve" smooth="yes"/>
      <point x="135" y="98"/>
      <point x="110" y="117"/>
      <point x="110" y="154" type="curve" smooth="yes"/>
      <point x="110" y="182"/>
      <point x="125" y="207"/>
      <point x="206" y="242" type="curve" smooth="yes"/>
      <point x="296" y="281"/>
      <point x="328" y="322"/>
      <point x="328" y="383" type="curve" smooth="yes"/>
      <point x="328" y="445"/>
      <point x="286" y="500"/>
      <point x="190" y="500" type="curve" smooth="yes"/>
      <point x="95" y="500"/>
      <point x="33" y="449"/>
      <point x="33" y="370" type="curve" smooth="yes"/>
      <point x="33" y="345"/>
      <point x="36" y="322"/>
      <point x="43" y="296" type="curve"/>
      <point x="125" y="305" type="line"/>
      <point x="114" y="330"/>
      <point x="110" y="353"/>
      <point x="110" y="376" type="curve" smooth="yes"/>
      <point x="110" y="426"/>
      <point x="139" y="455"/>
      <point x="192" y="455" type="curve" smooth="yes"/>
      <point x="239" y="455"/>
      <point x="274" y="431"/>
      <point x="274" y="381" type="curve" smooth="yes"/>
      <point x="274" y="338"/>
      <point x="248" y="309"/>
      <point x="178" y="281" type="curve" smooth="yes"/>
      <point x="89" y="245"/>
      <point x="42" y="199"/>
      <point x="42" y="127" type="curve" smooth="yes"/>
      <point x="42" y="35"/>
      <point x="102" y="-12"/>
      <point x="184" y="-12" type="curve" smooth="yes"/>
      <point x="269" y="-12"/>
      <point x="328" y="28"/>
      <point x="365" y="147" type="curve"/>
      <point x="329" y="148" type="line"/>
      <point x="369" y="28"/>
      <point x="435" y="-12"/>
    </contour>
    <contour>
      <point x="313" y="441" type="curve"/>
      <point x="304" y="397" type="line"/>
      <point x="336" y="315"/>
      <point x="399" y="255"/>
      <point x="488" y="255" type="curve" smooth="yes"/>
      <point x="572" y="255"/>
      <point x="611" y="301"/>
      <point x="611" y="371" type="curve" smooth="yes"/>
      <point x="611" y="444"/>
      <point x="560" y="502"/>
      <point x="444" y="507" type="curve"/>
      <point x="443" y="440" type="line"/>
      <point x="534" y="440"/>
      <point x="567" y="421"/>
      <point x="567" y="383" type="curve" smooth="yes"/>
      <point x="567" y="350"/>
      <point x="543" y="331"/>
      <point x="484" y="331" type="curve" smooth="yes"/>
      <point x="415" y="331"/>
      <point x="354" y="370"/>
    </contour>
  </outline>
</glyph>
<glyph name="nyatelu" format="2">
  <advance width="877"/>
  <unicode hex="0C1E"/>
  <outline>
    <contour>
      <point x="287" y="-12" type="curve" smooth="yes"/>
      <point x="391" y="-12"/>
      <point x="464" y="23"/>
      <point x="512" y="77" type="curve"/>
      <point x="530" y="90" type="line"/>
      <point x="574" y="145"/>
      <point x="591" y="219"/>
      <point x="591" y="290" type="curve" smooth="yes"/>
      <point x="591" y="431"/>
      <point x="539" y="500"/>
      <point x="443" y="500" type="curve" smooth="yes"/>
      <point x="374" y="500"/>
      <point x="323" y="463"/>
      <point x="288" y="379" type="curve"/>
      <point x="312" y="390" type="line"/>
      <point x="289" y="450"/>
      <point x="236" y="500"/>
      <point x="159" y="500" type="curve" smooth="yes"/>
      <point x="79" y="500"/>
      <point x="28" y="450"/>
      <point x="28" y="374" type="curve" smooth="yes"/>
      <point x="28" y="346"/>
      <point x="36" y="315"/>
      <point x="51" y="284" type="curve"/>
      <point x="95" y="300" type="line"/>
      <point x="86" y="315"/>
      <point x="79" y="332"/>
      <point x="79" y="351" type="curve" smooth="yes"/>
      <point x="79" y="391"/>
      <point x="111" y="416"/>
      <point x="167" y="416" type="curve" smooth="yes"/>
      <point x="234" y="416"/>
      <point x="274" y="370"/>
      <point x="281" y="332" type="curve"/>
      <point x="317" y="332" type="line"/>
      <point x="335" y="379"/>
      <point x="374" y="416"/>
      <point x="439" y="416" type="curve" smooth="yes"/>
      <point x="503" y="416"/>
      <point x="547" y="375"/>
      <point x="547" y="293" type="curve" smooth="yes"/>
      <point x="547" y="173"/>
      <point x="464" y="98"/>
      <point x="304" y="98" type="curve" smooth="yes"/>
      <point x="176" y="98"/>
      <point x="147" y="128"/>
      <point x="147" y="171" type="curve" smooth="yes"/>
      <point x="147" y="216"/>
      <point x="189" y="236"/>
      <point x="256" y="236" type="curve" smooth="yes"/>
      <point x="383" y="236"/>
      <point x="503" y="153"/>
      <point x="503" y="5" type="curve" smooth="yes"/>
      <point x="503" y="-8"/>
      <point x="502" y="-25"/>
      <point x="499" y="-39" type="curve"/>
      <point x="563" y="-46" type="line"/>
      <point x="565" y="-36"/>
      <point x="566" y="-12"/>
      <point x="566" y="-2" type="curve" smooth="yes"/>
      <point x="566" y="164"/>
      <point x="432" y="279"/>
      <point x="260" y="279" type="curve" smooth="yes"/>
      <point x="133" y="279"/>
      <point x="81" y="223"/>
      <point x="81" y="145" type="curve" smooth="yes"/>
      <point x="81" y="51"/>
      <point x="145" y="-12"/>
    </contour>
    <contour>
      <point x="580" y="303" type="line"/>
      <point x="859" y="303" type="line"/>
      <point x="859" y="348" type="line"/>
      <point x="577" y="348" type="line"/>
    </contour>
    <contour>
      <point x="763" y="497" type="line"/>
      <point x="668" y="497" type="line"/>
      <point x="694" y="339" type="line"/>
      <point x="738" y="339" type="line"/>
    </contour>
  </outline>
</glyph>
<glyph name="nnatelu" format="2">
  <advance width="786"/>
  <unicode hex="0C23"/>
  <outline>
    <contour>
      <point x="558" y="500" type="curve" smooth="yes"/>
      <point x="462" y="500"/>
      <point x="408" y="446"/>
      <point x="375" y="377" type="curve"/>
      <point x="386" y="376" type="line"/>
      <point x="354" y="439"/>
      <point x="293" y="501"/>
      <point x="196" y="501" type="curve" smooth="yes"/>
      <point x="96" y="501"/>
      <point x="37" y="450"/>
      <point x="37" y="380" type="curve" smooth="yes"/>
      <point x="37" y="299"/>
      <point x="97" y="264"/>
      <point x="159" y="253" type="curve"/>
      <point x="161" y="268" type="line"/>
      <point x="81" y="255"/>
      <point x="30" y="206"/>
      <point x="30" y="129" type="curve" smooth="yes"/>
      <point x="30" y="43"/>
      <point x="82" y="-12"/>
      <point x="171" y="-12" type="curve" smooth="yes"/>
      <point x="294" y="-12"/>
      <point x="338" y="70"/>
      <point x="362" y="143" type="curve"/>
      <point x="322" y="155" type="line"/>
      <point x="292" y="112"/>
      <point x="245" y="96"/>
      <point x="180" y="96" type="curve" smooth="yes"/>
      <point x="127" y="96"/>
      <point x="93" y="117"/>
      <point x="93" y="163" type="curve" smooth="yes"/>
      <point x="93" y="206"/>
      <point x="129" y="235"/>
      <point x="214" y="235" type="curve" smooth="yes"/>
      <point x="257" y="235" type="line"/>
      <point x="257" y="282" type="line"/>
      <point x="220" y="282" type="line" smooth="yes"/>
      <point x="139" y="282"/>
      <point x="99" y="310"/>
      <point x="99" y="361" type="curve" smooth="yes"/>
      <point x="99" y="415"/>
      <point x="143" y="435"/>
      <point x="202" y="435" type="curve" smooth="yes"/>
      <point x="281" y="435"/>
      <point x="337" y="383"/>
      <point x="363" y="329" type="curve"/>
      <point x="398" y="329" type="line"/>
      <point x="431" y="388"/>
      <point x="474" y="425"/>
      <point x="546" y="425" type="curve" smooth="yes"/>
      <point x="631" y="425"/>
      <point x="702" y="364"/>
      <point x="702" y="221" type="curve" smooth="yes"/>
      <point x="702" y="134"/>
      <point x="669" y="85"/>
      <point x="623" y="56" type="curve"/>
      <point x="640" y="54" type="line"/>
      <point x="662" y="87"/>
      <point x="666" y="111"/>
      <point x="666" y="138" type="curve" smooth="yes"/>
      <point x="666" y="208"/>
      <point x="627" y="255"/>
      <point x="546" y="255" type="curve" smooth="yes"/>
      <point x="469" y="255"/>
      <point x="418" y="201"/>
      <point x="418" y="125" type="curve" smooth="yes"/>
      <point x="418" y="45"/>
      <point x="472" y="-12"/>
      <point x="561" y="-12" type="curve" smooth="yes"/>
      <point x="682" y="-12"/>
      <point x="747" y="86"/>
      <point x="747" y="235" type="curve" smooth="yes"/>
      <point x="747" y="422"/>
      <point x="663" y="500"/>
    </contour>
    <contour>
      <point x="547" y="74" type="curve" smooth="yes"/>
      <point x="505" y="74"/>
      <point x="478" y="97"/>
      <point x="478" y="143" type="curve" smooth="yes"/>
      <point x="478" y="183"/>
      <point x="505" y="212"/>
      <point x="548" y="212" type="curve" smooth="yes"/>
      <point x="586" y="212"/>
      <point x="613" y="187"/>
      <point x="613" y="143" type="curve" smooth="yes"/>
      <point x="613" y="95"/>
      <point x="584" y="74"/>
    </contour>
  </outline>
</glyph>
<glyph name="tatelu" format="2">
  <advance width="723"/>
  <unicode hex="0C24"/>
  <outline>
    <contour>
      <point x="360" y="-13" type="curve" smooth="yes"/>
      <point x="590" y="-13"/>
      <point x="689" y="75"/>
      <point x="689" y="234" type="curve" smooth="yes"/>
      <point x="689" y="326"/>
      <point x="648" y="375"/>
      <point x="593" y="398" type="curve"/>
      <point x="577" y="397" type="line"/>
      <point x="562" y="403"/>
      <point x="547" y="406"/>
      <point x="523" y="406" type="curve" smooth="yes"/>
      <point x="438" y="406"/>
      <point x="389" y="358"/>
      <point x="389" y="292" type="curve" smooth="yes"/>
      <point x="389" y="225"/>
      <point x="430" y="184"/>
      <point x="508" y="184" type="curve" smooth="yes"/>
      <point x="594" y="184"/>
      <point x="619" y="238"/>
      <point x="619" y="295" type="curve" smooth="yes"/>
      <point x="619" y="321"/>
      <point x="616" y="338"/>
      <point x="607" y="358" type="curve"/>
      <point x="609" y="369" type="line"/>
      <point x="592" y="440"/>
      <point x="515" y="500"/>
      <point x="409" y="501" type="curve"/>
      <point x="372" y="455" type="line"/>
      <point x="386" y="455" type="line" smooth="yes"/>
      <point x="493" y="455"/>
      <point x="533" y="425"/>
      <point x="557" y="385" type="curve"/>
      <point x="555" y="376" type="line"/>
      <point x="569" y="355"/>
      <point x="575" y="333"/>
      <point x="575" y="301" type="curve" smooth="yes"/>
      <point x="575" y="250"/>
      <point x="550" y="229"/>
      <point x="512" y="229" type="curve" smooth="yes"/>
      <point x="478" y="229"/>
      <point x="452" y="247"/>
      <point x="452" y="291" type="curve" smooth="yes"/>
      <point x="452" y="344"/>
      <point x="494" y="364"/>
      <point x="533" y="364" type="curve" smooth="yes"/>
      <point x="553" y="364"/>
      <point x="568" y="361"/>
      <point x="582" y="355" type="curve"/>
      <point x="595" y="348" type="line"/>
      <point x="626" y="330"/>
      <point x="644" y="298"/>
      <point x="644" y="252" type="curve" smooth="yes"/>
      <point x="644" y="142"/>
      <point x="534" y="98"/>
      <point x="365" y="98" type="curve" smooth="yes"/>
      <point x="173" y="98"/>
      <point x="79" y="149"/>
      <point x="79" y="256" type="curve" smooth="yes"/>
      <point x="79" y="305"/>
      <point x="99" y="338"/>
      <point x="126" y="356" type="curve"/>
      <point x="122" y="368" type="line"/>
      <point x="109" y="345"/>
      <point x="102" y="326"/>
      <point x="102" y="300" type="curve" smooth="yes"/>
      <point x="102" y="224"/>
      <point x="148" y="184"/>
      <point x="213" y="184" type="curve" smooth="yes"/>
      <point x="290" y="184"/>
      <point x="334" y="234"/>
      <point x="334" y="304" type="curve" smooth="yes"/>
      <point x="334" y="370"/>
      <point x="291" y="421"/>
      <point x="210" y="421" type="curve" smooth="yes"/>
      <point x="100" y="421"/>
      <point x="34" y="340"/>
      <point x="34" y="234" type="curve" smooth="yes"/>
      <point x="34" y="56"/>
      <point x="173" y="-13"/>
    </contour>
    <contour>
      <point x="275" y="294" type="curve" smooth="yes"/>
      <point x="275" y="252"/>
      <point x="249" y="227"/>
      <point x="214" y="227" type="curve" smooth="yes"/>
      <point x="180" y="227"/>
      <point x="149" y="245"/>
      <point x="149" y="294" type="curve" smooth="yes"/>
      <point x="149" y="338"/>
      <point x="178" y="361"/>
      <point x="213" y="361" type="curve" smooth="yes"/>
      <point x="250" y="361"/>
      <point x="275" y="336"/>
    </contour>
    <component base="hattelu" xOffset="264"/>
  </outline>
</glyph>
<glyph name="natelu" format="2">
  <advance width="658"/>
  <unicode hex="0C28"/>
  <outline>
    <contour>
      <point x="464" y="-12" type="curve" smooth="yes"/>
      <point x="572" y="-12"/>
      <point x="621" y="82"/>
      <point x="621" y="211" type="curve" smooth="yes"/>
      <point x="621" y="382"/>
      <point x="513" y="500"/>
      <point x="304" y="502" type="curve"/>
      <point x="242" y="455" type="line"/>
      <point x="275" y="455" type="line" smooth="yes"/>
      <point x="481" y="455"/>
      <point x="574" y="357"/>
      <point x="574" y="225" type="curve" smooth="yes"/>
      <point x="574" y="141"/>
      <point x="532" y="98"/>
      <point x="467" y="98" type="curve" smooth="yes"/>
      <point x="404" y="98"/>
      <point x="374" y="126"/>
      <point x="321" y="193" type="curve" smooth="yes"/>
      <point x="264" y="265"/>
      <point x="225" y="295"/>
      <point x="163" y="295" type="curve" smooth="yes"/>
      <point x="81" y="295"/>
      <point x="33" y="235"/>
      <point x="33" y="133" type="curve" smooth="yes"/>
      <point x="33" y="86"/>
      <point x="44" y="27"/>
      <point x="63" y="-11" type="curve"/>
      <point x="158" y="-6" type="line"/>
      <point x="124" y="51"/>
      <point x="105" y="105"/>
      <point x="105" y="164" type="curve" smooth="yes"/>
      <point x="105" y="221"/>
      <point x="128" y="252"/>
      <point x="163" y="252" type="curve" smooth="yes"/>
      <point x="197" y="252"/>
      <point x="217" y="231"/>
      <point x="268" y="144" type="curve" smooth="yes"/>
      <point x="336" y="27"/>
      <point x="386" y="-12"/>
    </contour>
    <component base="hattelu" xOffset="124"/>
  </outline>
</glyph>
<glyph name="batelu" format="2">
  <advance width="693"/>
  <unicode hex="0C2C"/>
  <outline>
    <contour>
      <point x="500" y="-12" type="curve" smooth="yes"/>
      <point x="608" y="-12"/>
      <point x="658" y="82"/>
      <point x="658" y="215" type="curve" smooth="yes"/>
      <point x="658" y="375"/>
      <point x="565" y="489"/>
      <point x="409" y="504" type="curve"/>
      <point x="403" y="423" type="line"/>
      <point x="538" y="410"/>
      <point x="613" y="339"/>
      <point x="613" y="229" type="curve" smooth="yes"/>
      <point x="613" y="144"/>
      <point x="575" y="98"/>
      <point x="493" y="98" type="curve" smooth="yes"/>
      <point x="429" y="98"/>
      <point x="383" y="134"/>
      <point x="363" y="204" type="curve"/>
      <point x="332" y="204" type="line"/>
      <point x="312" y="130"/>
      <point x="266" y="98"/>
      <point x="193" y="98" type="curve" smooth="yes"/>
      <point x="135" y="98"/>
      <point x="110" y="117"/>
      <point x="110" y="154" type="curve" smooth="yes"/>
      <point x="110" y="182"/>
      <point x="125" y="207"/>
      <point x="206" y="242" type="curve" smooth="yes"/>
      <point x="293" y="280"/>
      <point x="331" y="319"/>
      <point x="331" y="385" type="curve" smooth="yes"/>
      <point x="331" y="447"/>
      <point x="286" y="500"/>
      <point x="190" y="500" type="curve" smooth="yes"/>
      <point x="95" y="500"/>
      <point x="33" y="449"/>
      <point x="33" y="370" type="curve" smooth="yes"/>
      <point x="33" y="345"/>
      <point x="36" y="322"/>
      <point x="43" y="296" type="curve"/>
      <point x="125" y="305" type="line"/>
      <point x="114" y="330"/>
      <point x="110" y="353"/>
      <point x="110" y="376" type="curve" smooth="yes"/>
      <point x="110" y="426"/>
      <point x="139" y="455"/>
      <point x="192" y="455" type="curve" smooth="yes"/>
      <point x="239" y="455"/>
      <point x="274" y="431"/>
      <point x="274" y="381" type="curve" smooth="yes"/>
      <point x="274" y="338"/>
      <point x="248" y="309"/>
      <point x="178" y="281" type="curve" smooth="yes"/>
      <point x="89" y="245"/>
      <point x="42" y="198"/>
      <point x="42" y="127" type="curve" smooth="yes"/>
      <point x="42" y="35"/>
      <point x="102" y="-12"/>
      <point x="184" y="-12" type="curve" smooth="yes"/>
      <point x="269" y="-12"/>
      <point x="328" y="28"/>
      <point x="365" y="147" type="curve"/>
      <point x="329" y="148" type="line"/>
      <point x="367" y="25"/>
      <point x="431" y="-12"/>
    </contour>
  </outline>
</glyph>
<glyph name="yatelu" format="2">
  <advance width="1186"/>
  <unicode hex="0C2F"/>
  <outline>
    <contour>
      <point x="35" y="243" type="curve" smooth="yes"/>
      <point x="35" y="92"/>
      <point x="127" y="-12"/>
      <point x="281" y="-12" type="curve" smooth="yes"/>
      <point x="434" y="-12"/>
      <point x="529" y="91"/>
      <point x="529" y="243" type="curve" smooth="yes"/>
      <point x="529" y="389"/>
      <point x="439" y="503"/>
      <point x="284" y="503" type="curve" smooth="yes"/>
      <point x="127" y="503"/>
      <point x="35" y="387"/>
    </contour>
    <contour>
      <point x="99" y="274" type="curve" smooth="yes"/>
      <point x="99" y="382"/>
      <point x="170" y="455"/>
      <point x="284" y="455" type="curve" smooth="yes"/>
      <point x="400" y="455"/>
      <point x="465" y="381"/>
      <point x="465" y="274" type="curve" smooth="yes"/>
      <point x="465" y="170"/>
      <point x="404" y="100"/>
      <point x="281" y="100" type="curve" smooth="yes"/>
      <point x="159" y="100"/>
      <point x="99" y="172"/>
    </contour>
    <contour>
      <point x="674" y="-12" type="curve" smooth="yes"/>
      <point x="789" y="-12"/>
      <point x="833" y="84"/>
      <point x="833" y="207" type="curve" smooth="yes"/>
      <point x="833" y="387"/>
      <point x="728" y="466"/>
      <point x="617" y="494" type="curve"/>
      <point x="569" y="455" type="line"/>
      <point x="699" y="430"/>
      <point x="786" y="357"/>
      <point x="786" y="225" type="curve" smooth="yes"/>
      <point x="786" y="139"/>
      <point x="739" y="98"/>
      <point x="668" y="98" type="curve" smooth="yes"/>
      <point x="604" y="98"/>
      <point x="561" y="129"/>
      <point x="513" y="202" type="curve"/>
      <point x="481" y="186" type="line"/>
      <point x="529" y="48"/>
      <point x="579" y="-12"/>
    </contour>
    <contour>
      <point x="996" y="-12" type="curve" smooth="yes"/>
      <point x="1101" y="-12"/>
      <point x="1151" y="82"/>
      <point x="1151" y="215" type="curve" smooth="yes"/>
      <point x="1151" y="375"/>
      <point x="1058" y="499"/>
      <point x="880" y="504" type="curve"/>
      <point x="877" y="422" type="line"/>
      <point x="1031" y="416"/>
      <point x="1106" y="339"/>
      <point x="1106" y="231" type="curve" smooth="yes"/>
      <point x="1106" y="144"/>
      <point x="1064" y="98"/>
      <point x="983" y="98" type="curve" smooth="yes"/>
      <point x="916" y="98"/>
      <point x="873" y="129"/>
      <point x="825" y="202" type="curve"/>
      <point x="795" y="192" type="line"/>
      <point x="843" y="50"/>
      <point x="901" y="-12"/>
    </contour>
    <component base="hattelu" xOffset="465"/>
  </outline>
</glyph>
<glyph name="rratelu" format="2">
  <advance width="773"/>
  <unicode hex="0C31"/>
  <outline>
    <contour>
      <point x="565" y="500" type="curve" smooth="yes"/>
      <point x="482" y="500"/>
      <point x="443" y="442"/>
      <point x="443" y="386" type="curve" smooth="yes"/>
      <point x="443" y="317"/>
      <point x="495" y="276"/>
      <point x="544" y="253" type="curve"/>
      <point x="567" y="271" type="line"/>
      <point x="302" y="271" type="line"/>
      <point x="302" y="220" type="line"/>
      <point x="578" y="220" type="line"/>
      <point x="590" y="263" type="line"/>
      <point x="544" y="287"/>
      <point x="509" y="319"/>
      <point x="509" y="365" type="curve" smooth="yes"/>
      <point x="509" y="405"/>
      <point x="535" y="428"/>
      <point x="575" y="428" type="curve" smooth="yes"/>
      <point x="646" y="428"/>
      <point x="687" y="347"/>
      <point x="687" y="255" type="curve" smooth="yes"/>
      <point x="687" y="142"/>
      <point x="626" y="98"/>
      <point x="549" y="98" type="curve" smooth="yes"/>
      <point x="467" y="98"/>
      <point x="427" y="130"/>
      <point x="402" y="197" type="curve"/>
      <point x="371" y="197" type="line"/>
      <point x="346" y="130"/>
      <point x="306" y="98"/>
      <point x="228" y="98" type="curve" smooth="yes"/>
      <point x="153" y="98"/>
      <point x="86" y="142"/>
      <point x="86" y="255" type="curve" smooth="yes"/>
      <point x="86" y="318"/>
      <point x="102" y="367"/>
      <point x="142" y="411" type="curve"/>
      <point x="132" y="415" type="line"/>
      <point x="126" y="402"/>
      <point x="124" y="389"/>
      <point x="124" y="379" type="curve" smooth="yes"/>
      <point x="124" y="302"/>
      <point x="172" y="261"/>
      <point x="241" y="261" type="curve" smooth="yes"/>
      <point x="315" y="261"/>
      <point x="361" y="307"/>
      <point x="361" y="381" type="curve" smooth="yes"/>
      <point x="361" y="447"/>
      <point x="320" y="500"/>
      <point x="234" y="500" type="curve" smooth="yes"/>
      <point x="156" y="500"/>
      <point x="39" y="430"/>
      <point x="39" y="231" type="curve" smooth="yes"/>
      <point x="39" y="71"/>
      <point x="109" y="-12"/>
      <point x="222" y="-12" type="curve" smooth="yes"/>
      <point x="329" y="-12"/>
      <point x="377" y="52"/>
      <point x="404" y="147" type="curve"/>
      <point x="369" y="147" type="line"/>
      <point x="396" y="52"/>
      <point x="448" y="-12"/>
      <point x="555" y="-12" type="curve" smooth="yes"/>
      <point x="668" y="-12"/>
      <point x="734" y="71"/>
      <point x="734" y="234" type="curve" smooth="yes"/>
      <point x="734" y="411"/>
      <point x="660" y="500"/>
    </contour>
    <contour>
      <point x="237" y="438" type="curve" smooth="yes"/>
      <point x="275" y="438"/>
      <point x="302" y="413"/>
      <point x="302" y="371" type="curve" smooth="yes"/>
      <point x="302" y="329"/>
      <point x="275" y="304"/>
      <point x="241" y="304" type="curve" smooth="yes"/>
      <point x="207" y="304"/>
      <point x="176" y="322"/>
      <point x="176" y="371" type="curve" smooth="yes"/>
      <point x="176" y="416"/>
      <point x="206" y="438"/>
    </contour>
  </outline>
</glyph>
<glyph name="latelu" format="2">
  <advance width="665"/>
  <unicode hex="0C32"/>
  <outline>
    <contour>
      <point x="332" y="-12" type="curve" smooth="yes"/>
      <point x="545" y="-12"/>
      <point x="630" y="85"/>
      <point x="630" y="266" type="curve" smooth="yes"/>
      <point x="630" y="387"/>
      <point x="560" y="490"/>
      <point x="436" y="504" type="curve"/>
      <point x="432" y="422" type="line"/>
      <point x="518" y="412"/>
      <point x="585" y="369"/>
      <point x="585" y="272" type="curve" smooth="yes"/>
      <point x="585" y="162"/>
      <point x="505" y="99"/>
      <point x="331" y="99" type="curve" smooth="yes"/>
      <point x="178" y="99"/>
      <point x="81" y="161"/>
      <point x="81" y="282" type="curve" smooth="yes"/>
      <point x="81" y="342"/>
      <point x="104" y="383"/>
      <point x="137" y="412" type="curve"/>
      <point x="132" y="415" type="line"/>
      <point x="126" y="402"/>
      <point x="124" y="389"/>
      <point x="124" y="379" type="curve" smooth="yes"/>
      <point x="124" y="302"/>
      <point x="173" y="261"/>
      <point x="240" y="261" type="curve" smooth="yes"/>
      <point x="316" y="261"/>
      <point x="361" y="311"/>
      <point x="361" y="381" type="curve" smooth="yes"/>
      <point x="361" y="446"/>
      <point x="319" y="500"/>
      <point x="236" y="500" type="curve" smooth="yes"/>
      <point x="117" y="500"/>
      <point x="35" y="404"/>
      <point x="35" y="267" type="curve" smooth="yes"/>
      <point x="35" y="75"/>
      <point x="163" y="-12"/>
    </contour>
    <contour>
      <point x="302" y="371" type="curve" smooth="yes"/>
      <point x="302" y="329"/>
      <point x="276" y="304"/>
      <point x="241" y="304" type="curve" smooth="yes"/>
      <point x="207" y="304"/>
      <point x="176" y="322"/>
      <point x="176" y="371" type="curve" smooth="yes"/>
      <point x="176" y="416"/>
      <point x="205" y="438"/>
      <point x="237" y="438" type="curve" smooth="yes"/>
      <point x="276" y="438"/>
      <point x="302" y="413"/>
    </contour>
  </outline>
</glyph>
<glyph name="llatelu" format="2">
  <advance width="622"/>
  <unicode hex="0C33"/>
  <outline>
    <contour>
      <point x="402" y="494" type="curve"/>
      <point x="387" y="490" type="line"/>
      <point x="357" y="455" type="line"/>
      <point x="374" y="455" type="line" smooth="yes"/>
      <point x="486" y="455"/>
      <point x="537" y="415"/>
      <point x="537" y="344" type="curve" smooth="yes"/>
      <point x="537" y="276"/>
      <point x="470" y="221"/>
      <point x="352" y="205" type="curve"/>
      <point x="383" y="205" type="line"/>
      <point x="363" y="210"/>
      <point x="334" y="214"/>
      <point x="282" y="215" type="curve" smooth="yes"/>
      <point x="159" y="217"/>
      <point x="74" y="242"/>
      <point x="74" y="332" type="curve" smooth="yes"/>
      <point x="74" y="379"/>
      <point x="96" y="411"/>
      <point x="137" y="429" type="curve"/>
      <point x="126" y="435" type="line"/>
      <point x="107" y="415"/>
      <point x="99" y="395"/>
      <point x="99" y="364" type="curve" smooth="yes"/>
      <point x="99" y="300"/>
      <point x="143" y="266"/>
      <point x="206" y="266" type="curve" smooth="yes"/>
      <point x="278" y="266"/>
      <point x="320" y="308"/>
      <point x="320" y="372" type="curve" smooth="yes"/>
      <point x="320" y="431"/>
      <point x="279" y="482"/>
      <point x="198" y="482" type="curve" smooth="yes"/>
      <point x="114" y="482"/>
      <point x="31" y="430"/>
      <point x="31" y="320" type="curve" smooth="yes"/>
      <point x="31" y="211"/>
      <point x="118" y="163"/>
      <point x="220" y="153" type="curve"/>
      <point x="226" y="180" type="line"/>
      <point x="189" y="169"/>
      <point x="159" y="144"/>
      <point x="159" y="95" type="curve" smooth="yes"/>
      <point x="159" y="30"/>
      <point x="210" y="-12"/>
      <point x="310" y="-12" type="curve" smooth="yes"/>
      <point x="402" y="-12"/>
      <point x="455" y="26"/>
      <point x="455" y="104" type="curve" smooth="yes"/>
      <point x="455" y="147"/>
      <point x="436" y="178"/>
      <point x="393" y="196" type="curve"/>
      <point x="418" y="167" type="line"/>
      <point x="525" y="200"/>
      <point x="595" y="261"/>
      <point x="595" y="344" type="curve" smooth="yes"/>
      <point x="595" y="426"/>
      <point x="537" y="491"/>
    </contour>
    <contour>
      <point x="206" y="424" type="curve" smooth="yes"/>
      <point x="238" y="424"/>
      <point x="261" y="402"/>
      <point x="261" y="366" type="curve" smooth="yes"/>
      <point x="261" y="333"/>
      <point x="244" y="309"/>
      <point x="204" y="309" type="curve" smooth="yes"/>
      <point x="172" y="309"/>
      <point x="149" y="327"/>
      <point x="149" y="366" type="curve" smooth="yes"/>
      <point x="149" y="404"/>
      <point x="174" y="424"/>
    </contour>
    <contour>
      <point x="307" y="85" type="curve" smooth="yes"/>
      <point x="245" y="85"/>
      <point x="218" y="102"/>
      <point x="218" y="128" type="curve" smooth="yes"/>
      <point x="218" y="154"/>
      <point x="240" y="170"/>
      <point x="309" y="170" type="curve" smooth="yes"/>
      <point x="371" y="170"/>
      <point x="399" y="158"/>
      <point x="399" y="128" type="curve" smooth="yes"/>
      <point x="399" y="96"/>
      <point x="365" y="85"/>
    </contour>
    <component base="hattelu" xOffset="241"/>
  </outline>
</glyph>
<glyph name="lllatelu" format="2">
  <advance width="773"/>
  <unicode hex="0C34"/>
  <outline>
    <contour>
      <point x="237" y="438" type="curve" smooth="yes"/>
      <point x="275" y="438"/>
      <point x="302" y="412"/>
      <point x="302" y="371" type="curve" smooth="yes"/>
      <point x="302" y="329"/>
      <point x="275" y="304"/>
      <point x="241" y="304" type="curve" smooth="yes"/>
      <point x="207" y="304"/>
      <point x="176" y="322"/>
      <point x="176" y="371" type="curve" smooth="yes"/>
      <point x="176" y="417"/>
      <point x="206" y="438"/>
    </contour>
    <contour>
      <point x="369" y="147" type="line"/>
      <point x="396" y="52"/>
      <point x="444" y="-12"/>
      <point x="551" y="-12" type="curve" smooth="yes"/>
      <point x="664" y="-12"/>
      <point x="734" y="71"/>
      <point x="734" y="234" type="curve" smooth="yes"/>
      <point x="734" y="437"/>
      <point x="622" y="500"/>
      <point x="544" y="500" type="curve" smooth="yes"/>
      <point x="458" y="500"/>
      <point x="412" y="447"/>
      <point x="412" y="381" type="curve" smooth="yes"/>
      <point x="412" y="311"/>
      <point x="457" y="261"/>
      <point x="532" y="261" type="curve" smooth="yes"/>
      <point x="601" y="261"/>
      <point x="649" y="302"/>
      <point x="649" y="379" type="curve" smooth="yes"/>
      <point x="649" y="389"/>
      <point x="647" y="402"/>
      <point x="641" y="415" type="curve"/>
      <point x="631" y="411" type="line"/>
      <point x="671" y="367"/>
      <point x="687" y="318"/>
      <point x="687" y="255" type="curve" smooth="yes"/>
      <point x="687" y="142"/>
      <point x="620" y="98"/>
      <point x="545" y="98" type="curve" smooth="yes"/>
      <point x="467" y="98"/>
      <point x="424" y="130"/>
      <point x="402" y="205" type="curve"/>
      <point x="371" y="205" type="line"/>
      <point x="349" y="130"/>
      <point x="306" y="98"/>
      <point x="228" y="98" type="curve" smooth="yes"/>
      <point x="153" y="98"/>
      <point x="86" y="142"/>
      <point x="86" y="255" type="curve" smooth="yes"/>
      <point x="86" y="318"/>
      <point x="102" y="367"/>
      <point x="142" y="411" type="curve"/>
      <point x="132" y="415" type="line"/>
      <point x="126" y="402"/>
      <point x="124" y="389"/>
      <point x="124" y="379" type="curve" smooth="yes"/>
      <point x="124" y="302"/>
      <point x="172" y="261"/>
      <point x="241" y="261" type="curve" smooth="yes"/>
      <point x="316" y="261"/>
      <point x="361" y="311"/>
      <point x="361" y="381" type="curve" smooth="yes"/>
      <point x="361" y="447"/>
      <point x="320" y="500"/>
      <point x="234" y="500" type="curve" smooth="yes"/>
      <point x="156" y="500"/>
      <point x="39" y="430"/>
      <point x="39" y="231" type="curve" smooth="yes"/>
      <point x="39" y="71"/>
      <point x="109" y="-12"/>
      <point x="222" y="-12" type="curve" smooth="yes"/>
      <point x="329" y="-12"/>
      <point x="377" y="52"/>
      <point x="404" y="147" type="curve"/>
    </contour>
    <contour>
      <point x="536" y="438" type="curve" smooth="yes"/>
      <point x="567" y="438"/>
      <point x="597" y="417"/>
      <point x="597" y="371" type="curve" smooth="yes"/>
      <point x="597" y="322"/>
      <point x="566" y="304"/>
      <point x="532" y="304" type="curve" smooth="yes"/>
      <point x="498" y="304"/>
      <point x="471" y="329"/>
      <point x="471" y="371" type="curve" smooth="yes"/>
      <point x="471" y="412"/>
      <point x="498" y="438"/>
    </contour>
  </outline>
</glyph>
<glyph name="shatelu" format="2">
  <advance width="529"/>
  <unicode hex="0C36"/>
  <outline>
    <contour>
      <point x="334" y="-12" type="curve" smooth="yes"/>
      <point x="430" y="-12"/>
      <point x="497" y="45"/>
      <point x="497" y="156" type="curve" smooth="yes"/>
      <point x="497" y="304"/>
      <point x="385" y="378"/>
      <point x="230" y="378" type="curve" smooth="yes"/>
      <point x="101" y="378"/>
      <point x="31" y="317"/>
      <point x="31" y="226" type="curve" smooth="yes"/>
      <point x="31" y="205"/>
      <point x="36" y="165"/>
      <point x="44" y="142" type="curve"/>
      <point x="132" y="148" type="line"/>
      <point x="118" y="178"/>
      <point x="112" y="208"/>
      <point x="112" y="237" type="curve" smooth="yes"/>
      <point x="112" y="304"/>
      <point x="165" y="333"/>
      <point x="240" y="333" type="curve" smooth="yes"/>
      <point x="355" y="333"/>
      <point x="437" y="290"/>
      <point x="437" y="185" type="curve" smooth="yes"/>
      <point x="437" y="125"/>
      <point x="394" y="96"/>
      <point x="339" y="96" type="curve" smooth="yes"/>
      <point x="285" y="96"/>
      <point x="260" y="117"/>
      <point x="260" y="152" type="curve" smooth="yes"/>
      <point x="260" y="191"/>
      <point x="285" y="213"/>
      <point x="358" y="259" type="curve" smooth="yes"/>
      <point x="414" y="294"/>
      <point x="476" y="341"/>
      <point x="476" y="400" type="curve" smooth="yes"/>
      <point x="476" y="455"/>
      <point x="438" y="496"/>
      <point x="327" y="496" type="curve"/>
      <point x="265" y="455" type="line"/>
      <point x="313" y="455" type="line" smooth="yes"/>
      <point x="384" y="455"/>
      <point x="420" y="439"/>
      <point x="420" y="394" type="curve" smooth="yes"/>
      <point x="420" y="353"/>
      <point x="380" y="325"/>
      <point x="318" y="286" type="curve" smooth="yes"/>
      <point x="246" y="241"/>
      <point x="192" y="194"/>
      <point x="192" y="121" type="curve" smooth="yes"/>
      <point x="192" y="33"/>
      <point x="253" y="-12"/>
    </contour>
    <component base="hattelu" xOffset="147"/>
  </outline>
</glyph>
<glyph name="avagrahatelu" format="2">
  <advance width="558"/>
  <unicode hex="0C3D"/>
  <outline>
    <contour>
      <point x="110" y="155" type="curve" smooth="yes"/>
      <point x="110" y="182"/>
      <point x="125" y="207"/>
      <point x="206" y="242" type="curve" smooth="yes"/>
      <point x="293" y="280"/>
      <point x="331" y="319"/>
      <point x="331" y="385" type="curve" smooth="yes"/>
      <point x="331" y="446"/>
      <point x="286" y="500"/>
      <point x="190" y="500" type="curve" smooth="yes"/>
      <point x="95" y="500"/>
      <point x="33" y="449"/>
      <point x="33" y="370" type="curve" smooth="yes"/>
      <point x="33" y="345"/>
      <point x="36" y="322"/>
      <point x="43" y="296" type="curve"/>
      <point x="125" y="305" type="line"/>
      <point x="114" y="330"/>
      <point x="110" y="353"/>
      <point x="110" y="376" type="curve" smooth="yes"/>
      <point x="110" y="425"/>
      <point x="139" y="454"/>
      <point x="192" y="454" type="curve" smooth="yes"/>
      <point x="239" y="454"/>
      <point x="274" y="430"/>
      <point x="274" y="381" type="curve" smooth="yes"/>
      <point x="274" y="338"/>
      <point x="248" y="309"/>
      <point x="178" y="281" type="curve" smooth="yes"/>
      <point x="89" y="245"/>
      <point x="42" y="199"/>
      <point x="42" y="129" type="curve" smooth="yes"/>
      <point x="42" y="35"/>
      <point x="102" y="0"/>
      <point x="203" y="0" type="curve"/>
      <point x="532" y="0" type="line"/>
      <point x="541" y="104" type="line"/>
      <point x="192" y="104" type="line" smooth="yes"/>
      <point x="134" y="104"/>
      <point x="110" y="117"/>
    </contour>
  </outline>
</glyph>
<glyph name="aavowelsigntelu" format="2">
  <advance width="219"/>
  <unicode hex="0C3E"/>
  <outline>
    <contour>
      <point x="3" y="526" type="curve" smooth="yes"/>
      <point x="-514" y="526" type="line"/>
      <point x="-521" y="452" type="line"/>
      <point x="-19" y="452" type="line"/>
      <point x="-15" y="470" type="line"/>
      <point x="-33" y="451"/>
      <point x="-42" y="420"/>
      <point x="-42" y="394" type="curve" smooth="yes"/>
      <point x="-42" y="328"/>
      <point x="4" y="282"/>
      <point x="77" y="282" type="curve" smooth="yes"/>
      <point x="153" y="282"/>
      <point x="198" y="332"/>
      <point x="198" y="402" type="curve" smooth="yes"/>
      <point x="198" y="441"/>
      <point x="180" y="476"/>
      <point x="149" y="497" type="curve" smooth="yes"/>
      <point x="117" y="518"/>
      <point x="79" y="526"/>
    </contour>
    <contour>
      <point x="139" y="392" type="curve" smooth="yes"/>
      <point x="139" y="350"/>
      <point x="113" y="325"/>
      <point x="78" y="325" type="curve" smooth="yes"/>
      <point x="43" y="325"/>
      <point x="13" y="343"/>
      <point x="13" y="392" type="curve" smooth="yes"/>
      <point x="13" y="436"/>
      <point x="41" y="457"/>
      <point x="74" y="457" type="curve" smooth="yes"/>
      <point x="115" y="457"/>
      <point x="139" y="434"/>
    </contour>
  </outline>
</glyph>
<glyph name="ivowelsigntelu" format="2">
  <unicode hex="0C3F"/>
  <outline>
    <contour>
      <point x="-214" y="570" type="curve"/>
      <point x="-223" y="611" type="line"/>
      <point x="-238" y="605"/>
      <point x="-259" y="598"/>
      <point x="-299" y="598" type="curve" smooth="yes"/>
      <point x="-347" y="598"/>
      <point x="-362" y="615"/>
      <point x="-362" y="644" type="curve" smooth="yes"/>
      <point x="-362" y="675"/>
      <point x="-334" y="694"/>
      <point x="-291" y="694" type="curve" smooth="yes"/>
      <point x="-220" y="694"/>
      <point x="-185" y="657"/>
      <point x="-185" y="593" type="curve" smooth="yes"/>
      <point x="-185" y="540"/>
      <point x="-215" y="500"/>
      <point x="-291" y="500" type="curve" smooth="yes"/>
      <point x="-339" y="500"/>
      <point x="-378" y="517"/>
      <point x="-407" y="540" type="curve"/>
      <point x="-434" y="495" type="line"/>
      <point x="-386" y="461"/>
      <point x="-326" y="455"/>
      <point x="-291" y="455" type="curve" smooth="yes"/>
      <point x="-161" y="455"/>
      <point x="-132" y="544"/>
      <point x="-132" y="601" type="curve" smooth="yes"/>
      <point x="-132" y="688"/>
      <point x="-185" y="760"/>
      <point x="-287" y="760" type="curve" smooth="yes"/>
      <point x="-367" y="760"/>
      <point x="-420" y="716"/>
      <point x="-420" y="655" type="curve" smooth="yes"/>
      <point x="-420" y="584"/>
      <point x="-366" y="555"/>
      <point x="-301" y="555" type="curve" smooth="yes"/>
      <point x="-266" y="555"/>
      <point x="-235" y="560"/>
    </contour>
  </outline>
</glyph>
<glyph name="iivowelsigntelu" format="2">
  <unicode hex="0C40"/>
  <outline>
    <contour>
      <point x="-214" y="568" type="curve"/>
      <point x="-223" y="609" type="line"/>
      <point x="-238" y="603"/>
      <point x="-259" y="596"/>
      <point x="-299" y="596" type="curve" smooth="yes"/>
      <point x="-347" y="596"/>
      <point x="-362" y="615"/>
      <point x="-362" y="643" type="curve" smooth="yes"/>
      <point x="-362" y="671"/>
      <point x="-336" y="689"/>
      <point x="-291" y="689" type="curve" smooth="yes"/>
      <point x="-219" y="689"/>
      <point x="-185" y="651"/>
      <point x="-185" y="590" type="curve" smooth="yes"/>
      <point x="-185" y="539"/>
      <point x="-216" y="500"/>
      <point x="-291" y="500" type="curve" smooth="yes"/>
      <point x="-339" y="500"/>
      <point x="-378" y="517"/>
      <point x="-407" y="540" type="curve"/>
      <point x="-434" y="495" type="line"/>
      <point x="-386" y="461"/>
      <point x="-326" y="455"/>
      <point x="-291" y="455" type="curve" smooth="yes"/>
      <point x="-162" y="455"/>
      <point x="-132" y="540"/>
      <point x="-132" y="596" type="curve" smooth="yes"/>
      <point x="-132" y="680"/>
      <point x="-185" y="747"/>
      <point x="-287" y="747" type="curve" smooth="yes"/>
      <point x="-366" y="747"/>
      <point x="-420" y="708"/>
      <point x="-420" y="649" type="curve" smooth="yes"/>
      <point x="-420" y="582"/>
      <point x="-366" y="553"/>
      <point x="-301" y="553" type="curve" smooth="yes"/>
      <point x="-266" y="553"/>
      <point x="-235" y="558"/>
    </contour>
    <contour>
      <point x="-291" y="869" type="curve" smooth="yes"/>
      <point x="-362" y="869"/>
      <point x="-410" y="831"/>
      <point x="-410" y="768" type="curve" smooth="yes"/>
      <point x="-410" y="736"/>
      <point x="-395" y="706"/>
      <point x="-374" y="687" type="curve"/>
      <point x="-328" y="698" type="line"/>
      <point x="-349" y="710"/>
      <point x="-364" y="728"/>
      <point x="-364" y="755" type="curve" smooth="yes"/>
      <point x="-364" y="785"/>
      <point x="-341" y="811"/>
      <point x="-288" y="811" type="curve" smooth="yes"/>
      <point x="-226" y="811"/>
      <point x="-201" y="777"/>
      <point x="-193" y="741" type="curve"/>
      <point x="-150" y="745" type="line"/>
      <point x="-155" y="800"/>
      <point x="-191" y="869"/>
    </contour>
  </outline>
</glyph>
<glyph name="uvowelsigntelu" format="2">
  <advance width="318"/>
  <unicode hex="0C41"/>
  <outline>
    <contour>
      <point x="128" y="-12" type="curve" smooth="yes"/>
      <point x="233" y="-12"/>
      <point x="283" y="82"/>
      <point x="283" y="215" type="curve" smooth="yes"/>
      <point x="283" y="375"/>
      <point x="190" y="499"/>
      <point x="12" y="504" type="curve"/>
      <point x="9" y="422" type="line"/>
      <point x="163" y="416"/>
      <point x="238" y="339"/>
      <point x="238" y="231" type="curve" smooth="yes"/>
      <point x="238" y="144"/>
      <point x="196" y="98"/>
      <point x="115" y="98" type="curve" smooth="yes"/>
      <point x="48" y="98"/>
      <point x="5" y="129"/>
      <point x="-43" y="202" type="curve"/>
      <point x="-73" y="192" type="line"/>
      <point x="-25" y="50"/>
      <point x="33" y="-12"/>
    </contour>
  </outline>
</glyph>
<glyph name="uuvowelsigntelu" format="2">
  <advance width="600"/>
  <unicode hex="0C42"/>
  <outline>
    <contour>
      <point x="126" y="-12" type="curve" smooth="yes"/>
      <point x="235" y="-12"/>
      <point x="285" y="75"/>
      <point x="285" y="200" type="curve" smooth="yes"/>
      <point x="285" y="330"/>
      <point x="217" y="414"/>
      <point x="144" y="444" type="curve"/>
      <point x="93" y="453" type="line"/>
      <point x="3" y="432" type="line"/>
      <point x="153" y="419"/>
      <point x="238" y="339"/>
      <point x="238" y="219" type="curve" smooth="yes"/>
      <point x="238" y="144"/>
      <point x="196" y="98"/>
      <point x="115" y="98" type="curve" smooth="yes"/>
      <point x="48" y="98"/>
      <point x="5" y="129"/>
      <point x="-43" y="202" type="curve"/>
      <point x="-73" y="192" type="line"/>
      <point x="-25" y="50"/>
      <point x="33" y="-12"/>
    </contour>
    <contour>
      <point x="388" y="500" type="curve" smooth="yes"/>
      <point x="9" y="500" type="line"/>
      <point x="-2" y="428" type="line"/>
      <point x="121" y="428" type="line"/>
      <point x="142" y="434" type="line"/>
      <point x="185" y="430"/>
      <point x="217" y="428"/>
      <point x="260" y="428" type="curve" smooth="yes"/>
      <point x="366" y="428" type="line"/>
      <point x="370" y="444" type="line"/>
      <point x="352" y="425"/>
      <point x="343" y="394"/>
      <point x="343" y="368" type="curve" smooth="yes"/>
      <point x="343" y="302"/>
      <point x="389" y="256"/>
      <point x="462" y="256" type="curve" smooth="yes"/>
      <point x="538" y="256"/>
      <point x="583" y="306"/>
      <point x="583" y="376" type="curve" smooth="yes"/>
      <point x="583" y="415"/>
      <point x="565" y="450"/>
      <point x="534" y="471" type="curve" smooth="yes"/>
      <point x="502" y="492"/>
      <point x="464" y="500"/>
    </contour>
    <contour>
      <point x="524" y="366" type="curve" smooth="yes"/>
      <point x="524" y="324"/>
      <point x="498" y="299"/>
      <point x="463" y="299" type="curve" smooth="yes"/>
      <point x="428" y="299"/>
      <point x="398" y="317"/>
      <point x="398" y="366" type="curve" smooth="yes"/>
      <point x="398" y="411"/>
      <point x="424" y="431"/>
      <point x="459" y="431" type="curve" smooth="yes"/>
      <point x="500" y="431"/>
      <point x="524" y="408"/>
    </contour>
  </outline>
</glyph>
<glyph name="rvocalicvowelsigntelu" format="2">
  <advance width="358"/>
  <unicode hex="0C43"/>
  <outline>
    <contour>
      <point x="17" y="502" type="curve"/>
      <point x="-24" y="442" type="line"/>
      <point x="151" y="362"/>
      <point x="301" y="196"/>
      <point x="301" y="-44" type="curve" smooth="yes"/>
      <point x="301" y="-220"/>
      <point x="227" y="-304"/>
      <point x="87" y="-304" type="curve" smooth="yes"/>
      <point x="-2" y="-304"/>
      <point x="-71" y="-269"/>
      <point x="-71" y="-184" type="curve" smooth="yes"/>
      <point x="-71" y="-146"/>
      <point x="-58" y="-113"/>
      <point x="-31" y="-86" type="curve"/>
      <point x="-26" y="-69" type="line"/>
      <point x="-48" y="-99"/>
      <point x="-52" y="-123"/>
      <point x="-52" y="-146" type="curve" smooth="yes"/>
      <point x="-52" y="-210"/>
      <point x="-11" y="-249"/>
      <point x="62" y="-249" type="curve" smooth="yes"/>
      <point x="127" y="-249"/>
      <point x="172" y="-208"/>
      <point x="172" y="-143" type="curve" smooth="yes"/>
      <point x="172" y="-81"/>
      <point x="135" y="-27"/>
      <point x="48" y="-27" type="curve" smooth="yes"/>
      <point x="-43" y="-27"/>
      <point x="-117" y="-90"/>
      <point x="-117" y="-199" type="curve" smooth="yes"/>
      <point x="-117" y="-328"/>
      <point x="-29" y="-385"/>
      <point x="88" y="-385" type="curve" smooth="yes"/>
      <point x="271" y="-385"/>
      <point x="347" y="-254"/>
      <point x="347" y="-51" type="curve" smooth="yes"/>
      <point x="347" y="230"/>
      <point x="186" y="422"/>
    </contour>
    <contour>
      <point x="54" y="-84" type="curve" smooth="yes"/>
      <point x="91" y="-84"/>
      <point x="113" y="-108"/>
      <point x="113" y="-143" type="curve" smooth="yes"/>
      <point x="113" y="-181"/>
      <point x="92" y="-206"/>
      <point x="57" y="-206" type="curve" smooth="yes"/>
      <point x="21" y="-206"/>
      <point x="-2" y="-184"/>
      <point x="-2" y="-146" type="curve" smooth="yes"/>
      <point x="-2" y="-104"/>
      <point x="23" y="-84"/>
    </contour>
  </outline>
</glyph>
<glyph name="rrvocalicvowelsigntelu" format="2">
  <advance width="577"/>
  <unicode hex="0C44"/>
  <outline>
    <contour>
      <point x="26" y="481" type="curve"/>
      <point x="-19" y="442" type="line"/>
      <point x="153" y="358"/>
      <point x="301" y="196"/>
      <point x="301" y="-44" type="curve" smooth="yes"/>
      <point x="301" y="-221"/>
      <point x="227" y="-305"/>
      <point x="87" y="-305" type="curve" smooth="yes"/>
      <point x="-2" y="-305"/>
      <point x="-71" y="-270"/>
      <point x="-71" y="-184" type="curve" smooth="yes"/>
      <point x="-71" y="-146"/>
      <point x="-58" y="-113"/>
      <point x="-31" y="-86" type="curve"/>
      <point x="-26" y="-69" type="line"/>
      <point x="-48" y="-99"/>
      <point x="-52" y="-123"/>
      <point x="-52" y="-146" type="curve" smooth="yes"/>
      <point x="-52" y="-210"/>
      <point x="-11" y="-249"/>
      <point x="62" y="-249" type="curve" smooth="yes"/>
      <point x="127" y="-249"/>
      <point x="172" y="-208"/>
      <point x="172" y="-143" type="curve" smooth="yes"/>
      <point x="172" y="-81"/>
      <point x="135" y="-27"/>
      <point x="48" y="-27" type="curve" smooth="yes"/>
      <point x="-43" y="-27"/>
      <point x="-117" y="-90"/>
      <point x="-117" y="-199" type="curve" smooth="yes"/>
      <point x="-117" y="-329"/>
      <point x="-29" y="-386"/>
      <point x="88" y="-386" type="curve" smooth="yes"/>
      <point x="271" y="-386"/>
      <point x="347" y="-255"/>
      <point x="347" y="-51" type="curve" smooth="yes"/>
      <point x="347" y="216"/>
      <point x="210" y="383"/>
    </contour>
    <contour>
      <point x="54" y="-84" type="curve" smooth="yes"/>
      <point x="91" y="-84"/>
      <point x="113" y="-108"/>
      <point x="113" y="-143" type="curve" smooth="yes"/>
      <point x="113" y="-181"/>
      <point x="92" y="-206"/>
      <point x="57" y="-206" type="curve" smooth="yes"/>
      <point x="21" y="-206"/>
      <point x="-2" y="-184"/>
      <point x="-2" y="-146" type="curve" smooth="yes"/>
      <point x="-2" y="-104"/>
      <point x="23" y="-84"/>
    </contour>
    <contour>
      <point x="365" y="502" type="curve" smooth="yes"/>
      <point x="5" y="502" type="line"/>
      <point x="-19" y="442" type="line"/>
      <point x="78" y="433" type="line"/>
      <point x="89" y="436" type="line"/>
      <point x="132" y="432"/>
      <point x="180" y="430"/>
      <point x="229" y="430" type="curve" smooth="yes"/>
      <point x="343" y="430" type="line"/>
      <point x="347" y="446" type="line"/>
      <point x="329" y="427"/>
      <point x="320" y="396"/>
      <point x="320" y="370" type="curve" smooth="yes"/>
      <point x="320" y="304"/>
      <point x="366" y="258"/>
      <point x="439" y="258" type="curve" smooth="yes"/>
      <point x="515" y="258"/>
      <point x="560" y="308"/>
      <point x="560" y="378" type="curve" smooth="yes"/>
      <point x="560" y="417"/>
      <point x="542" y="452"/>
      <point x="511" y="473" type="curve" smooth="yes"/>
      <point x="479" y="494"/>
      <point x="441" y="502"/>
    </contour>
    <contour>
      <point x="501" y="368" type="curve" smooth="yes"/>
      <point x="501" y="326"/>
      <point x="475" y="301"/>
      <point x="440" y="301" type="curve" smooth="yes"/>
      <point x="405" y="301"/>
      <point x="375" y="319"/>
      <point x="375" y="368" type="curve" smooth="yes"/>
      <point x="375" y="413"/>
      <point x="401" y="433"/>
      <point x="436" y="433" type="curve" smooth="yes"/>
      <point x="477" y="433"/>
      <point x="501" y="410"/>
    </contour>
  </outline>
</glyph>
<glyph name="eevowelsigntelu" format="2">
  <unicode hex="0C47"/>
  <outline>
    <contour>
      <point x="-532" y="605" type="line"/>
      <point x="-211" y="605" type="line" smooth="yes"/>
      <point x="-149" y="605"/>
      <point x="-99" y="601"/>
      <point x="-99" y="550" type="curve" smooth="yes"/>
      <point x="-99" y="507"/>
      <point x="-137" y="500"/>
      <point x="-198" y="500" type="curve" smooth="yes"/>
      <point x="-290" y="500" type="line"/>
      <point x="-290" y="455" type="line"/>
      <point x="-200" y="455" type="line" smooth="yes"/>
      <point x="-104" y="455"/>
      <point x="-45" y="484"/>
      <point x="-45" y="564" type="curve" smooth="yes"/>
      <point x="-45" y="608"/>
      <point x="-64" y="636"/>
      <point x="-93" y="654" type="curve" smooth="yes"/>
      <point x="-127" y="675"/>
      <point x="-169" y="679"/>
      <point x="-238" y="679" type="curve" smooth="yes"/>
      <point x="-525" y="679" type="line"/>
    </contour>
    <contour>
      <point x="-153" y="823" type="curve" smooth="yes"/>
      <point x="-225" y="823"/>
      <point x="-271" y="785"/>
      <point x="-271" y="726" type="curve" smooth="yes"/>
      <point x="-271" y="698"/>
      <point x="-257" y="665"/>
      <point x="-234" y="646" type="curve"/>
      <point x="-183" y="657" type="line"/>
      <point x="-206" y="669"/>
      <point x="-220" y="686"/>
      <point x="-220" y="712" type="curve" smooth="yes"/>
      <point x="-220" y="742"/>
      <point x="-198" y="765"/>
      <point x="-153" y="765" type="curve" smooth="yes"/>
      <point x="-99" y="765"/>
      <point x="-74" y="734"/>
      <point x="-66" y="683" type="curve"/>
      <point x="-23" y="687" type="line"/>
      <point x="-26" y="764"/>
      <point x="-65" y="823"/>
    </contour>
  </outline>
</glyph>
<glyph name="ovowelsigntelu" format="2">
  <advance width="174"/>
  <unicode hex="0C4A"/>
  <outline>
    <contour>
      <point x="75" y="459" type="curve" smooth="yes"/>
      <point x="149" y="459"/>
      <point x="194" y="505"/>
      <point x="194" y="576" type="curve" smooth="yes"/>
      <point x="194" y="615"/>
      <point x="176" y="649"/>
      <point x="145" y="670" type="curve" smooth="yes"/>
      <point x="113" y="691"/>
      <point x="75" y="699"/>
      <point x="-1" y="699" type="curve" smooth="yes"/>
      <point x="-38" y="699" type="line" smooth="yes"/>
      <point x="-130" y="699"/>
      <point x="-180" y="658"/>
      <point x="-197" y="591" type="curve"/>
      <point x="-182" y="591" type="line"/>
      <point x="-201" y="655"/>
      <point x="-243" y="703"/>
      <point x="-321" y="703" type="curve" smooth="yes"/>
      <point x="-328" y="703" type="line" smooth="yes"/>
      <point x="-402" y="703"/>
      <point x="-461" y="659"/>
      <point x="-461" y="583" type="curve" smooth="yes"/>
      <point x="-461" y="513"/>
      <point x="-419" y="455"/>
      <point x="-300" y="455" type="curve" smooth="yes"/>
      <point x="-276" y="455" type="line"/>
      <point x="-276" y="500" type="line"/>
      <point x="-306" y="500" type="line" smooth="yes"/>
      <point x="-358" y="500"/>
      <point x="-402" y="510"/>
      <point x="-402" y="565" type="curve" smooth="yes"/>
      <point x="-402" y="602"/>
      <point x="-373" y="629"/>
      <point x="-321" y="629" type="curve" smooth="yes"/>
      <point x="-314" y="629" type="line" smooth="yes"/>
      <point x="-251" y="629"/>
      <point x="-219" y="584"/>
      <point x="-205" y="530" type="curve"/>
      <point x="-174" y="530" type="line"/>
      <point x="-162" y="588"/>
      <point x="-137" y="625"/>
      <point x="-63" y="625" type="curve" smooth="yes"/>
      <point x="-14" y="625" type="line"/>
      <point x="-15" y="643" type="line"/>
      <point x="-33" y="624"/>
      <point x="-42" y="593"/>
      <point x="-42" y="570" type="curve" smooth="yes"/>
      <point x="-42" y="501"/>
      <point x="4" y="459"/>
    </contour>
    <contour>
      <point x="76" y="502" type="curve" smooth="yes"/>
      <point x="43" y="502"/>
      <point x="13" y="516"/>
      <point x="13" y="567" type="curve" smooth="yes"/>
      <point x="13" y="609"/>
      <point x="41" y="630"/>
      <point x="72" y="630" type="curve" smooth="yes"/>
      <point x="111" y="630"/>
      <point x="135" y="607"/>
      <point x="135" y="567" type="curve" smooth="yes"/>
      <point x="135" y="523"/>
      <point x="109" y="502"/>
    </contour>
  </outline>
</glyph>
<glyph name="oovowelsigntelu" format="2">
  <advance width="174"/>
  <unicode hex="0C4B"/>
  <outline>
    <contour>
      <point x="75" y="459" type="curve" smooth="yes"/>
      <point x="149" y="459"/>
      <point x="194" y="505"/>
      <point x="194" y="576" type="curve" smooth="yes"/>
      <point x="194" y="614"/>
      <point x="176" y="649"/>
      <point x="145" y="669" type="curve" smooth="yes"/>
      <point x="113" y="690"/>
      <point x="75" y="697"/>
      <point x="-1" y="697" type="curve" smooth="yes"/>
      <point x="-38" y="697" type="line" smooth="yes"/>
      <point x="-130" y="697"/>
      <point x="-180" y="658"/>
      <point x="-197" y="591" type="curve"/>
      <point x="-182" y="591" type="line"/>
      <point x="-201" y="655"/>
      <point x="-243" y="703"/>
      <point x="-321" y="703" type="curve" smooth="yes"/>
      <point x="-328" y="703" type="line" smooth="yes"/>
      <point x="-402" y="703"/>
      <point x="-461" y="659"/>
      <point x="-461" y="583" type="curve" smooth="yes"/>
      <point x="-461" y="513"/>
      <point x="-419" y="455"/>
      <point x="-300" y="455" type="curve" smooth="yes"/>
      <point x="-276" y="455" type="line"/>
      <point x="-276" y="500" type="line"/>
      <point x="-306" y="500" type="line" smooth="yes"/>
      <point x="-358" y="500"/>
      <point x="-402" y="510"/>
      <point x="-402" y="565" type="curve" smooth="yes"/>
      <point x="-402" y="602"/>
      <point x="-373" y="629"/>
      <point x="-321" y="629" type="curve" smooth="yes"/>
      <point x="-314" y="629" type="line" smooth="yes"/>
      <point x="-251" y="629"/>
      <point x="-219" y="584"/>
      <point x="-205" y="530" type="curve"/>
      <point x="-174" y="530" type="line"/>
      <point x="-162" y="588"/>
      <point x="-137" y="625"/>
      <point x="-63" y="625" type="curve" smooth="yes"/>
      <point x="-14" y="625" type="line"/>
      <point x="-14" y="643" type="line"/>
      <point x="-32" y="624"/>
      <point x="-41" y="593"/>
      <point x="-41" y="570" type="curve" smooth="yes"/>
      <point x="-41" y="501"/>
      <point x="5" y="459"/>
    </contour>
    <contour>
      <point x="76" y="502" type="curve" smooth="yes"/>
      <point x="43" y="502"/>
      <point x="13" y="516"/>
      <point x="13" y="567" type="curve" smooth="yes"/>
      <point x="13" y="609"/>
      <point x="41" y="630"/>
      <point x="72" y="630" type="curve" smooth="yes"/>
      <point x="111" y="630"/>
      <point x="135" y="607"/>
      <point x="135" y="567" type="curve" smooth="yes"/>
      <point x="135" y="523"/>
      <point x="109" y="502"/>
    </contour>
    <contour>
      <point x="75" y="832" type="curve" smooth="yes"/>
      <point x="7" y="832"/>
      <point x="-38" y="794"/>
      <point x="-38" y="735" type="curve" smooth="yes"/>
      <point x="-38" y="707"/>
      <point x="-23" y="674"/>
      <point x="0" y="655" type="curve"/>
      <point x="45" y="666" type="line"/>
      <point x="22" y="678"/>
      <point x="8" y="695"/>
      <point x="8" y="721" type="curve" smooth="yes"/>
      <point x="8" y="751"/>
      <point x="30" y="774"/>
      <point x="76" y="774" type="curve" smooth="yes"/>
      <point x="130" y="774"/>
      <point x="154" y="743"/>
      <point x="161" y="696" type="curve"/>
      <point x="203" y="697" type="line"/>
      <point x="200" y="773"/>
      <point x="164" y="832"/>
    </contour>
  </outline>
</glyph>
<glyph name="auvowelsigntelu" format="2">
  <advance width="184"/>
  <unicode hex="0C4C"/>
  <outline>
    <contour>
      <point x="-370" y="605" type="line"/>
      <point x="-268" y="605" type="line" smooth="yes"/>
      <point x="-221" y="605"/>
      <point x="-177" y="598"/>
      <point x="-177" y="551" type="curve" smooth="yes"/>
      <point x="-177" y="507"/>
      <point x="-215" y="500"/>
      <point x="-275" y="500" type="curve" smooth="yes"/>
      <point x="-342" y="500" type="line"/>
      <point x="-342" y="455" type="line"/>
      <point x="-278" y="455" type="line" smooth="yes"/>
      <point x="-182" y="455"/>
      <point x="-123" y="484"/>
      <point x="-123" y="551" type="curve" smooth="yes"/>
      <point x="-123" y="619"/>
      <point x="-203" y="642"/>
      <point x="-306" y="642" type="curve" smooth="yes"/>
      <point x="-363" y="642" type="line"/>
    </contour>
    <contour>
      <point x="9" y="679" type="curve" smooth="yes"/>
      <point x="-447" y="679" type="line"/>
      <point x="-454" y="605" type="line"/>
      <point x="-4" y="605" type="line"/>
      <point x="-5" y="623" type="line"/>
      <point x="-23" y="604"/>
      <point x="-32" y="573"/>
      <point x="-32" y="550" type="curve" smooth="yes"/>
      <point x="-32" y="481"/>
      <point x="14" y="439"/>
      <point x="85" y="439" type="curve" smooth="yes"/>
      <point x="159" y="439"/>
      <point x="204" y="485"/>
      <point x="204" y="556" type="curve" smooth="yes"/>
      <point x="204" y="595"/>
      <point x="186" y="629"/>
      <point x="155" y="650" type="curve" smooth="yes"/>
      <point x="123" y="671"/>
      <point x="85" y="679"/>
    </contour>
    <contour>
      <point x="86" y="482" type="curve" smooth="yes"/>
      <point x="53" y="482"/>
      <point x="23" y="496"/>
      <point x="23" y="547" type="curve" smooth="yes"/>
      <point x="23" y="589"/>
      <point x="51" y="610"/>
      <point x="82" y="610" type="curve" smooth="yes"/>
      <point x="121" y="610"/>
      <point x="145" y="587"/>
      <point x="145" y="547" type="curve" smooth="yes"/>
      <point x="145" y="503"/>
      <point x="119" y="482"/>
    </contour>
  </outline>
</glyph>
<glyph name="viramatelu" format="2">
  <unicode hex="0C4D"/>
  <outline>
    <contour>
      <point x="42" y="823" type="line"/>
      <point x="-204" y="823" type="line"/>
      <point x="-282" y="823"/>
      <point x="-315" y="816"/>
      <point x="-344" y="799" type="curve" smooth="yes"/>
      <point x="-375" y="781"/>
      <point x="-393" y="753"/>
      <point x="-393" y="713" type="curve" smooth="yes"/>
      <point x="-393" y="660"/>
      <point x="-358" y="622"/>
      <point x="-288" y="609" type="curve"/>
      <point x="-288" y="635" type="line"/>
      <point x="-351" y="626"/>
      <point x="-384" y="597"/>
      <point x="-384" y="551" type="curve" smooth="yes"/>
      <point x="-384" y="500"/>
      <point x="-347" y="455"/>
      <point x="-247" y="455" type="curve" smooth="yes"/>
      <point x="-198" y="455" type="line"/>
      <point x="-195" y="500" type="line"/>
      <point x="-234" y="500" type="line" smooth="yes"/>
      <point x="-304" y="500"/>
      <point x="-329" y="516"/>
      <point x="-329" y="552" type="curve" smooth="yes"/>
      <point x="-329" y="587"/>
      <point x="-302" y="602"/>
      <point x="-243" y="602" type="curve" smooth="yes"/>
      <point x="-126" y="602" type="line"/>
      <point x="-123" y="649" type="line"/>
      <point x="-238" y="649" type="line" smooth="yes"/>
      <point x="-297" y="649"/>
      <point x="-334" y="660"/>
      <point x="-334" y="701" type="curve" smooth="yes"/>
      <point x="-334" y="741"/>
      <point x="-302" y="752"/>
      <point x="-239" y="752" type="curve" smooth="yes"/>
      <point x="35" y="752" type="line"/>
    </contour>
  </outline>
</glyph>
<glyph name="lengthmarktelu" format="2">
  <unicode hex="0C55"/>
  <outline>
    <contour>
      <point x="-174" y="674" type="curve" smooth="yes"/>
      <point x="-250" y="674"/>
      <point x="-297" y="634"/>
      <point x="-297" y="573" type="curve" smooth="yes"/>
      <point x="-297" y="541"/>
      <point x="-281" y="511"/>
      <point x="-260" y="492" type="curve"/>
      <point x="-214" y="503" type="line"/>
      <point x="-235" y="515"/>
      <point x="-250" y="533"/>
      <point x="-250" y="560" type="curve" smooth="yes"/>
      <point x="-250" y="593"/>
      <point x="-227" y="616"/>
      <point x="-174" y="616" type="curve" smooth="yes"/>
      <point x="-113" y="616"/>
      <point x="-86" y="582"/>
      <point x="-78" y="533" type="curve"/>
      <point x="-35" y="533" type="line"/>
      <point x="-38" y="612"/>
      <point x="-78" y="674"/>
    </contour>
  </outline>
</glyph>
<glyph name="ailengthmarktelu" format="2">
  <unicode hex="0C56"/>
  <outline>
    <contour>
      <point x="-357" y="-309" type="curve" smooth="yes"/>
      <point x="-29" y="-309" type="line"/>
      <point x="-17" y="-234" type="line"/>
      <point x="-342" y="-234" type="line"/>
      <point x="-342" y="-252" type="line"/>
      <point x="-324" y="-234"/>
      <point x="-315" y="-201"/>
      <point x="-315" y="-180" type="curve" smooth="yes"/>
      <point x="-315" y="-116"/>
      <point x="-357" y="-70"/>
      <point x="-434" y="-70" type="curve" smooth="yes"/>
      <point x="-508" y="-70"/>
      <point x="-552" y="-119"/>
      <point x="-552" y="-185" type="curve" smooth="yes"/>
      <point x="-552" y="-223"/>
      <point x="-534" y="-259"/>
      <point x="-503" y="-280" type="curve" smooth="yes"/>
      <point x="-471" y="-301"/>
      <point x="-433" y="-309"/>
    </contour>
    <contour>
      <point x="-493" y="-177" type="curve" smooth="yes"/>
      <point x="-493" y="-138"/>
      <point x="-470" y="-113"/>
      <point x="-433" y="-113" type="curve" smooth="yes"/>
      <point x="-400" y="-113"/>
      <point x="-373" y="-131"/>
      <point x="-373" y="-177" type="curve" smooth="yes"/>
      <point x="-373" y="-220"/>
      <point x="-399" y="-239"/>
      <point x="-431" y="-239" type="curve" smooth="yes"/>
      <point x="-470" y="-239"/>
      <point x="-493" y="-216"/>
    </contour>
  </outline>
</glyph>
<glyph name="tsatelu" format="2">
  <advance width="713"/>
  <unicode hex="0C58"/>
  <outline>
    <contour>
      <point x="521" y="-12" type="curve" smooth="yes"/>
      <point x="632" y="-12"/>
      <point x="678" y="84"/>
      <point x="678" y="202" type="curve" smooth="yes"/>
      <point x="678" y="351"/>
      <point x="581" y="464"/>
      <point x="397" y="470" type="curve"/>
      <point x="363" y="425" type="line"/>
      <point x="552" y="422"/>
      <point x="631" y="326"/>
      <point x="631" y="211" type="curve" smooth="yes"/>
      <point x="631" y="134"/>
      <point x="587" y="98"/>
      <point x="519" y="98" type="curve" smooth="yes"/>
      <point x="453" y="98"/>
      <point x="414" y="128"/>
      <point x="391" y="204" type="curve"/>
      <point x="360" y="204" type="line"/>
      <point x="341" y="136"/>
      <point x="297" y="98"/>
      <point x="232" y="98" type="curve" smooth="yes"/>
      <point x="180" y="98"/>
      <point x="142" y="120"/>
      <point x="142" y="174" type="curve" smooth="yes"/>
      <point x="142" y="213"/>
      <point x="168" y="249"/>
      <point x="234" y="282" type="curve"/>
      <point x="234" y="318" type="line"/>
      <point x="28" y="337" type="line"/>
      <point x="22" y="273" type="line"/>
      <point x="187" y="274" type="line"/>
      <point x="187" y="300" type="line"/>
      <point x="108" y="254"/>
      <point x="77" y="204"/>
      <point x="77" y="136" type="curve" smooth="yes"/>
      <point x="77" y="47"/>
      <point x="132" y="-12"/>
      <point x="219" y="-12" type="curve" smooth="yes"/>
      <point x="291" y="-12"/>
      <point x="352" y="15"/>
      <point x="393" y="147" type="curve"/>
      <point x="357" y="149" type="line"/>
      <point x="400" y="11"/>
      <point x="459" y="-12"/>
    </contour>
    <contour>
      <point x="321" y="598" type="curve"/>
      <point x="216" y="593" type="line"/>
      <point x="247" y="521"/>
      <point x="308" y="451"/>
      <point x="352" y="425" type="curve"/>
      <point x="383" y="425" type="line"/>
      <point x="436" y="452"/>
      <point x="540" y="534"/>
      <point x="671" y="653" type="curve"/>
      <point x="624" y="698" type="line"/>
      <point x="557" y="627"/>
      <point x="438" y="512"/>
      <point x="375" y="466" type="curve"/>
      <point x="350" y="513"/>
      <point x="336" y="550"/>
    </contour>
    <contour>
      <point x="376" y="629" type="line" smooth="yes"/>
      <point x="452" y="629"/>
      <point x="490" y="637"/>
      <point x="522" y="658" type="curve" smooth="yes"/>
      <point x="553" y="679"/>
      <point x="571" y="715"/>
      <point x="571" y="753" type="curve" smooth="yes"/>
      <point x="571" y="819"/>
      <point x="527" y="868"/>
      <point x="453" y="868" type="curve" smooth="yes"/>
      <point x="376" y="868"/>
      <point x="334" y="822"/>
      <point x="334" y="758" type="curve" smooth="yes"/>
      <point x="334" y="737"/>
      <point x="343" y="704"/>
      <point x="361" y="686" type="curve"/>
      <point x="361" y="704" type="line"/>
      <point x="91" y="704" type="line"/>
      <point x="79" y="629" type="line"/>
    </contour>
    <contour>
      <point x="512" y="761" type="curve" smooth="yes"/>
      <point x="512" y="722"/>
      <point x="489" y="699"/>
      <point x="450" y="699" type="curve" smooth="yes"/>
      <point x="418" y="699"/>
      <point x="392" y="718"/>
      <point x="392" y="761" type="curve" smooth="yes"/>
      <point x="392" y="807"/>
      <point x="419" y="825"/>
      <point x="452" y="825" type="curve" smooth="yes"/>
      <point x="489" y="825"/>
      <point x="512" y="800"/>
    </contour>
  </outline>
</glyph>
<glyph name="rrratelu" format="2">
  <advance width="657"/>
  <unicode hex="0C5A"/>
  <outline>
    <contour>
      <point x="479" y="-12" type="curve" smooth="yes"/>
      <point x="568" y="-12"/>
      <point x="622" y="66"/>
      <point x="622" y="198" type="curve" smooth="yes"/>
      <point x="622" y="382"/>
      <point x="507" y="500"/>
      <point x="331" y="500" type="curve" smooth="yes"/>
      <point x="155" y="500"/>
      <point x="35" y="379"/>
      <point x="35" y="198" type="curve" smooth="yes"/>
      <point x="35" y="66"/>
      <point x="90" y="-12"/>
      <point x="185" y="-12" type="curve" smooth="yes"/>
      <point x="245" y="-12"/>
      <point x="305" y="15"/>
      <point x="346" y="147" type="curve"/>
      <point x="310" y="149" type="line"/>
      <point x="358" y="8"/>
      <point x="412" y="-12"/>
    </contour>
    <contour>
      <point x="464" y="98" type="curve" smooth="yes"/>
      <point x="407" y="98"/>
      <point x="367" y="127"/>
      <point x="344" y="204" type="curve"/>
      <point x="313" y="204" type="line"/>
      <point x="293" y="130"/>
      <point x="255" y="98"/>
      <point x="199" y="98" type="curve" smooth="yes"/>
      <point x="144" y="98"/>
      <point x="99" y="127"/>
      <point x="99" y="217" type="curve" smooth="yes"/>
      <point x="99" y="372"/>
      <point x="185" y="454"/>
      <point x="331" y="454" type="curve" smooth="yes"/>
      <point x="476" y="454"/>
      <point x="558" y="371"/>
      <point x="558" y="218" type="curve" smooth="yes"/>
      <point x="558" y="129"/>
      <point x="518" y="98"/>
    </contour>
    <contour>
      <point x="71" y="265" type="line"/>
      <point x="580" y="265" type="line"/>
      <point x="580" y="310" type="line"/>
      <point x="70" y="310" type="line"/>
    </contour>
  </outline>
</glyph>
<glyph name="llvocalictelu" format="2">
  <advance width="1078"/>
  <unicode hex="0C61"/>
  <outline>
    <contour>
      <point x="493" y="-102" type="curve" smooth="yes"/>
      <point x="662" y="-102"/>
      <point x="754" y="70"/>
      <point x="754" y="210" type="curve" smooth="yes"/>
      <point x="754" y="368"/>
      <point x="691" y="432"/>
      <point x="611" y="484" type="curve"/>
      <point x="568" y="446" type="line"/>
      <point x="649" y="403"/>
      <point x="708" y="338"/>
      <point x="708" y="220" type="curve" smooth="yes"/>
      <point x="708" y="107"/>
      <point x="645" y="9"/>
      <point x="508" y="9" type="curve" smooth="yes"/>
      <point x="441" y="9"/>
      <point x="405" y="38"/>
      <point x="405" y="92" type="curve" smooth="yes"/>
      <point x="405" y="130"/>
      <point x="420" y="164"/>
      <point x="463" y="224" type="curve" smooth="yes"/>
      <point x="510" y="289"/>
      <point x="536" y="332"/>
      <point x="536" y="392" type="curve" smooth="yes"/>
      <point x="536" y="455"/>
      <point x="491" y="501"/>
      <point x="415" y="501" type="curve" smooth="yes"/>
      <point x="326" y="501"/>
      <point x="273" y="427"/>
      <point x="254" y="353" type="curve"/>
      <point x="292" y="342" type="line"/>
      <point x="277" y="459"/>
      <point x="216" y="501"/>
      <point x="153" y="501" type="curve" smooth="yes"/>
      <point x="66" y="501"/>
      <point x="28" y="441"/>
      <point x="28" y="381" type="curve" smooth="yes"/>
      <point x="28" y="338"/>
      <point x="41" y="302"/>
      <point x="58" y="270" type="curve"/>
      <point x="103" y="285" type="line"/>
      <point x="88" y="310"/>
      <point x="79" y="334"/>
      <point x="79" y="361" type="curve" smooth="yes"/>
      <point x="79" y="397"/>
      <point x="108" y="417"/>
      <point x="145" y="417" type="curve" smooth="yes"/>
      <point x="198" y="417"/>
      <point x="234" y="390"/>
      <point x="257" y="315" type="curve"/>
      <point x="288" y="315" type="line"/>
      <point x="305" y="375"/>
      <point x="339" y="417"/>
      <point x="397" y="417" type="curve" smooth="yes"/>
      <point x="441" y="417"/>
      <point x="468" y="397"/>
      <point x="468" y="351" type="curve" smooth="yes"/>
      <point x="468" y="326"/>
      <point x="457" y="296"/>
      <point x="418" y="240" type="curve" smooth="yes"/>
      <point x="355" y="150"/>
      <point x="328" y="101"/>
      <point x="328" y="40" type="curve" smooth="yes"/>
      <point x="328" y="-47"/>
      <point x="386" y="-102"/>
    </contour>
    <contour>
      <point x="866" y="502" type="curve" smooth="yes"/>
      <point x="596" y="502" type="line"/>
      <point x="568" y="446" type="line"/>
      <point x="607" y="439" type="line"/>
      <point x="642" y="436" type="line"/>
      <point x="685" y="432"/>
      <point x="717" y="430"/>
      <point x="760" y="430" type="curve" smooth="yes"/>
      <point x="844" y="430" type="line"/>
      <point x="848" y="446" type="line"/>
      <point x="830" y="427"/>
      <point x="821" y="396"/>
      <point x="821" y="370" type="curve" smooth="yes"/>
      <point x="821" y="304"/>
      <point x="867" y="258"/>
      <point x="940" y="258" type="curve" smooth="yes"/>
      <point x="1016" y="258"/>
      <point x="1061" y="308"/>
      <point x="1061" y="378" type="curve" smooth="yes"/>
      <point x="1061" y="417"/>
      <point x="1043" y="452"/>
      <point x="1012" y="473" type="curve" smooth="yes"/>
      <point x="980" y="494"/>
      <point x="942" y="502"/>
    </contour>
    <contour>
      <point x="1002" y="368" type="curve" smooth="yes"/>
      <point x="1002" y="326"/>
      <point x="976" y="301"/>
      <point x="941" y="301" type="curve" smooth="yes"/>
      <point x="906" y="301"/>
      <point x="876" y="319"/>
      <point x="876" y="368" type="curve" smooth="yes"/>
      <point x="876" y="413"/>
      <point x="902" y="433"/>
      <point x="937" y="433" type="curve" smooth="yes"/>
      <point x="978" y="433"/>
      <point x="1002" y="410"/>
    </contour>
  </outline>
</glyph>
<glyph name="lvocalicvowelsigntelu" format="2">
  <unicode hex="0C62"/>
  <outline>
    <contour>
      <point x="-182" y="-443" type="curve" smooth="yes"/>
      <point x="-65" y="-443"/>
      <point x="0" y="-334"/>
      <point x="0" y="-245" type="curve" smooth="yes"/>
      <point x="0" y="-149"/>
      <point x="-47" y="-92"/>
      <point x="-101" y="-62" type="curve"/>
      <point x="-131" y="-104" type="line"/>
      <point x="-82" y="-127"/>
      <point x="-40" y="-176"/>
      <point x="-40" y="-239" type="curve" smooth="yes"/>
      <point x="-40" y="-300"/>
      <point x="-77" y="-363"/>
      <point x="-171" y="-363" type="curve" smooth="yes"/>
      <point x="-208" y="-363"/>
      <point x="-236" y="-351"/>
      <point x="-236" y="-314" type="curve" smooth="yes"/>
      <point x="-236" y="-296"/>
      <point x="-229" y="-277"/>
      <point x="-199" y="-237" type="curve" smooth="yes"/>
      <point x="-168" y="-196"/>
      <point x="-154" y="-172"/>
      <point x="-154" y="-132" type="curve" smooth="yes"/>
      <point x="-154" y="-90"/>
      <point x="-185" y="-61"/>
      <point x="-234" y="-61" type="curve" smooth="yes"/>
      <point x="-298" y="-61"/>
      <point x="-336" y="-108"/>
      <point x="-352" y="-163" type="curve"/>
      <point x="-324" y="-167" type="line"/>
      <point x="-340" y="-92"/>
      <point x="-379" y="-61"/>
      <point x="-426" y="-61" type="curve" smooth="yes"/>
      <point x="-485" y="-61"/>
      <point x="-511" y="-99"/>
      <point x="-511" y="-137" type="curve" smooth="yes"/>
      <point x="-511" y="-169"/>
      <point x="-499" y="-199"/>
      <point x="-487" y="-222" type="curve"/>
      <point x="-449" y="-210" type="line"/>
      <point x="-459" y="-193"/>
      <point x="-466" y="-175"/>
      <point x="-466" y="-157" type="curve" smooth="yes"/>
      <point x="-466" y="-135"/>
      <point x="-450" y="-122"/>
      <point x="-427" y="-122" type="curve" smooth="yes"/>
      <point x="-392" y="-122"/>
      <point x="-369" y="-142"/>
      <point x="-353" y="-187" type="curve"/>
      <point x="-325" y="-187" type="line"/>
      <point x="-312" y="-149"/>
      <point x="-289" y="-122"/>
      <point x="-252" y="-122" type="curve" smooth="yes"/>
      <point x="-229" y="-122"/>
      <point x="-209" y="-134"/>
      <point x="-209" y="-159" type="curve" smooth="yes"/>
      <point x="-209" y="-178"/>
      <point x="-215" y="-194"/>
      <point x="-240" y="-226" type="curve" smooth="yes"/>
      <point x="-286" y="-284"/>
      <point x="-296" y="-312"/>
      <point x="-296" y="-348" type="curve" smooth="yes"/>
      <point x="-296" y="-408"/>
      <point x="-258" y="-443"/>
    </contour>
  </outline>
</glyph>
<glyph name="llvocalicvowelsigntelu" format="2">
  <advance width="223"/>
  <unicode hex="0C63"/>
  <outline>
    <contour>
      <point x="-182" y="-443" type="curve" smooth="yes"/>
      <point x="-65" y="-443"/>
      <point x="0" y="-334"/>
      <point x="0" y="-245" type="curve" smooth="yes"/>
      <point x="0" y="-149"/>
      <point x="-47" y="-104"/>
      <point x="-101" y="-74" type="curve"/>
      <point x="-131" y="-104" type="line"/>
      <point x="-82" y="-127"/>
      <point x="-40" y="-176"/>
      <point x="-40" y="-239" type="curve" smooth="yes"/>
      <point x="-40" y="-300"/>
      <point x="-77" y="-363"/>
      <point x="-171" y="-363" type="curve" smooth="yes"/>
      <point x="-208" y="-363"/>
      <point x="-236" y="-351"/>
      <point x="-236" y="-314" type="curve" smooth="yes"/>
      <point x="-236" y="-296"/>
      <point x="-229" y="-277"/>
      <point x="-199" y="-237" type="curve" smooth="yes"/>
      <point x="-168" y="-196"/>
      <point x="-154" y="-172"/>
      <point x="-154" y="-132" type="curve" smooth="yes"/>
      <point x="-154" y="-90"/>
      <point x="-185" y="-61"/>
      <point x="-234" y="-61" type="curve" smooth="yes"/>
      <point x="-298" y="-61"/>
      <point x="-336" y="-108"/>
      <point x="-352" y="-163" type="curve"/>
      <point x="-324" y="-167" type="line"/>
      <point x="-340" y="-92"/>
      <point x="-379" y="-61"/>
      <point x="-426" y="-61" type="curve" smooth="yes"/>
      <point x="-485" y="-61"/>
      <point x="-511" y="-99"/>
      <point x="-511" y="-137" type="curve" smooth="yes"/>
      <point x="-511" y="-169"/>
      <point x="-499" y="-199"/>
      <point x="-487" y="-222" type="curve"/>
      <point x="-449" y="-210" type="line"/>
      <point x="-459" y="-193"/>
      <point x="-466" y="-175"/>
      <point x="-466" y="-157" type="curve" smooth="yes"/>
      <point x="-466" y="-135"/>
      <point x="-450" y="-122"/>
      <point x="-427" y="-122" type="curve" smooth="yes"/>
      <point x="-392" y="-122"/>
      <point x="-369" y="-142"/>
      <point x="-353" y="-187" type="curve"/>
      <point x="-325" y="-187" type="line"/>
      <point x="-312" y="-149"/>
      <point x="-289" y="-122"/>
      <point x="-252" y="-122" type="curve" smooth="yes"/>
      <point x="-229" y="-122"/>
      <point x="-209" y="-134"/>
      <point x="-209" y="-159" type="curve" smooth="yes"/>
      <point x="-209" y="-178"/>
      <point x="-215" y="-194"/>
      <point x="-240" y="-226" type="curve" smooth="yes"/>
      <point x="-286" y="-284"/>
      <point x="-296" y="-312"/>
      <point x="-296" y="-348" type="curve" smooth="yes"/>
      <point x="-296" y="-408"/>
      <point x="-258" y="-443"/>
    </contour>
    <contour>
      <point x="109" y="-61" type="curve" smooth="yes"/>
      <point x="-111" y="-61" type="line"/>
      <point x="-131" y="-104" type="line"/>
      <point x="-79" y="-110" type="line"/>
      <point x="-54" y="-112"/>
      <point x="-26" y="-115"/>
      <point x="9" y="-115" type="curve" smooth="yes"/>
      <point x="61" y="-115" type="line"/>
      <point x="59" y="-105" type="line"/>
      <point x="46" y="-117"/>
      <point x="40" y="-139"/>
      <point x="40" y="-158" type="curve" smooth="yes"/>
      <point x="40" y="-212"/>
      <point x="72" y="-242"/>
      <point x="131" y="-242" type="curve" smooth="yes"/>
      <point x="191" y="-242"/>
      <point x="223" y="-210"/>
      <point x="223" y="-151" type="curve" smooth="yes"/>
      <point x="223" y="-89"/>
      <point x="178" y="-61"/>
    </contour>
    <contour>
      <point x="176" y="-157" type="curve" smooth="yes"/>
      <point x="176" y="-186"/>
      <point x="158" y="-202"/>
      <point x="131" y="-202" type="curve" smooth="yes"/>
      <point x="105" y="-202"/>
      <point x="84" y="-189"/>
      <point x="84" y="-156" type="curve" smooth="yes"/>
      <point x="84" y="-126"/>
      <point x="102" y="-113"/>
      <point x="129" y="-113" type="curve" smooth="yes"/>
      <point x="159" y="-113"/>
      <point x="176" y="-128"/>
    </contour>
  </outline>
</glyph>
<glyph name="twotelu" format="2">
  <advance width="629"/>
  <unicode hex="0C68"/>
  <outline>
    <contour>
      <point x="591" y="255" type="curve" smooth="yes"/>
      <point x="591" y="437"/>
      <point x="478" y="503"/>
      <point x="389" y="503" type="curve" smooth="yes"/>
      <point x="293" y="503"/>
      <point x="249" y="449"/>
      <point x="249" y="381" type="curve" smooth="yes"/>
      <point x="249" y="311"/>
      <point x="294" y="261"/>
      <point x="369" y="261" type="curve" smooth="yes"/>
      <point x="441" y="261"/>
      <point x="488" y="302"/>
      <point x="488" y="379" type="curve" smooth="yes"/>
      <point x="488" y="397"/>
      <point x="480" y="419"/>
      <point x="474" y="432" type="curve"/>
      <point x="458" y="430" type="line"/>
      <point x="504" y="403"/>
      <point x="544" y="354"/>
      <point x="544" y="271" type="curve" smooth="yes"/>
      <point x="544" y="220"/>
      <point x="530" y="182"/>
      <point x="502" y="154" type="curve" smooth="yes"/>
      <point x="466" y="119"/>
      <point x="401" y="104"/>
      <point x="294" y="104" type="curve" smooth="yes"/>
      <point x="26" y="104" type="line"/>
      <point x="15" y="0" type="line"/>
      <point x="297" y="0" type="line" smooth="yes"/>
      <point x="428" y="0"/>
      <point x="485" y="22"/>
      <point x="531" y="71" type="curve" smooth="yes"/>
      <point x="570" y="113"/>
      <point x="591" y="175"/>
    </contour>
    <contour>
      <point x="373" y="438" type="curve" smooth="yes"/>
      <point x="404" y="438"/>
      <point x="434" y="417"/>
      <point x="434" y="371" type="curve" smooth="yes"/>
      <point x="434" y="322"/>
      <point x="403" y="304"/>
      <point x="369" y="304" type="curve" smooth="yes"/>
      <point x="335" y="304"/>
      <point x="308" y="329"/>
      <point x="308" y="371" type="curve" smooth="yes"/>
      <point x="308" y="412"/>
      <point x="335" y="438"/>
    </contour>
  </outline>
</glyph>
<glyph name="threetelu" format="2">
  <advance width="473"/>
  <unicode hex="0C69"/>
  <outline>
    <contour>
      <point x="256" y="-12" type="curve" smooth="yes"/>
      <point x="391" y="-12"/>
      <point x="442" y="53"/>
      <point x="442" y="133" type="curve" smooth="yes"/>
      <point x="442" y="202"/>
      <point x="397" y="258"/>
      <point x="287" y="264" type="curve"/>
      <point x="290" y="241" type="line"/>
      <point x="401" y="253"/>
      <point x="437" y="305"/>
      <point x="437" y="368" type="curve" smooth="yes"/>
      <point x="437" y="451"/>
      <point x="374" y="504"/>
      <point x="257" y="504" type="curve" smooth="yes"/>
      <point x="157" y="504"/>
      <point x="90" y="475"/>
      <point x="18" y="433" type="curve"/>
      <point x="54" y="350" type="line"/>
      <point x="119" y="402"/>
      <point x="195" y="435"/>
      <point x="268" y="435" type="curve" smooth="yes"/>
      <point x="346" y="435"/>
      <point x="378" y="406"/>
      <point x="378" y="359" type="curve" smooth="yes"/>
      <point x="378" y="308"/>
      <point x="341" y="277"/>
      <point x="250" y="277" type="curve" smooth="yes"/>
      <point x="155" y="277" type="line"/>
      <point x="148" y="228" type="line"/>
      <point x="257" y="228" type="line" smooth="yes"/>
      <point x="347" y="228"/>
      <point x="383" y="200"/>
      <point x="383" y="152" type="curve" smooth="yes"/>
      <point x="383" y="100"/>
      <point x="344" y="73"/>
      <point x="273" y="73" type="curve" smooth="yes"/>
      <point x="189" y="73"/>
      <point x="131" y="91"/>
      <point x="44" y="146" type="curve"/>
      <point x="10" y="43" type="line"/>
      <point x="86" y="5"/>
      <point x="171" y="-12"/>
    </contour>
  </outline>
</glyph>
<glyph name="fourtelu" format="2">
  <advance width="597"/>
  <unicode hex="0C6A"/>
  <outline>
    <contour>
      <point x="297" y="-12" type="curve" smooth="yes"/>
      <point x="392" y="-12"/>
      <point x="445" y="30"/>
      <point x="445" y="104" type="curve" smooth="yes"/>
      <point x="445" y="176"/>
      <point x="398" y="197"/>
      <point x="312" y="208" type="curve"/>
      <point x="304" y="210" type="line"/>
      <point x="163" y="223"/>
      <point x="90" y="252"/>
      <point x="90" y="328" type="curve" smooth="yes"/>
      <point x="90" y="381"/>
      <point x="139" y="410"/>
      <point x="218" y="424" type="curve"/>
      <point x="197" y="507" type="line"/>
      <point x="102" y="484"/>
      <point x="33" y="426"/>
      <point x="33" y="336" type="curve" smooth="yes"/>
      <point x="33" y="244"/>
      <point x="102" y="193"/>
      <point x="223" y="174" type="curve"/>
      <point x="290" y="173" type="line"/>
      <point x="367" y="170"/>
      <point x="389" y="158"/>
      <point x="389" y="128" type="curve" smooth="yes"/>
      <point x="389" y="96"/>
      <point x="355" y="85"/>
      <point x="297" y="85" type="curve" smooth="yes"/>
      <point x="235" y="85"/>
      <point x="208" y="101"/>
      <point x="208" y="128" type="curve" smooth="yes"/>
      <point x="208" y="153"/>
      <point x="225" y="170"/>
      <point x="304" y="173" type="curve"/>
      <point x="374" y="174" type="line"/>
      <point x="495" y="193"/>
      <point x="564" y="245"/>
      <point x="564" y="336" type="curve" smooth="yes"/>
      <point x="564" y="426"/>
      <point x="495" y="484"/>
      <point x="400" y="507" type="curve"/>
      <point x="379" y="424" type="line"/>
      <point x="458" y="410"/>
      <point x="507" y="381"/>
      <point x="507" y="328" type="curve" smooth="yes"/>
      <point x="507" y="249"/>
      <point x="430" y="224"/>
      <point x="289" y="210" type="curve"/>
      <point x="284" y="210"/>
      <point x="283" y="208"/>
      <point x="279" y="207" type="curve"/>
      <point x="199" y="197"/>
      <point x="152" y="174"/>
      <point x="152" y="105" type="curve" smooth="yes"/>
      <point x="152" y="31"/>
      <point x="200" y="-12"/>
    </contour>
  </outline>
</glyph>
<glyph name="fivetelu" format="2">
  <advance width="657"/>
  <unicode hex="0C6B"/>
  <outline>
    <contour>
      <point x="213" y="-12" type="curve" smooth="yes"/>
      <point x="345" y="-12"/>
      <point x="391" y="103"/>
      <point x="391" y="253" type="curve" smooth="yes"/>
      <point x="391" y="397"/>
      <point x="343" y="503"/>
      <point x="214" y="503" type="curve" smooth="yes"/>
      <point x="134" y="503"/>
      <point x="79" y="463"/>
      <point x="33" y="373" type="curve"/>
      <point x="70" y="358" type="line"/>
      <point x="105" y="404"/>
      <point x="146" y="426"/>
      <point x="209" y="426" type="curve" smooth="yes"/>
      <point x="296" y="426"/>
      <point x="345" y="364"/>
      <point x="345" y="268" type="curve" smooth="yes"/>
      <point x="345" y="153"/>
      <point x="297" y="98"/>
      <point x="209" y="98" type="curve" smooth="yes"/>
      <point x="135" y="98"/>
      <point x="78" y="129"/>
      <point x="55" y="186" type="curve"/>
      <point x="15" y="174" type="line"/>
      <point x="30" y="82"/>
      <point x="82" y="-12"/>
    </contour>
    <contour>
      <point x="533" y="-13" type="curve" smooth="yes"/>
      <point x="594" y="-13"/>
      <point x="623" y="31"/>
      <point x="623" y="88" type="curve" smooth="yes"/>
      <point x="623" y="160"/>
      <point x="589" y="207"/>
      <point x="528" y="276" type="curve" smooth="yes"/>
      <point x="487" y="322"/>
      <point x="472" y="351"/>
      <point x="472" y="386" type="curve" smooth="yes"/>
      <point x="472" y="418"/>
      <point x="493" y="440"/>
      <point x="524" y="440" type="curve" smooth="yes"/>
      <point x="563" y="440"/>
      <point x="576" y="414"/>
      <point x="576" y="390" type="curve" smooth="yes"/>
      <point x="576" y="353"/>
      <point x="556" y="329"/>
      <point x="502" y="278" type="curve"/>
      <point x="433" y="228"/>
      <point x="379" y="177"/>
      <point x="339" y="96" type="curve"/>
      <point x="341" y="58" type="line"/>
      <point x="394" y="141"/>
      <point x="454" y="188"/>
      <point x="526" y="249" type="curve"/>
      <point x="593" y="307"/>
      <point x="625" y="346"/>
      <point x="625" y="409" type="curve" smooth="yes"/>
      <point x="625" y="459"/>
      <point x="592" y="501"/>
      <point x="530" y="501" type="curve" smooth="yes"/>
      <point x="467" y="501"/>
      <point x="424" y="460"/>
      <point x="424" y="398" type="curve" smooth="yes"/>
      <point x="424" y="348"/>
      <point x="451" y="306"/>
      <point x="503" y="245" type="curve"/>
      <point x="543" y="199"/>
      <point x="561" y="165"/>
      <point x="561" y="129" type="curve" smooth="yes"/>
      <point x="561" y="98"/>
      <point x="543" y="81"/>
      <point x="513" y="81" type="curve" smooth="yes"/>
      <point x="477" y="81"/>
      <point x="460" y="95"/>
      <point x="446" y="122" type="curve"/>
      <point x="407" y="112" type="line"/>
      <point x="420" y="50"/>
      <point x="455" y="-13"/>
    </contour>
  </outline>
</glyph>
<glyph name="sixtelu" format="2">
  <advance width="533"/>
  <unicode hex="0C6C"/>
  <outline>
    <contour>
      <point x="41" y="382" type="curve" smooth="yes"/>
      <point x="41" y="328"/>
      <point x="82" y="280"/>
      <point x="163" y="272" type="curve"/>
      <point x="152" y="291" type="line"/>
      <point x="83" y="286"/>
      <point x="31" y="236"/>
      <point x="31" y="155" type="curve" smooth="yes"/>
      <point x="31" y="102"/>
      <point x="51" y="67"/>
      <point x="82" y="43" type="curve" smooth="yes"/>
      <point x="119" y="14"/>
      <point x="180" y="0"/>
      <point x="284" y="0" type="curve" smooth="yes"/>
      <point x="507" y="0" type="line"/>
      <point x="518" y="105" type="line"/>
      <point x="255" y="105" type="line" smooth="yes"/>
      <point x="199" y="105"/>
      <point x="156" y="108"/>
      <point x="129" y="122" type="curve" smooth="yes"/>
      <point x="107" y="133"/>
      <point x="93" y="151"/>
      <point x="93" y="180" type="curve" smooth="yes"/>
      <point x="93" y="235"/>
      <point x="142" y="255"/>
      <point x="223" y="255" type="curve" smooth="yes"/>
      <point x="349" y="255" type="line"/>
      <point x="356" y="303" type="line"/>
      <point x="223" y="303" type="line" smooth="yes"/>
      <point x="140" y="303"/>
      <point x="103" y="330"/>
      <point x="103" y="377" type="curve" smooth="yes"/>
      <point x="103" y="425"/>
      <point x="143" y="443"/>
      <point x="210" y="443" type="curve" smooth="yes"/>
      <point x="249" y="443" type="line"/>
      <point x="256" y="496" type="line"/>
      <point x="200" y="496" type="line" smooth="yes"/>
      <point x="112" y="496"/>
      <point x="41" y="466"/>
    </contour>
  </outline>
</glyph>
<glyph name="seventelu" format="2">
  <advance width="481"/>
  <unicode hex="0C6D"/>
  <outline>
    <contour>
      <point x="426" y="186" type="line"/>
      <point x="403" y="129"/>
      <point x="331" y="98"/>
      <point x="239" y="98" type="curve" smooth="yes"/>
      <point x="141" y="98"/>
      <point x="94" y="124"/>
      <point x="94" y="173" type="curve" smooth="yes"/>
      <point x="94" y="211"/>
      <point x="118" y="240"/>
      <point x="218" y="247" type="curve" smooth="yes"/>
      <point x="260" y="250" type="line" smooth="yes"/>
      <point x="390" y="259"/>
      <point x="438" y="303"/>
      <point x="438" y="378" type="curve" smooth="yes"/>
      <point x="438" y="436"/>
      <point x="385" y="503"/>
      <point x="255" y="503" type="curve" smooth="yes"/>
      <point x="155" y="503"/>
      <point x="81" y="469"/>
      <point x="31" y="426" type="curve"/>
      <point x="72" y="385" type="line"/>
      <point x="119" y="426"/>
      <point x="187" y="455"/>
      <point x="265" y="455" type="curve" smooth="yes"/>
      <point x="349" y="455"/>
      <point x="380" y="417"/>
      <point x="380" y="376" type="curve" smooth="yes"/>
      <point x="380" y="330"/>
      <point x="350" y="306"/>
      <point x="256" y="298" type="curve" smooth="yes"/>
      <point x="208" y="294" type="line" smooth="yes"/>
      <point x="56" y="281"/>
      <point x="27" y="214"/>
      <point x="27" y="153" type="curve" smooth="yes"/>
      <point x="27" y="64"/>
      <point x="85" y="-12"/>
      <point x="227" y="-12" type="curve" smooth="yes"/>
      <point x="395" y="-12"/>
      <point x="451" y="82"/>
      <point x="466" y="174" type="curve"/>
    </contour>
  </outline>
</glyph>
<glyph name="eighttelu" format="2">
  <advance width="627"/>
  <unicode hex="0C6E"/>
  <outline>
    <contour>
      <point x="261" y="-12" type="curve" smooth="yes"/>
      <point x="410" y="-12"/>
      <point x="491" y="73"/>
      <point x="491" y="218" type="curve" smooth="yes"/>
      <point x="491" y="354"/>
      <point x="417" y="435"/>
      <point x="318" y="472" type="curve"/>
      <point x="361" y="421" type="line"/>
      <point x="601" y="421" type="line"/>
      <point x="612" y="497" type="line"/>
      <point x="311" y="497" type="line"/>
      <point x="289" y="440" type="line"/>
      <point x="384" y="405"/>
      <point x="427" y="341"/>
      <point x="427" y="259" type="curve" smooth="yes"/>
      <point x="427" y="145"/>
      <point x="357" y="100"/>
      <point x="256" y="100" type="curve" smooth="yes"/>
      <point x="157" y="100"/>
      <point x="93" y="149"/>
      <point x="93" y="251" type="curve" smooth="yes"/>
      <point x="93" y="300"/>
      <point x="107" y="348"/>
      <point x="145" y="403" type="curve"/>
      <point x="105" y="431" type="line"/>
      <point x="62" y="371"/>
      <point x="35" y="309"/>
      <point x="35" y="218" type="curve" smooth="yes"/>
      <point x="35" y="74"/>
      <point x="126" y="-12"/>
    </contour>
  </outline>
</glyph>
<glyph name="ninetelu" format="2">
  <advance width="533"/>
  <unicode hex="0C6F"/>
  <outline>
    <contour>
      <point x="41" y="116" type="curve" smooth="yes"/>
      <point x="41" y="31"/>
      <point x="112" y="0"/>
      <point x="201" y="0" type="curve" smooth="yes"/>
      <point x="247" y="0" type="line"/>
      <point x="254" y="53" type="line"/>
      <point x="210" y="53" type="line" smooth="yes"/>
      <point x="143" y="53"/>
      <point x="103" y="71"/>
      <point x="103" y="121" type="curve" smooth="yes"/>
      <point x="103" y="169"/>
      <point x="140" y="196"/>
      <point x="223" y="196" type="curve" smooth="yes"/>
      <point x="347" y="196" type="line"/>
      <point x="354" y="244" type="line"/>
      <point x="223" y="244" type="line" smooth="yes"/>
      <point x="142" y="244"/>
      <point x="93" y="265"/>
      <point x="93" y="321" type="curve" smooth="yes"/>
      <point x="93" y="349"/>
      <point x="106" y="367"/>
      <point x="128" y="379" type="curve" smooth="yes"/>
      <point x="154" y="393"/>
      <point x="195" y="397"/>
      <point x="253" y="397" type="curve" smooth="yes"/>
      <point x="508" y="397" type="line"/>
      <point x="518" y="496" type="line"/>
      <point x="281" y="496" type="line" smooth="yes"/>
      <point x="179" y="496"/>
      <point x="121" y="483"/>
      <point x="83" y="455" type="curve" smooth="yes"/>
      <point x="51" y="431"/>
      <point x="31" y="395"/>
      <point x="31" y="344" type="curve" smooth="yes"/>
      <point x="31" y="264"/>
      <point x="83" y="213"/>
      <point x="152" y="208" type="curve"/>
      <point x="163" y="227" type="line"/>
      <point x="82" y="219"/>
      <point x="41" y="170"/>
    </contour>
  </outline>
</glyph>
<glyph name="uni0C77" format="2">
  <advance width="1034"/>
  <unicode hex="0C77"/>
  <outline>
    <contour>
      <point x="124" y="485" type="curve"/>
      <point x="64" y="489" type="line"/>
      <point x="53" y="428"/>
      <point x="48" y="372"/>
      <point x="48" y="319" type="curve" smooth="yes"/>
      <point x="48" y="-37"/>
      <point x="246" y="-213"/>
      <point x="530" y="-213" type="curve" smooth="yes"/>
      <point x="795" y="-213"/>
      <point x="986" y="-64"/>
      <point x="986" y="258" type="curve" smooth="yes"/>
      <point x="986" y="538"/>
      <point x="820" y="681"/>
      <point x="607" y="681" type="curve" smooth="yes"/>
      <point x="404" y="681"/>
      <point x="255" y="549"/>
      <point x="255" y="334" type="curve" smooth="yes"/>
      <point x="255" y="143"/>
      <point x="375" y="40"/>
      <point x="532" y="40" type="curve" smooth="yes"/>
      <point x="712" y="40"/>
      <point x="784" y="147"/>
      <point x="784" y="275" type="curve" smooth="yes"/>
      <point x="784" y="399"/>
      <point x="712" y="473"/>
      <point x="604" y="473" type="curve" smooth="yes"/>
      <point x="502" y="473"/>
      <point x="438" y="405"/>
      <point x="438" y="320" type="curve" smooth="yes"/>
      <point x="438" y="261"/>
      <point x="469" y="225"/>
      <point x="522" y="225" type="curve" smooth="yes"/>
      <point x="569" y="225"/>
      <point x="588" y="247"/>
      <point x="588" y="290" type="curve" smooth="yes"/>
      <point x="588" y="324"/>
      <point x="576" y="351"/>
      <point x="527" y="351" type="curve" smooth="yes"/>
      <point x="497" y="351"/>
      <point x="476" y="335"/>
      <point x="453" y="315" type="curve"/>
      <point x="486" y="301" type="line"/>
      <point x="486" y="370"/>
      <point x="527" y="420"/>
      <point x="601" y="420" type="curve" smooth="yes"/>
      <point x="673" y="420"/>
      <point x="723" y="371"/>
      <point x="723" y="274" type="curve" smooth="yes"/>
      <point x="723" y="169"/>
      <point x="663" y="102"/>
      <point x="532" y="102" type="curve" smooth="yes"/>
      <point x="424" y="102"/>
      <point x="316" y="163"/>
      <point x="316" y="333" type="curve" smooth="yes"/>
      <point x="316" y="532"/>
      <point x="443" y="626"/>
      <point x="607" y="626" type="curve" smooth="yes"/>
      <point x="796" y="626"/>
      <point x="922" y="496"/>
      <point x="922" y="258" type="curve" smooth="yes"/>
      <point x="922" y="-10"/>
      <point x="763" y="-137"/>
      <point x="532" y="-137" type="curve" smooth="yes"/>
      <point x="292" y="-137"/>
      <point x="109" y="-1"/>
      <point x="109" y="324" type="curve" smooth="yes"/>
      <point x="109" y="381"/>
      <point x="113" y="431"/>
    </contour>
  </outline>
</glyph>
<glyph name="uni0C78" format="2">
  <advance width="517"/>
  <unicode hex="0C78"/>
  <outline>
    <contour>
      <point x="35" y="282" type="curve" smooth="yes"/>
      <point x="35" y="148"/>
      <point x="125" y="62"/>
      <point x="257" y="62" type="curve" smooth="yes"/>
      <point x="384" y="62"/>
      <point x="482" y="149"/>
      <point x="482" y="281" type="curve" smooth="yes"/>
      <point x="482" y="424"/>
      <point x="385" y="503"/>
      <point x="257" y="503" type="curve" smooth="yes"/>
      <point x="129" y="503"/>
      <point x="35" y="421"/>
    </contour>
    <contour>
      <point x="88" y="292" type="curve" smooth="yes"/>
      <point x="88" y="391"/>
      <point x="152" y="456"/>
      <point x="257" y="456" type="curve" smooth="yes"/>
      <point x="363" y="456"/>
      <point x="429" y="394"/>
      <point x="429" y="291" type="curve" smooth="yes"/>
      <point x="429" y="187"/>
      <point x="357" y="133"/>
      <point x="257" y="133" type="curve" smooth="yes"/>
      <point x="158" y="133"/>
      <point x="88" y="182"/>
    </contour>
    <contour>
      <point x="452" y="-96" type="curve" smooth="yes"/>
      <point x="452" y="-15"/>
      <point x="384" y="40"/>
      <point x="231" y="101" type="curve"/>
      <point x="183" y="79" type="line"/>
      <point x="334" y="12"/>
      <point x="391" y="-32"/>
      <point x="391" y="-87" type="curve" smooth="yes"/>
      <point x="391" y="-117"/>
      <point x="374" y="-140"/>
      <point x="328" y="-170" type="curve"/>
      <point x="377" y="-221" type="line"/>
      <point x="429" y="-185"/>
      <point x="452" y="-139"/>
    </contour>
  </outline>
</glyph>
<glyph name="uni0C79" format="2">
  <advance width="240"/>
  <unicode hex="0C79"/>
  <outline>
    <contour>
      <point x="145" y="0" type="line"/>
      <point x="145" y="496" type="line"/>
      <point x="95" y="496" type="line"/>
      <point x="95" y="0" type="line"/>
    </contour>
  </outline>
</glyph>
<glyph name="uni0C7A" format="2">
  <advance width="429"/>
  <unicode hex="0C7A"/>
  <outline>
    <contour>
      <point x="189" y="158" type="curve" smooth="yes"/>
      <point x="252" y="158"/>
      <point x="302" y="199"/>
      <point x="305" y="315" type="curve"/>
      <point x="304" y="331" type="line"/>
      <point x="304" y="496" type="line"/>
      <point x="286" y="496" type="line"/>
      <point x="286" y="352" type="line" smooth="yes"/>
      <point x="286" y="290"/>
      <point x="273" y="226"/>
      <point x="198" y="226" type="curve" smooth="yes"/>
      <point x="130" y="226"/>
      <point x="112" y="267"/>
      <point x="112" y="352" type="curve" smooth="yes"/>
      <point x="112" y="496" type="line"/>
      <point x="62" y="496" type="line"/>
      <point x="62" y="332" type="line" smooth="yes"/>
      <point x="62" y="209"/>
      <point x="103" y="158"/>
    </contour>
    <contour>
      <point x="336" y="0" type="line"/>
      <point x="336" y="496" type="line"/>
      <point x="286" y="496" type="line"/>
      <point x="286" y="0" type="line"/>
    </contour>
  </outline>
</glyph>
<glyph name="uni0C7B" format="2">
  <advance width="637"/>
  <unicode hex="0C7B"/>
  <outline>
    <contour>
      <point x="185" y="158" type="curve" smooth="yes"/>
      <point x="248" y="158"/>
      <point x="297" y="199"/>
      <point x="300" y="315" type="curve"/>
      <point x="296" y="331" type="line"/>
      <point x="296" y="496" type="line"/>
      <point x="278" y="496" type="line"/>
      <point x="278" y="352" type="line" smooth="yes"/>
      <point x="278" y="290"/>
      <point x="265" y="226"/>
      <point x="194" y="226" type="curve" smooth="yes"/>
      <point x="130" y="226"/>
      <point x="112" y="267"/>
      <point x="112" y="352" type="curve" smooth="yes"/>
      <point x="112" y="496" type="line"/>
      <point x="62" y="496" type="line"/>
      <point x="62" y="332" type="line" smooth="yes"/>
      <point x="62" y="209"/>
      <point x="103" y="158"/>
    </contour>
    <contour>
      <point x="401" y="158" type="curve" smooth="yes"/>
      <point x="460" y="158"/>
      <point x="510" y="199"/>
      <point x="513" y="315" type="curve"/>
      <point x="512" y="331" type="line"/>
      <point x="512" y="496" type="line"/>
      <point x="494" y="496" type="line"/>
      <point x="494" y="352" type="line" smooth="yes"/>
      <point x="494" y="290"/>
      <point x="481" y="226"/>
      <point x="410" y="226" type="curve" smooth="yes"/>
      <point x="346" y="226"/>
      <point x="328" y="267"/>
      <point x="328" y="352" type="curve" smooth="yes"/>
      <point x="328" y="496" type="line"/>
      <point x="278" y="496" type="line"/>
      <point x="278" y="332" type="line" smooth="yes"/>
      <point x="278" y="209"/>
      <point x="319" y="158"/>
    </contour>
    <contour>
      <point x="544" y="0" type="line"/>
      <point x="544" y="496" type="line"/>
      <point x="494" y="496" type="line"/>
      <point x="494" y="0" type="line"/>
    </contour>
  </outline>
</glyph>
<glyph name="uni0C7C" format="2">
  <advance width="564"/>
  <unicode hex="0C7C"/>
  <outline>
    <contour>
      <point x="34" y="220" type="line"/>
      <point x="530" y="220" type="line"/>
      <point x="530" y="284" type="line"/>
      <point x="34" y="284" type="line"/>
    </contour>
  </outline>
</glyph>
<glyph name="uni0C7D" format="2">
  <advance width="554"/>
  <unicode hex="0C7D"/>
  <outline>
    <contour>
      <point x="49" y="126" type="curve" smooth="yes"/>
      <point x="49" y="84"/>
      <point x="62" y="56"/>
      <point x="87" y="36" type="curve" smooth="yes"/>
      <point x="115" y="13"/>
      <point x="157" y="0"/>
      <point x="235" y="0" type="curve" smooth="yes"/>
      <point x="538" y="0" type="line"/>
      <point x="538" y="67" type="line"/>
      <point x="221" y="67" type="line" smooth="yes"/>
      <point x="154" y="67"/>
      <point x="101" y="71"/>
      <point x="101" y="130" type="curve" smooth="yes"/>
      <point x="101" y="180"/>
      <point x="156" y="202"/>
      <point x="270" y="230" type="curve" smooth="yes"/>
      <point x="392" y="260"/>
      <point x="468" y="291"/>
      <point x="468" y="376" type="curve" smooth="yes"/>
      <point x="468" y="413"/>
      <point x="454" y="445"/>
      <point x="431" y="464" type="curve" smooth="yes"/>
      <point x="405" y="485"/>
      <point x="371" y="496"/>
      <point x="296" y="496" type="curve" smooth="yes"/>
      <point x="50" y="496" type="line"/>
      <point x="50" y="430" type="line"/>
      <point x="312" y="430" type="line" smooth="yes"/>
      <point x="385" y="430"/>
      <point x="416" y="419"/>
      <point x="416" y="373" type="curve" smooth="yes"/>
      <point x="416" y="324"/>
      <point x="375" y="305"/>
      <point x="266" y="278" type="curve" smooth="yes"/>
      <point x="137" y="246"/>
      <point x="49" y="213"/>
    </contour>
  </outline>
</glyph>
<glyph name="uni0C7E" format="2">
  <advance width="554"/>
  <unicode hex="0C7E"/>
  <outline>
    <contour>
      <point x="49" y="83" type="curve"/>
      <point x="49" y="54"/>
      <point x="61" y="34"/>
      <point x="78" y="22" type="curve" smooth="yes"/>
      <point x="99" y="7"/>
      <point x="127" y="0"/>
      <point x="183" y="0" type="curve" smooth="yes"/>
      <point x="538" y="0" type="line"/>
      <point x="538" y="56" type="line"/>
      <point x="162" y="56" type="line" smooth="yes"/>
      <point x="119" y="56"/>
      <point x="101" y="66"/>
      <point x="101" y="89" type="curve" smooth="yes"/>
      <point x="101" y="116"/>
      <point x="118" y="132"/>
      <point x="276" y="160" type="curve" smooth="yes"/>
      <point x="430" y="187"/>
      <point x="469" y="209"/>
      <point x="469" y="272" type="curve" smooth="yes"/>
      <point x="469" y="294"/>
      <point x="460" y="314"/>
      <point x="446" y="326" type="curve" smooth="yes"/>
      <point x="424" y="344"/>
      <point x="392" y="350"/>
      <point x="339" y="350" type="curve" smooth="yes"/>
      <point x="156" y="350" type="line" smooth="yes"/>
      <point x="116" y="350"/>
      <point x="101" y="358"/>
      <point x="101" y="378" type="curve" smooth="yes"/>
      <point x="101" y="401"/>
      <point x="114" y="416"/>
      <point x="266" y="443" type="curve" smooth="yes"/>
      <point x="432" y="472"/>
      <point x="469" y="500"/>
      <point x="469" y="559" type="curve" smooth="yes"/>
      <point x="469" y="588"/>
      <point x="458" y="607"/>
      <point x="443" y="618" type="curve" smooth="yes"/>
      <point x="421" y="634"/>
      <point x="391" y="641"/>
      <point x="332" y="641" type="curve" smooth="yes"/>
      <point x="51" y="641" type="line"/>
      <point x="51" y="587" type="line"/>
      <point x="353" y="587" type="line" smooth="yes"/>
      <point x="395" y="587"/>
      <point x="417" y="579"/>
      <point x="417" y="553" type="curve" smooth="yes"/>
      <point x="417" y="527"/>
      <point x="401" y="511"/>
      <point x="250" y="485" type="curve" smooth="yes"/>
      <point x="93" y="458"/>
      <point x="49" y="436"/>
      <point x="49" y="372" type="curve" smooth="yes"/>
      <point x="49" y="349"/>
      <point x="59" y="328"/>
      <point x="75" y="317" type="curve" smooth="yes"/>
      <point x="97" y="302"/>
      <point x="126" y="295"/>
      <point x="182" y="295" type="curve" smooth="yes"/>
      <point x="358" y="295" type="line" smooth="yes"/>
      <point x="398" y="295"/>
      <point x="417" y="289"/>
      <point x="417" y="266" type="curve" smooth="yes"/>
      <point x="417" y="242"/>
      <point x="405" y="227"/>
      <point x="259" y="202" type="curve" smooth="yes"/>
      <point x="90" y="173"/>
      <point x="49" y="146"/>
    </contour>
  </outline>
</glyph>
<glyph name="uni0C7F" format="2">
  <advance width="679"/>
  <unicode hex="0C7F"/>
  <outline>
    <contour>
      <point x="303" y="-12" type="curve" smooth="yes"/>
      <point x="535" y="-12"/>
      <point x="608" y="162"/>
      <point x="653" y="317" type="curve"/>
      <point x="610" y="333" type="line"/>
      <point x="564" y="216"/>
      <point x="502" y="99"/>
      <point x="318" y="99" type="curve" smooth="yes"/>
      <point x="171" y="99"/>
      <point x="91" y="161"/>
      <point x="91" y="273" type="curve" smooth="yes"/>
      <point x="91" y="340"/>
      <point x="116" y="385"/>
      <point x="151" y="413" type="curve"/>
      <point x="146" y="415" type="line"/>
      <point x="140" y="402"/>
      <point x="138" y="389"/>
      <point x="138" y="379" type="curve" smooth="yes"/>
      <point x="138" y="302"/>
      <point x="187" y="261"/>
      <point x="254" y="261" type="curve" smooth="yes"/>
      <point x="330" y="261"/>
      <point x="375" y="311"/>
      <point x="375" y="381" type="curve" smooth="yes"/>
      <point x="375" y="446"/>
      <point x="333" y="500"/>
      <point x="250" y="500" type="curve" smooth="yes"/>
      <point x="131" y="500"/>
      <point x="45" y="398"/>
      <point x="45" y="251" type="curve" smooth="yes"/>
      <point x="45" y="58"/>
      <point x="153" y="-12"/>
    </contour>
    <contour>
      <point x="316" y="371" type="curve" smooth="yes"/>
      <point x="316" y="329"/>
      <point x="290" y="304"/>
      <point x="255" y="304" type="curve" smooth="yes"/>
      <point x="221" y="304"/>
      <point x="190" y="322"/>
      <point x="190" y="371" type="curve" smooth="yes"/>
      <point x="190" y="416"/>
      <point x="219" y="438"/>
      <point x="251" y="438" type="curve" smooth="yes"/>
      <point x="290" y="438"/>
      <point x="316" y="413"/>
    </contour>
  </outline>
</glyph>
<glyph name="uni1CDA" format="2">
  <unicode hex="1CDA"/>
  <outline>
    <contour>
      <point x="-374" y="601" type="line"/>
      <point x="-316" y="601" type="line"/>
      <point x="-316" y="812" type="line"/>
      <point x="-374" y="812" type="line"/>
    </contour>
    <contour>
      <point x="-254" y="601" type="line"/>
      <point x="-196" y="601" type="line"/>
      <point x="-196" y="812" type="line"/>
      <point x="-254" y="812" type="line"/>
    </contour>
  </outline>
</glyph>
<glyph name="uni1CF2" format="2">
  <advance width="449"/>
  <unicode hex="1CF2"/>
  <outline>
    <contour>
      <point x="346" y="428" type="line"/>
      <point x="321" y="341"/>
      <point x="278" y="304"/>
      <point x="211" y="304" type="curve" smooth="yes"/>
      <point x="135" y="304"/>
      <point x="91" y="344"/>
      <point x="67" y="428" type="curve"/>
      <point x="23" y="419" type="line"/>
      <point x="46" y="306"/>
      <point x="112" y="236"/>
      <point x="226" y="236" type="curve" smooth="yes"/>
      <point x="323" y="236"/>
      <point x="390" y="288"/>
      <point x="426" y="411" type="curve"/>
    </contour>
    <contour>
      <point x="103" y="-4" type="line"/>
      <point x="128" y="83"/>
      <point x="171" y="120"/>
      <point x="238" y="120" type="curve" smooth="yes"/>
      <point x="314" y="120"/>
      <point x="358" y="80"/>
      <point x="382" y="-4" type="curve"/>
      <point x="426" y="5" type="line"/>
      <point x="403" y="118"/>
      <point x="337" y="188"/>
      <point x="223" y="188" type="curve" smooth="yes"/>
      <point x="126" y="188"/>
      <point x="59" y="136"/>
      <point x="23" y="13" type="curve"/>
    </contour>
  </outline>
</glyph>
